%TF.GenerationSoftware,KiCad,Pcbnew,(5.1.8-0-10_14)*%
%TF.CreationDate,2021-04-16T18:19:52+02:00*%
%TF.ProjectId,SimpleCANAdapter,53696d70-6c65-4434-914e-416461707465,rev?*%
%TF.SameCoordinates,Original*%
%TF.FileFunction,Copper,L3,Inr*%
%TF.FilePolarity,Positive*%
%FSLAX46Y46*%
G04 Gerber Fmt 4.6, Leading zero omitted, Abs format (unit mm)*
G04 Created by KiCad (PCBNEW (5.1.8-0-10_14)) date 2021-04-16 18:19:52*
%MOMM*%
%LPD*%
G01*
G04 APERTURE LIST*
%TA.AperFunction,ComponentPad*%
%ADD10C,1.450000*%
%TD*%
%TA.AperFunction,ComponentPad*%
%ADD11O,1.900000X0.950000*%
%TD*%
%TA.AperFunction,ComponentPad*%
%ADD12R,1.350000X1.350000*%
%TD*%
%TA.AperFunction,ComponentPad*%
%ADD13O,1.350000X1.350000*%
%TD*%
%TA.AperFunction,ViaPad*%
%ADD14C,0.500000*%
%TD*%
%TA.AperFunction,ViaPad*%
%ADD15C,0.800000*%
%TD*%
%TA.AperFunction,Conductor*%
%ADD16C,0.254000*%
%TD*%
%TA.AperFunction,Conductor*%
%ADD17C,0.100000*%
%TD*%
G04 APERTURE END LIST*
D10*
%TO.N,N/C*%
%TO.C,J2*%
X71750000Y-86300000D03*
X71750000Y-91300000D03*
D11*
X69050000Y-85300000D03*
X69050000Y-92300000D03*
%TD*%
D12*
%TO.N,+3V3*%
%TO.C,J3*%
X105390000Y-82960000D03*
D13*
%TO.N,SWDIO*%
X103390000Y-82960000D03*
%TO.N,SWCLK*%
X101390000Y-82960000D03*
%TO.N,GNDREF*%
X99390000Y-82960000D03*
%TD*%
D14*
%TO.N,GNDREF*%
X110150000Y-95000000D03*
X95840000Y-95760000D03*
X72600000Y-84400000D03*
X112240000Y-87640000D03*
X73080000Y-92450000D03*
X74680000Y-92390000D03*
X73740000Y-86020000D03*
X76080000Y-86440000D03*
X79780000Y-81890000D03*
X75010002Y-83760000D03*
X88960000Y-95430000D03*
X86350000Y-84500000D03*
X102900000Y-92820000D03*
X78110000Y-94750000D03*
X79250000Y-94570000D03*
X106270000Y-87929996D03*
X71170000Y-95250000D03*
X102030000Y-87710000D03*
X91650000Y-81860000D03*
X92335991Y-82535991D03*
X100560000Y-94970000D03*
D15*
X86570000Y-87800000D03*
X86090000Y-90110000D03*
X87960000Y-90820000D03*
D14*
X83814990Y-93445000D03*
D15*
X87990000Y-87800000D03*
D14*
X81290000Y-81770000D03*
X88133616Y-96050740D03*
X109850000Y-86800000D03*
D15*
X70560000Y-90040000D03*
%TO.N,+3V3*%
X82160000Y-92500000D03*
D14*
X87600000Y-82550000D03*
X113950000Y-95850000D03*
D15*
X82070000Y-91380000D03*
D14*
X110740000Y-85140000D03*
X99277993Y-95802007D03*
X81320000Y-93750000D03*
X80999992Y-95660008D03*
X102110000Y-86150000D03*
D15*
X87070000Y-85690000D03*
X88550000Y-85750000D03*
X87110000Y-92620000D03*
X88610000Y-92800000D03*
X80660000Y-87000000D03*
D14*
%TO.N,+5V*%
X73890000Y-94140000D03*
X75590000Y-94190000D03*
X77290000Y-94180000D03*
X74110000Y-81950000D03*
X76330000Y-81880000D03*
X77090000Y-88480000D03*
X77480000Y-81830000D03*
D15*
%TO.N,BLUE_LED*%
X93250000Y-95762000D03*
X92100000Y-87860000D03*
D14*
%TO.N,Net-(F1-Pad2)*%
X70570000Y-87320000D03*
%TO.N,CAN_H*%
X106420000Y-89860000D03*
%TO.N,CAN_L*%
X107620000Y-88904990D03*
D15*
%TO.N,CAN_TX*%
X93403692Y-86697842D03*
%TO.N,CAN_RX*%
X96270000Y-88430000D03*
D14*
%TO.N,USART_RX*%
X83360000Y-86080000D03*
D15*
X92599990Y-91594620D03*
D14*
X85730000Y-92810000D03*
%TO.N,Net-(U4-Pad3)*%
X83826063Y-87093939D03*
X77610000Y-87040000D03*
%TO.N,Net-(U4-Pad4)*%
X83250000Y-88640000D03*
X80780000Y-89840000D03*
%TO.N,PIN3*%
X92160000Y-90640000D03*
X92615000Y-88915000D03*
%TD*%
D16*
%TO.N,+3V3*%
X78895000Y-81802835D02*
X78895000Y-81977165D01*
X78929010Y-82148145D01*
X78995723Y-82309205D01*
X79092576Y-82454155D01*
X79215845Y-82577424D01*
X79360795Y-82674277D01*
X79521855Y-82740990D01*
X79692835Y-82775000D01*
X79867165Y-82775000D01*
X80038145Y-82740990D01*
X80199205Y-82674277D01*
X80344155Y-82577424D01*
X80467424Y-82454155D01*
X80564277Y-82309205D01*
X80572554Y-82289224D01*
X80602576Y-82334155D01*
X80725845Y-82457424D01*
X80870795Y-82554277D01*
X81031855Y-82620990D01*
X81202835Y-82655000D01*
X81377165Y-82655000D01*
X81548145Y-82620990D01*
X81709205Y-82554277D01*
X81854155Y-82457424D01*
X81977424Y-82334155D01*
X82074277Y-82189205D01*
X82140990Y-82028145D01*
X82175000Y-81857165D01*
X82175000Y-81736000D01*
X90772327Y-81736000D01*
X90765000Y-81772835D01*
X90765000Y-81947165D01*
X90799010Y-82118145D01*
X90865723Y-82279205D01*
X90962576Y-82424155D01*
X91085845Y-82547424D01*
X91230795Y-82644277D01*
X91391855Y-82710990D01*
X91471618Y-82726856D01*
X91485001Y-82794136D01*
X91551714Y-82955196D01*
X91648567Y-83100146D01*
X91771836Y-83223415D01*
X91916786Y-83320268D01*
X92077846Y-83386981D01*
X92248826Y-83420991D01*
X92423156Y-83420991D01*
X92594136Y-83386981D01*
X92755196Y-83320268D01*
X92900146Y-83223415D01*
X93023415Y-83100146D01*
X93120268Y-82955196D01*
X93186981Y-82794136D01*
X93220991Y-82623156D01*
X93220991Y-82448826D01*
X93186981Y-82277846D01*
X93120268Y-82116786D01*
X93023415Y-81971836D01*
X92900146Y-81848567D01*
X92755196Y-81751714D01*
X92717259Y-81736000D01*
X98921801Y-81736000D01*
X98769482Y-81799093D01*
X98554923Y-81942456D01*
X98372456Y-82124923D01*
X98229093Y-82339482D01*
X98130342Y-82577887D01*
X98080000Y-82830976D01*
X98080000Y-83089024D01*
X98130342Y-83342113D01*
X98229093Y-83580518D01*
X98372456Y-83795077D01*
X98554923Y-83977544D01*
X98769482Y-84120907D01*
X99007887Y-84219658D01*
X99260976Y-84270000D01*
X99519024Y-84270000D01*
X99772113Y-84219658D01*
X100010518Y-84120907D01*
X100225077Y-83977544D01*
X100390000Y-83812621D01*
X100554923Y-83977544D01*
X100769482Y-84120907D01*
X101007887Y-84219658D01*
X101260976Y-84270000D01*
X101519024Y-84270000D01*
X101772113Y-84219658D01*
X102010518Y-84120907D01*
X102225077Y-83977544D01*
X102390000Y-83812621D01*
X102554923Y-83977544D01*
X102769482Y-84120907D01*
X103007887Y-84219658D01*
X103260976Y-84270000D01*
X103519024Y-84270000D01*
X103772113Y-84219658D01*
X104010518Y-84120907D01*
X104192513Y-83999303D01*
X104263815Y-84086185D01*
X104360506Y-84165537D01*
X104470820Y-84224502D01*
X104590518Y-84260812D01*
X104715000Y-84273072D01*
X105104250Y-84270000D01*
X105263000Y-84111250D01*
X105263000Y-83087000D01*
X105517000Y-83087000D01*
X105517000Y-84111250D01*
X105675750Y-84270000D01*
X106065000Y-84273072D01*
X106189482Y-84260812D01*
X106309180Y-84224502D01*
X106419494Y-84165537D01*
X106516185Y-84086185D01*
X106595537Y-83989494D01*
X106654502Y-83879180D01*
X106690812Y-83759482D01*
X106703072Y-83635000D01*
X106700000Y-83245750D01*
X106541250Y-83087000D01*
X105517000Y-83087000D01*
X105263000Y-83087000D01*
X105243000Y-83087000D01*
X105243000Y-82833000D01*
X105263000Y-82833000D01*
X105263000Y-82813000D01*
X105517000Y-82813000D01*
X105517000Y-82833000D01*
X106541250Y-82833000D01*
X106700000Y-82674250D01*
X106703072Y-82285000D01*
X106690812Y-82160518D01*
X106654502Y-82040820D01*
X106595537Y-81930506D01*
X106516185Y-81833815D01*
X106419494Y-81754463D01*
X106384953Y-81736000D01*
X114265271Y-81736000D01*
X114452785Y-81754386D01*
X114599748Y-81798757D01*
X114735297Y-81870829D01*
X114854258Y-81967852D01*
X114952118Y-82086144D01*
X115025132Y-82221181D01*
X115070529Y-82367833D01*
X115090001Y-82553101D01*
X115090000Y-95491270D01*
X115071614Y-95678783D01*
X115027243Y-95825747D01*
X114955171Y-95961296D01*
X114858148Y-96080257D01*
X114739856Y-96178117D01*
X114604819Y-96251131D01*
X114458167Y-96296528D01*
X114272908Y-96315999D01*
X96532874Y-96315999D01*
X96624277Y-96179205D01*
X96690990Y-96018145D01*
X96725000Y-95847165D01*
X96725000Y-95672835D01*
X96690990Y-95501855D01*
X96624277Y-95340795D01*
X96527424Y-95195845D01*
X96404155Y-95072576D01*
X96259205Y-94975723D01*
X96098145Y-94909010D01*
X95966555Y-94882835D01*
X99675000Y-94882835D01*
X99675000Y-95057165D01*
X99709010Y-95228145D01*
X99775723Y-95389205D01*
X99872576Y-95534155D01*
X99995845Y-95657424D01*
X100140795Y-95754277D01*
X100301855Y-95820990D01*
X100472835Y-95855000D01*
X100647165Y-95855000D01*
X100818145Y-95820990D01*
X100979205Y-95754277D01*
X101124155Y-95657424D01*
X101247424Y-95534155D01*
X101344277Y-95389205D01*
X101410990Y-95228145D01*
X101445000Y-95057165D01*
X101445000Y-94912835D01*
X109265000Y-94912835D01*
X109265000Y-95087165D01*
X109299010Y-95258145D01*
X109365723Y-95419205D01*
X109462576Y-95564155D01*
X109585845Y-95687424D01*
X109730795Y-95784277D01*
X109891855Y-95850990D01*
X110062835Y-95885000D01*
X110237165Y-95885000D01*
X110408145Y-95850990D01*
X110569205Y-95784277D01*
X110714155Y-95687424D01*
X110837424Y-95564155D01*
X110934277Y-95419205D01*
X111000990Y-95258145D01*
X111035000Y-95087165D01*
X111035000Y-94912835D01*
X111000990Y-94741855D01*
X110934277Y-94580795D01*
X110837424Y-94435845D01*
X110714155Y-94312576D01*
X110569205Y-94215723D01*
X110408145Y-94149010D01*
X110237165Y-94115000D01*
X110062835Y-94115000D01*
X109891855Y-94149010D01*
X109730795Y-94215723D01*
X109585845Y-94312576D01*
X109462576Y-94435845D01*
X109365723Y-94580795D01*
X109299010Y-94741855D01*
X109265000Y-94912835D01*
X101445000Y-94912835D01*
X101445000Y-94882835D01*
X101410990Y-94711855D01*
X101344277Y-94550795D01*
X101247424Y-94405845D01*
X101124155Y-94282576D01*
X100979205Y-94185723D01*
X100818145Y-94119010D01*
X100647165Y-94085000D01*
X100472835Y-94085000D01*
X100301855Y-94119010D01*
X100140795Y-94185723D01*
X99995845Y-94282576D01*
X99872576Y-94405845D01*
X99775723Y-94550795D01*
X99709010Y-94711855D01*
X99675000Y-94882835D01*
X95966555Y-94882835D01*
X95927165Y-94875000D01*
X95752835Y-94875000D01*
X95581855Y-94909010D01*
X95420795Y-94975723D01*
X95275845Y-95072576D01*
X95152576Y-95195845D01*
X95055723Y-95340795D01*
X94989010Y-95501855D01*
X94955000Y-95672835D01*
X94955000Y-95847165D01*
X94989010Y-96018145D01*
X95055723Y-96179205D01*
X95147126Y-96315999D01*
X94124613Y-96315999D01*
X94167205Y-96252256D01*
X94245226Y-96063898D01*
X94285000Y-95863939D01*
X94285000Y-95660061D01*
X94245226Y-95460102D01*
X94167205Y-95271744D01*
X94053937Y-95102226D01*
X93909774Y-94958063D01*
X93740256Y-94844795D01*
X93551898Y-94766774D01*
X93351939Y-94727000D01*
X93148061Y-94727000D01*
X92948102Y-94766774D01*
X92759744Y-94844795D01*
X92590226Y-94958063D01*
X92446063Y-95102226D01*
X92332795Y-95271744D01*
X92254774Y-95460102D01*
X92215000Y-95660061D01*
X92215000Y-95863939D01*
X92254774Y-96063898D01*
X92332795Y-96252256D01*
X92375387Y-96315999D01*
X88981659Y-96315999D01*
X88982073Y-96315000D01*
X89047165Y-96315000D01*
X89218145Y-96280990D01*
X89379205Y-96214277D01*
X89524155Y-96117424D01*
X89647424Y-95994155D01*
X89744277Y-95849205D01*
X89810990Y-95688145D01*
X89845000Y-95517165D01*
X89845000Y-95342835D01*
X89810990Y-95171855D01*
X89744277Y-95010795D01*
X89647424Y-94865845D01*
X89524155Y-94742576D01*
X89379205Y-94645723D01*
X89218145Y-94579010D01*
X89047165Y-94545000D01*
X88872835Y-94545000D01*
X88701855Y-94579010D01*
X88540795Y-94645723D01*
X88395845Y-94742576D01*
X88272576Y-94865845D01*
X88175723Y-95010795D01*
X88111543Y-95165740D01*
X88046451Y-95165740D01*
X87875471Y-95199750D01*
X87714411Y-95266463D01*
X87569461Y-95363316D01*
X87446192Y-95486585D01*
X87349339Y-95631535D01*
X87282626Y-95792595D01*
X87248616Y-95963575D01*
X87248616Y-96137905D01*
X87282626Y-96308885D01*
X87285573Y-96315999D01*
X78864319Y-96315999D01*
X78778438Y-95333141D01*
X78786739Y-95324840D01*
X78830795Y-95354277D01*
X78991855Y-95420990D01*
X79162835Y-95455000D01*
X79337165Y-95455000D01*
X79508145Y-95420990D01*
X79669205Y-95354277D01*
X79814155Y-95257424D01*
X79937424Y-95134155D01*
X80034277Y-94989205D01*
X80100990Y-94828145D01*
X80135000Y-94657165D01*
X80135000Y-94482835D01*
X80100990Y-94311855D01*
X80034277Y-94150795D01*
X79937424Y-94005845D01*
X79814155Y-93882576D01*
X79669205Y-93785723D01*
X79508145Y-93719010D01*
X79337165Y-93685000D01*
X79162835Y-93685000D01*
X78991855Y-93719010D01*
X78830795Y-93785723D01*
X78685845Y-93882576D01*
X78654434Y-93913987D01*
X78605839Y-93357835D01*
X82929990Y-93357835D01*
X82929990Y-93532165D01*
X82964000Y-93703145D01*
X83030713Y-93864205D01*
X83127566Y-94009155D01*
X83250835Y-94132424D01*
X83395785Y-94229277D01*
X83556845Y-94295990D01*
X83727825Y-94330000D01*
X83902155Y-94330000D01*
X84073135Y-94295990D01*
X84234195Y-94229277D01*
X84379145Y-94132424D01*
X84502414Y-94009155D01*
X84599267Y-93864205D01*
X84665980Y-93703145D01*
X84699990Y-93532165D01*
X84699990Y-93357835D01*
X84665980Y-93186855D01*
X84599267Y-93025795D01*
X84502414Y-92880845D01*
X84379145Y-92757576D01*
X84327152Y-92722835D01*
X84845000Y-92722835D01*
X84845000Y-92897165D01*
X84879010Y-93068145D01*
X84945723Y-93229205D01*
X85042576Y-93374155D01*
X85165845Y-93497424D01*
X85310795Y-93594277D01*
X85471855Y-93660990D01*
X85642835Y-93695000D01*
X85817165Y-93695000D01*
X85988145Y-93660990D01*
X86149205Y-93594277D01*
X86294155Y-93497424D01*
X86417424Y-93374155D01*
X86514277Y-93229205D01*
X86580990Y-93068145D01*
X86615000Y-92897165D01*
X86615000Y-92732835D01*
X102015000Y-92732835D01*
X102015000Y-92907165D01*
X102049010Y-93078145D01*
X102115723Y-93239205D01*
X102212576Y-93384155D01*
X102335845Y-93507424D01*
X102480795Y-93604277D01*
X102641855Y-93670990D01*
X102812835Y-93705000D01*
X102987165Y-93705000D01*
X103158145Y-93670990D01*
X103319205Y-93604277D01*
X103464155Y-93507424D01*
X103587424Y-93384155D01*
X103684277Y-93239205D01*
X103750990Y-93078145D01*
X103785000Y-92907165D01*
X103785000Y-92732835D01*
X103750990Y-92561855D01*
X103684277Y-92400795D01*
X103587424Y-92255845D01*
X103464155Y-92132576D01*
X103319205Y-92035723D01*
X103158145Y-91969010D01*
X102987165Y-91935000D01*
X102812835Y-91935000D01*
X102641855Y-91969010D01*
X102480795Y-92035723D01*
X102335845Y-92132576D01*
X102212576Y-92255845D01*
X102115723Y-92400795D01*
X102049010Y-92561855D01*
X102015000Y-92732835D01*
X86615000Y-92732835D01*
X86615000Y-92722835D01*
X86580990Y-92551855D01*
X86514277Y-92390795D01*
X86417424Y-92245845D01*
X86294155Y-92122576D01*
X86149205Y-92025723D01*
X85988145Y-91959010D01*
X85817165Y-91925000D01*
X85642835Y-91925000D01*
X85471855Y-91959010D01*
X85310795Y-92025723D01*
X85165845Y-92122576D01*
X85042576Y-92245845D01*
X84945723Y-92390795D01*
X84879010Y-92551855D01*
X84845000Y-92722835D01*
X84327152Y-92722835D01*
X84234195Y-92660723D01*
X84073135Y-92594010D01*
X83902155Y-92560000D01*
X83727825Y-92560000D01*
X83556845Y-92594010D01*
X83395785Y-92660723D01*
X83250835Y-92757576D01*
X83127566Y-92880845D01*
X83030713Y-93025795D01*
X82964000Y-93186855D01*
X82929990Y-93357835D01*
X78605839Y-93357835D01*
X78506343Y-92219162D01*
X78517333Y-92198601D01*
X78524560Y-92174776D01*
X78526808Y-92156981D01*
X78618644Y-90488690D01*
X78618820Y-90479709D01*
X78607374Y-89752835D01*
X79895000Y-89752835D01*
X79895000Y-89927165D01*
X79929010Y-90098145D01*
X79995723Y-90259205D01*
X80092576Y-90404155D01*
X80215845Y-90527424D01*
X80360795Y-90624277D01*
X80521855Y-90690990D01*
X80692835Y-90725000D01*
X80867165Y-90725000D01*
X81038145Y-90690990D01*
X81199205Y-90624277D01*
X81344155Y-90527424D01*
X81467424Y-90404155D01*
X81564277Y-90259205D01*
X81630990Y-90098145D01*
X81648908Y-90008061D01*
X85055000Y-90008061D01*
X85055000Y-90211939D01*
X85094774Y-90411898D01*
X85172795Y-90600256D01*
X85286063Y-90769774D01*
X85430226Y-90913937D01*
X85599744Y-91027205D01*
X85788102Y-91105226D01*
X85988061Y-91145000D01*
X86191939Y-91145000D01*
X86391898Y-91105226D01*
X86580256Y-91027205D01*
X86749774Y-90913937D01*
X86893937Y-90769774D01*
X86925000Y-90723285D01*
X86925000Y-90921939D01*
X86964774Y-91121898D01*
X87042795Y-91310256D01*
X87156063Y-91479774D01*
X87300226Y-91623937D01*
X87469744Y-91737205D01*
X87658102Y-91815226D01*
X87858061Y-91855000D01*
X88061939Y-91855000D01*
X88261898Y-91815226D01*
X88450256Y-91737205D01*
X88619774Y-91623937D01*
X88763937Y-91479774D01*
X88877205Y-91310256D01*
X88955226Y-91121898D01*
X88995000Y-90921939D01*
X88995000Y-90718061D01*
X88962135Y-90552835D01*
X91275000Y-90552835D01*
X91275000Y-90727165D01*
X91309010Y-90898145D01*
X91375723Y-91059205D01*
X91472576Y-91204155D01*
X91595845Y-91327424D01*
X91597625Y-91328613D01*
X91564990Y-91492681D01*
X91564990Y-91696559D01*
X91604764Y-91896518D01*
X91682785Y-92084876D01*
X91796053Y-92254394D01*
X91940216Y-92398557D01*
X92109734Y-92511825D01*
X92298092Y-92589846D01*
X92498051Y-92629620D01*
X92701929Y-92629620D01*
X92901888Y-92589846D01*
X93090246Y-92511825D01*
X93259764Y-92398557D01*
X93403927Y-92254394D01*
X93517195Y-92084876D01*
X93595216Y-91896518D01*
X93634990Y-91696559D01*
X93634990Y-91492681D01*
X93595216Y-91292722D01*
X93517195Y-91104364D01*
X93512984Y-91098061D01*
X111165000Y-91098061D01*
X111165000Y-91301939D01*
X111204774Y-91501898D01*
X111282795Y-91690256D01*
X111396063Y-91859774D01*
X111540226Y-92003937D01*
X111709744Y-92117205D01*
X111898102Y-92195226D01*
X112098061Y-92235000D01*
X112301939Y-92235000D01*
X112501898Y-92195226D01*
X112690256Y-92117205D01*
X112859774Y-92003937D01*
X113003937Y-91859774D01*
X113117205Y-91690256D01*
X113195226Y-91501898D01*
X113235000Y-91301939D01*
X113235000Y-91098061D01*
X113195226Y-90898102D01*
X113117205Y-90709744D01*
X113003937Y-90540226D01*
X112859774Y-90396063D01*
X112690256Y-90282795D01*
X112501898Y-90204774D01*
X112301939Y-90165000D01*
X112098061Y-90165000D01*
X111898102Y-90204774D01*
X111709744Y-90282795D01*
X111540226Y-90396063D01*
X111396063Y-90540226D01*
X111282795Y-90709744D01*
X111204774Y-90898102D01*
X111165000Y-91098061D01*
X93512984Y-91098061D01*
X93403927Y-90934846D01*
X93259764Y-90790683D01*
X93090246Y-90677415D01*
X93045000Y-90658673D01*
X93045000Y-90552835D01*
X93010990Y-90381855D01*
X92944277Y-90220795D01*
X92847424Y-90075845D01*
X92724155Y-89952576D01*
X92579205Y-89855723D01*
X92418145Y-89789010D01*
X92247165Y-89755000D01*
X92072835Y-89755000D01*
X91901855Y-89789010D01*
X91740795Y-89855723D01*
X91595845Y-89952576D01*
X91472576Y-90075845D01*
X91375723Y-90220795D01*
X91309010Y-90381855D01*
X91275000Y-90552835D01*
X88962135Y-90552835D01*
X88955226Y-90518102D01*
X88877205Y-90329744D01*
X88763937Y-90160226D01*
X88619774Y-90016063D01*
X88450256Y-89902795D01*
X88261898Y-89824774D01*
X88061939Y-89785000D01*
X87858061Y-89785000D01*
X87658102Y-89824774D01*
X87469744Y-89902795D01*
X87300226Y-90016063D01*
X87156063Y-90160226D01*
X87125000Y-90206715D01*
X87125000Y-90008061D01*
X87085226Y-89808102D01*
X87007205Y-89619744D01*
X86893937Y-89450226D01*
X86749774Y-89306063D01*
X86580256Y-89192795D01*
X86391898Y-89114774D01*
X86191939Y-89075000D01*
X85988061Y-89075000D01*
X85788102Y-89114774D01*
X85599744Y-89192795D01*
X85430226Y-89306063D01*
X85286063Y-89450226D01*
X85172795Y-89619744D01*
X85094774Y-89808102D01*
X85055000Y-90008061D01*
X81648908Y-90008061D01*
X81665000Y-89927165D01*
X81665000Y-89752835D01*
X81630990Y-89581855D01*
X81564277Y-89420795D01*
X81467424Y-89275845D01*
X81344155Y-89152576D01*
X81199205Y-89055723D01*
X81038145Y-88989010D01*
X80867165Y-88955000D01*
X80692835Y-88955000D01*
X80521855Y-88989010D01*
X80360795Y-89055723D01*
X80215845Y-89152576D01*
X80092576Y-89275845D01*
X79995723Y-89420795D01*
X79929010Y-89581855D01*
X79895000Y-89752835D01*
X78607374Y-89752835D01*
X78588477Y-88552835D01*
X82365000Y-88552835D01*
X82365000Y-88727165D01*
X82399010Y-88898145D01*
X82465723Y-89059205D01*
X82562576Y-89204155D01*
X82685845Y-89327424D01*
X82830795Y-89424277D01*
X82991855Y-89490990D01*
X83162835Y-89525000D01*
X83337165Y-89525000D01*
X83508145Y-89490990D01*
X83669205Y-89424277D01*
X83814155Y-89327424D01*
X83937424Y-89204155D01*
X84034277Y-89059205D01*
X84100990Y-88898145D01*
X84135000Y-88727165D01*
X84135000Y-88552835D01*
X84100990Y-88381855D01*
X84034277Y-88220795D01*
X83937424Y-88075845D01*
X83840518Y-87978939D01*
X83913228Y-87978939D01*
X84084208Y-87944929D01*
X84245268Y-87878216D01*
X84390218Y-87781363D01*
X84473520Y-87698061D01*
X85535000Y-87698061D01*
X85535000Y-87901939D01*
X85574774Y-88101898D01*
X85652795Y-88290256D01*
X85766063Y-88459774D01*
X85910226Y-88603937D01*
X86079744Y-88717205D01*
X86268102Y-88795226D01*
X86468061Y-88835000D01*
X86671939Y-88835000D01*
X86871898Y-88795226D01*
X87060256Y-88717205D01*
X87229774Y-88603937D01*
X87280000Y-88553711D01*
X87330226Y-88603937D01*
X87499744Y-88717205D01*
X87688102Y-88795226D01*
X87888061Y-88835000D01*
X88091939Y-88835000D01*
X88291898Y-88795226D01*
X88480256Y-88717205D01*
X88649774Y-88603937D01*
X88793937Y-88459774D01*
X88907205Y-88290256D01*
X88985226Y-88101898D01*
X89025000Y-87901939D01*
X89025000Y-87758061D01*
X91065000Y-87758061D01*
X91065000Y-87961939D01*
X91104774Y-88161898D01*
X91182795Y-88350256D01*
X91296063Y-88519774D01*
X91440226Y-88663937D01*
X91609744Y-88777205D01*
X91730150Y-88827079D01*
X91730000Y-88827835D01*
X91730000Y-89002165D01*
X91764010Y-89173145D01*
X91830723Y-89334205D01*
X91927576Y-89479155D01*
X92050845Y-89602424D01*
X92195795Y-89699277D01*
X92356855Y-89765990D01*
X92527835Y-89800000D01*
X92702165Y-89800000D01*
X92873145Y-89765990D01*
X93034205Y-89699277D01*
X93179155Y-89602424D01*
X93302424Y-89479155D01*
X93399277Y-89334205D01*
X93465990Y-89173145D01*
X93500000Y-89002165D01*
X93500000Y-88827835D01*
X93465990Y-88656855D01*
X93399277Y-88495795D01*
X93302424Y-88350845D01*
X93279640Y-88328061D01*
X95235000Y-88328061D01*
X95235000Y-88531939D01*
X95274774Y-88731898D01*
X95352795Y-88920256D01*
X95466063Y-89089774D01*
X95610226Y-89233937D01*
X95779744Y-89347205D01*
X95968102Y-89425226D01*
X96168061Y-89465000D01*
X96371939Y-89465000D01*
X96571898Y-89425226D01*
X96760256Y-89347205D01*
X96929774Y-89233937D01*
X97073937Y-89089774D01*
X97187205Y-88920256D01*
X97265226Y-88731898D01*
X97305000Y-88531939D01*
X97305000Y-88328061D01*
X97265226Y-88128102D01*
X97187205Y-87939744D01*
X97073937Y-87770226D01*
X96929774Y-87626063D01*
X96924943Y-87622835D01*
X101145000Y-87622835D01*
X101145000Y-87797165D01*
X101179010Y-87968145D01*
X101245723Y-88129205D01*
X101342576Y-88274155D01*
X101465845Y-88397424D01*
X101610795Y-88494277D01*
X101771855Y-88560990D01*
X101942835Y-88595000D01*
X102117165Y-88595000D01*
X102288145Y-88560990D01*
X102449205Y-88494277D01*
X102594155Y-88397424D01*
X102717424Y-88274155D01*
X102814277Y-88129205D01*
X102880990Y-87968145D01*
X102905916Y-87842831D01*
X105385000Y-87842831D01*
X105385000Y-88017161D01*
X105419010Y-88188141D01*
X105485723Y-88349201D01*
X105582576Y-88494151D01*
X105705845Y-88617420D01*
X105850795Y-88714273D01*
X106011855Y-88780986D01*
X106182835Y-88814996D01*
X106357165Y-88814996D01*
X106528145Y-88780986D01*
X106689205Y-88714273D01*
X106765775Y-88663111D01*
X106735000Y-88817825D01*
X106735000Y-88992155D01*
X106743759Y-89036188D01*
X106678145Y-89009010D01*
X106507165Y-88975000D01*
X106332835Y-88975000D01*
X106161855Y-89009010D01*
X106000795Y-89075723D01*
X105855845Y-89172576D01*
X105732576Y-89295845D01*
X105635723Y-89440795D01*
X105569010Y-89601855D01*
X105535000Y-89772835D01*
X105535000Y-89947165D01*
X105569010Y-90118145D01*
X105635723Y-90279205D01*
X105732576Y-90424155D01*
X105855845Y-90547424D01*
X106000795Y-90644277D01*
X106161855Y-90710990D01*
X106332835Y-90745000D01*
X106507165Y-90745000D01*
X106678145Y-90710990D01*
X106839205Y-90644277D01*
X106984155Y-90547424D01*
X107107424Y-90424155D01*
X107204277Y-90279205D01*
X107270990Y-90118145D01*
X107305000Y-89947165D01*
X107305000Y-89772835D01*
X107296241Y-89728802D01*
X107361855Y-89755980D01*
X107532835Y-89789990D01*
X107707165Y-89789990D01*
X107878145Y-89755980D01*
X108039205Y-89689267D01*
X108184155Y-89592414D01*
X108307424Y-89469145D01*
X108404277Y-89324195D01*
X108470990Y-89163135D01*
X108505000Y-88992155D01*
X108505000Y-88817825D01*
X108470990Y-88646845D01*
X108404277Y-88485785D01*
X108307424Y-88340835D01*
X108184155Y-88217566D01*
X108039205Y-88120713D01*
X107878145Y-88054000D01*
X107707165Y-88019990D01*
X107532835Y-88019990D01*
X107361855Y-88054000D01*
X107200795Y-88120713D01*
X107124225Y-88171875D01*
X107155000Y-88017161D01*
X107155000Y-87842831D01*
X107120990Y-87671851D01*
X107054277Y-87510791D01*
X106957424Y-87365841D01*
X106834155Y-87242572D01*
X106689205Y-87145719D01*
X106528145Y-87079006D01*
X106357165Y-87044996D01*
X106182835Y-87044996D01*
X106011855Y-87079006D01*
X105850795Y-87145719D01*
X105705845Y-87242572D01*
X105582576Y-87365841D01*
X105485723Y-87510791D01*
X105419010Y-87671851D01*
X105385000Y-87842831D01*
X102905916Y-87842831D01*
X102915000Y-87797165D01*
X102915000Y-87622835D01*
X102880990Y-87451855D01*
X102814277Y-87290795D01*
X102717424Y-87145845D01*
X102594155Y-87022576D01*
X102449205Y-86925723D01*
X102288145Y-86859010D01*
X102117165Y-86825000D01*
X101942835Y-86825000D01*
X101771855Y-86859010D01*
X101610795Y-86925723D01*
X101465845Y-87022576D01*
X101342576Y-87145845D01*
X101245723Y-87290795D01*
X101179010Y-87451855D01*
X101145000Y-87622835D01*
X96924943Y-87622835D01*
X96760256Y-87512795D01*
X96571898Y-87434774D01*
X96371939Y-87395000D01*
X96168061Y-87395000D01*
X95968102Y-87434774D01*
X95779744Y-87512795D01*
X95610226Y-87626063D01*
X95466063Y-87770226D01*
X95352795Y-87939744D01*
X95274774Y-88128102D01*
X95235000Y-88328061D01*
X93279640Y-88328061D01*
X93179155Y-88227576D01*
X93092112Y-88169416D01*
X93095226Y-88161898D01*
X93135000Y-87961939D01*
X93135000Y-87758061D01*
X93122908Y-87697268D01*
X93301753Y-87732842D01*
X93505631Y-87732842D01*
X93705590Y-87693068D01*
X93893948Y-87615047D01*
X94063466Y-87501779D01*
X94207629Y-87357616D01*
X94320897Y-87188098D01*
X94398918Y-86999740D01*
X94438692Y-86799781D01*
X94438692Y-86712835D01*
X108965000Y-86712835D01*
X108965000Y-86887165D01*
X108999010Y-87058145D01*
X109065723Y-87219205D01*
X109162576Y-87364155D01*
X109285845Y-87487424D01*
X109430795Y-87584277D01*
X109591855Y-87650990D01*
X109762835Y-87685000D01*
X109937165Y-87685000D01*
X110108145Y-87650990D01*
X110269205Y-87584277D01*
X110414155Y-87487424D01*
X110537424Y-87364155D01*
X110634277Y-87219205D01*
X110700990Y-87058145D01*
X110735000Y-86887165D01*
X110735000Y-86712835D01*
X110700990Y-86541855D01*
X110682850Y-86498061D01*
X111165000Y-86498061D01*
X111165000Y-86701939D01*
X111204774Y-86901898D01*
X111282795Y-87090256D01*
X111396063Y-87259774D01*
X111426832Y-87290543D01*
X111389010Y-87381855D01*
X111355000Y-87552835D01*
X111355000Y-87727165D01*
X111389010Y-87898145D01*
X111455723Y-88059205D01*
X111552576Y-88204155D01*
X111675845Y-88327424D01*
X111820795Y-88424277D01*
X111981855Y-88490990D01*
X112152835Y-88525000D01*
X112327165Y-88525000D01*
X112498145Y-88490990D01*
X112659205Y-88424277D01*
X112804155Y-88327424D01*
X112927424Y-88204155D01*
X113024277Y-88059205D01*
X113090990Y-87898145D01*
X113125000Y-87727165D01*
X113125000Y-87552835D01*
X113090990Y-87381855D01*
X113026460Y-87226066D01*
X113117205Y-87090256D01*
X113195226Y-86901898D01*
X113235000Y-86701939D01*
X113235000Y-86498061D01*
X113195226Y-86298102D01*
X113117205Y-86109744D01*
X113003937Y-85940226D01*
X112859774Y-85796063D01*
X112690256Y-85682795D01*
X112501898Y-85604774D01*
X112301939Y-85565000D01*
X112098061Y-85565000D01*
X111898102Y-85604774D01*
X111709744Y-85682795D01*
X111540226Y-85796063D01*
X111396063Y-85940226D01*
X111282795Y-86109744D01*
X111204774Y-86298102D01*
X111165000Y-86498061D01*
X110682850Y-86498061D01*
X110634277Y-86380795D01*
X110537424Y-86235845D01*
X110414155Y-86112576D01*
X110269205Y-86015723D01*
X110108145Y-85949010D01*
X109937165Y-85915000D01*
X109762835Y-85915000D01*
X109591855Y-85949010D01*
X109430795Y-86015723D01*
X109285845Y-86112576D01*
X109162576Y-86235845D01*
X109065723Y-86380795D01*
X108999010Y-86541855D01*
X108965000Y-86712835D01*
X94438692Y-86712835D01*
X94438692Y-86595903D01*
X94398918Y-86395944D01*
X94320897Y-86207586D01*
X94207629Y-86038068D01*
X94063466Y-85893905D01*
X93893948Y-85780637D01*
X93705590Y-85702616D01*
X93505631Y-85662842D01*
X93301753Y-85662842D01*
X93101794Y-85702616D01*
X92913436Y-85780637D01*
X92743918Y-85893905D01*
X92599755Y-86038068D01*
X92486487Y-86207586D01*
X92408466Y-86395944D01*
X92368692Y-86595903D01*
X92368692Y-86799781D01*
X92380784Y-86860574D01*
X92201939Y-86825000D01*
X91998061Y-86825000D01*
X91798102Y-86864774D01*
X91609744Y-86942795D01*
X91440226Y-87056063D01*
X91296063Y-87200226D01*
X91182795Y-87369744D01*
X91104774Y-87558102D01*
X91065000Y-87758061D01*
X89025000Y-87758061D01*
X89025000Y-87698061D01*
X88985226Y-87498102D01*
X88907205Y-87309744D01*
X88793937Y-87140226D01*
X88649774Y-86996063D01*
X88480256Y-86882795D01*
X88291898Y-86804774D01*
X88091939Y-86765000D01*
X87888061Y-86765000D01*
X87688102Y-86804774D01*
X87499744Y-86882795D01*
X87330226Y-86996063D01*
X87280000Y-87046289D01*
X87229774Y-86996063D01*
X87060256Y-86882795D01*
X86871898Y-86804774D01*
X86671939Y-86765000D01*
X86468061Y-86765000D01*
X86268102Y-86804774D01*
X86079744Y-86882795D01*
X85910226Y-86996063D01*
X85766063Y-87140226D01*
X85652795Y-87309744D01*
X85574774Y-87498102D01*
X85535000Y-87698061D01*
X84473520Y-87698061D01*
X84513487Y-87658094D01*
X84610340Y-87513144D01*
X84677053Y-87352084D01*
X84711063Y-87181104D01*
X84711063Y-87006774D01*
X84677053Y-86835794D01*
X84610340Y-86674734D01*
X84513487Y-86529784D01*
X84390218Y-86406515D01*
X84245268Y-86309662D01*
X84218834Y-86298713D01*
X84245000Y-86167165D01*
X84245000Y-85992835D01*
X84210990Y-85821855D01*
X84144277Y-85660795D01*
X84047424Y-85515845D01*
X83924155Y-85392576D01*
X83779205Y-85295723D01*
X83618145Y-85229010D01*
X83447165Y-85195000D01*
X83272835Y-85195000D01*
X83101855Y-85229010D01*
X82940795Y-85295723D01*
X82795845Y-85392576D01*
X82672576Y-85515845D01*
X82575723Y-85660795D01*
X82509010Y-85821855D01*
X82475000Y-85992835D01*
X82475000Y-86167165D01*
X82509010Y-86338145D01*
X82575723Y-86499205D01*
X82672576Y-86644155D01*
X82795845Y-86767424D01*
X82940795Y-86864277D01*
X82967229Y-86875226D01*
X82941063Y-87006774D01*
X82941063Y-87181104D01*
X82975073Y-87352084D01*
X83041786Y-87513144D01*
X83138639Y-87658094D01*
X83235545Y-87755000D01*
X83162835Y-87755000D01*
X82991855Y-87789010D01*
X82830795Y-87855723D01*
X82685845Y-87952576D01*
X82562576Y-88075845D01*
X82465723Y-88220795D01*
X82399010Y-88381855D01*
X82365000Y-88552835D01*
X78588477Y-88552835D01*
X78523280Y-84412835D01*
X85465000Y-84412835D01*
X85465000Y-84587165D01*
X85499010Y-84758145D01*
X85565723Y-84919205D01*
X85662576Y-85064155D01*
X85785845Y-85187424D01*
X85930795Y-85284277D01*
X86091855Y-85350990D01*
X86262835Y-85385000D01*
X86437165Y-85385000D01*
X86608145Y-85350990D01*
X86769205Y-85284277D01*
X86914155Y-85187424D01*
X87037424Y-85064155D01*
X87134277Y-84919205D01*
X87200990Y-84758145D01*
X87235000Y-84587165D01*
X87235000Y-84412835D01*
X87200990Y-84241855D01*
X87134277Y-84080795D01*
X87037424Y-83935845D01*
X86914155Y-83812576D01*
X86769205Y-83715723D01*
X86608145Y-83649010D01*
X86437165Y-83615000D01*
X86262835Y-83615000D01*
X86091855Y-83649010D01*
X85930795Y-83715723D01*
X85785845Y-83812576D01*
X85662576Y-83935845D01*
X85565723Y-84080795D01*
X85499010Y-84241855D01*
X85465000Y-84412835D01*
X78523280Y-84412835D01*
X78518895Y-84134447D01*
X78568617Y-83289167D01*
X78568832Y-83280664D01*
X78556121Y-81736000D01*
X78908294Y-81736000D01*
X78895000Y-81802835D01*
%TA.AperFunction,Conductor*%
D17*
G36*
X78895000Y-81802835D02*
G01*
X78895000Y-81977165D01*
X78929010Y-82148145D01*
X78995723Y-82309205D01*
X79092576Y-82454155D01*
X79215845Y-82577424D01*
X79360795Y-82674277D01*
X79521855Y-82740990D01*
X79692835Y-82775000D01*
X79867165Y-82775000D01*
X80038145Y-82740990D01*
X80199205Y-82674277D01*
X80344155Y-82577424D01*
X80467424Y-82454155D01*
X80564277Y-82309205D01*
X80572554Y-82289224D01*
X80602576Y-82334155D01*
X80725845Y-82457424D01*
X80870795Y-82554277D01*
X81031855Y-82620990D01*
X81202835Y-82655000D01*
X81377165Y-82655000D01*
X81548145Y-82620990D01*
X81709205Y-82554277D01*
X81854155Y-82457424D01*
X81977424Y-82334155D01*
X82074277Y-82189205D01*
X82140990Y-82028145D01*
X82175000Y-81857165D01*
X82175000Y-81736000D01*
X90772327Y-81736000D01*
X90765000Y-81772835D01*
X90765000Y-81947165D01*
X90799010Y-82118145D01*
X90865723Y-82279205D01*
X90962576Y-82424155D01*
X91085845Y-82547424D01*
X91230795Y-82644277D01*
X91391855Y-82710990D01*
X91471618Y-82726856D01*
X91485001Y-82794136D01*
X91551714Y-82955196D01*
X91648567Y-83100146D01*
X91771836Y-83223415D01*
X91916786Y-83320268D01*
X92077846Y-83386981D01*
X92248826Y-83420991D01*
X92423156Y-83420991D01*
X92594136Y-83386981D01*
X92755196Y-83320268D01*
X92900146Y-83223415D01*
X93023415Y-83100146D01*
X93120268Y-82955196D01*
X93186981Y-82794136D01*
X93220991Y-82623156D01*
X93220991Y-82448826D01*
X93186981Y-82277846D01*
X93120268Y-82116786D01*
X93023415Y-81971836D01*
X92900146Y-81848567D01*
X92755196Y-81751714D01*
X92717259Y-81736000D01*
X98921801Y-81736000D01*
X98769482Y-81799093D01*
X98554923Y-81942456D01*
X98372456Y-82124923D01*
X98229093Y-82339482D01*
X98130342Y-82577887D01*
X98080000Y-82830976D01*
X98080000Y-83089024D01*
X98130342Y-83342113D01*
X98229093Y-83580518D01*
X98372456Y-83795077D01*
X98554923Y-83977544D01*
X98769482Y-84120907D01*
X99007887Y-84219658D01*
X99260976Y-84270000D01*
X99519024Y-84270000D01*
X99772113Y-84219658D01*
X100010518Y-84120907D01*
X100225077Y-83977544D01*
X100390000Y-83812621D01*
X100554923Y-83977544D01*
X100769482Y-84120907D01*
X101007887Y-84219658D01*
X101260976Y-84270000D01*
X101519024Y-84270000D01*
X101772113Y-84219658D01*
X102010518Y-84120907D01*
X102225077Y-83977544D01*
X102390000Y-83812621D01*
X102554923Y-83977544D01*
X102769482Y-84120907D01*
X103007887Y-84219658D01*
X103260976Y-84270000D01*
X103519024Y-84270000D01*
X103772113Y-84219658D01*
X104010518Y-84120907D01*
X104192513Y-83999303D01*
X104263815Y-84086185D01*
X104360506Y-84165537D01*
X104470820Y-84224502D01*
X104590518Y-84260812D01*
X104715000Y-84273072D01*
X105104250Y-84270000D01*
X105263000Y-84111250D01*
X105263000Y-83087000D01*
X105517000Y-83087000D01*
X105517000Y-84111250D01*
X105675750Y-84270000D01*
X106065000Y-84273072D01*
X106189482Y-84260812D01*
X106309180Y-84224502D01*
X106419494Y-84165537D01*
X106516185Y-84086185D01*
X106595537Y-83989494D01*
X106654502Y-83879180D01*
X106690812Y-83759482D01*
X106703072Y-83635000D01*
X106700000Y-83245750D01*
X106541250Y-83087000D01*
X105517000Y-83087000D01*
X105263000Y-83087000D01*
X105243000Y-83087000D01*
X105243000Y-82833000D01*
X105263000Y-82833000D01*
X105263000Y-82813000D01*
X105517000Y-82813000D01*
X105517000Y-82833000D01*
X106541250Y-82833000D01*
X106700000Y-82674250D01*
X106703072Y-82285000D01*
X106690812Y-82160518D01*
X106654502Y-82040820D01*
X106595537Y-81930506D01*
X106516185Y-81833815D01*
X106419494Y-81754463D01*
X106384953Y-81736000D01*
X114265271Y-81736000D01*
X114452785Y-81754386D01*
X114599748Y-81798757D01*
X114735297Y-81870829D01*
X114854258Y-81967852D01*
X114952118Y-82086144D01*
X115025132Y-82221181D01*
X115070529Y-82367833D01*
X115090001Y-82553101D01*
X115090000Y-95491270D01*
X115071614Y-95678783D01*
X115027243Y-95825747D01*
X114955171Y-95961296D01*
X114858148Y-96080257D01*
X114739856Y-96178117D01*
X114604819Y-96251131D01*
X114458167Y-96296528D01*
X114272908Y-96315999D01*
X96532874Y-96315999D01*
X96624277Y-96179205D01*
X96690990Y-96018145D01*
X96725000Y-95847165D01*
X96725000Y-95672835D01*
X96690990Y-95501855D01*
X96624277Y-95340795D01*
X96527424Y-95195845D01*
X96404155Y-95072576D01*
X96259205Y-94975723D01*
X96098145Y-94909010D01*
X95966555Y-94882835D01*
X99675000Y-94882835D01*
X99675000Y-95057165D01*
X99709010Y-95228145D01*
X99775723Y-95389205D01*
X99872576Y-95534155D01*
X99995845Y-95657424D01*
X100140795Y-95754277D01*
X100301855Y-95820990D01*
X100472835Y-95855000D01*
X100647165Y-95855000D01*
X100818145Y-95820990D01*
X100979205Y-95754277D01*
X101124155Y-95657424D01*
X101247424Y-95534155D01*
X101344277Y-95389205D01*
X101410990Y-95228145D01*
X101445000Y-95057165D01*
X101445000Y-94912835D01*
X109265000Y-94912835D01*
X109265000Y-95087165D01*
X109299010Y-95258145D01*
X109365723Y-95419205D01*
X109462576Y-95564155D01*
X109585845Y-95687424D01*
X109730795Y-95784277D01*
X109891855Y-95850990D01*
X110062835Y-95885000D01*
X110237165Y-95885000D01*
X110408145Y-95850990D01*
X110569205Y-95784277D01*
X110714155Y-95687424D01*
X110837424Y-95564155D01*
X110934277Y-95419205D01*
X111000990Y-95258145D01*
X111035000Y-95087165D01*
X111035000Y-94912835D01*
X111000990Y-94741855D01*
X110934277Y-94580795D01*
X110837424Y-94435845D01*
X110714155Y-94312576D01*
X110569205Y-94215723D01*
X110408145Y-94149010D01*
X110237165Y-94115000D01*
X110062835Y-94115000D01*
X109891855Y-94149010D01*
X109730795Y-94215723D01*
X109585845Y-94312576D01*
X109462576Y-94435845D01*
X109365723Y-94580795D01*
X109299010Y-94741855D01*
X109265000Y-94912835D01*
X101445000Y-94912835D01*
X101445000Y-94882835D01*
X101410990Y-94711855D01*
X101344277Y-94550795D01*
X101247424Y-94405845D01*
X101124155Y-94282576D01*
X100979205Y-94185723D01*
X100818145Y-94119010D01*
X100647165Y-94085000D01*
X100472835Y-94085000D01*
X100301855Y-94119010D01*
X100140795Y-94185723D01*
X99995845Y-94282576D01*
X99872576Y-94405845D01*
X99775723Y-94550795D01*
X99709010Y-94711855D01*
X99675000Y-94882835D01*
X95966555Y-94882835D01*
X95927165Y-94875000D01*
X95752835Y-94875000D01*
X95581855Y-94909010D01*
X95420795Y-94975723D01*
X95275845Y-95072576D01*
X95152576Y-95195845D01*
X95055723Y-95340795D01*
X94989010Y-95501855D01*
X94955000Y-95672835D01*
X94955000Y-95847165D01*
X94989010Y-96018145D01*
X95055723Y-96179205D01*
X95147126Y-96315999D01*
X94124613Y-96315999D01*
X94167205Y-96252256D01*
X94245226Y-96063898D01*
X94285000Y-95863939D01*
X94285000Y-95660061D01*
X94245226Y-95460102D01*
X94167205Y-95271744D01*
X94053937Y-95102226D01*
X93909774Y-94958063D01*
X93740256Y-94844795D01*
X93551898Y-94766774D01*
X93351939Y-94727000D01*
X93148061Y-94727000D01*
X92948102Y-94766774D01*
X92759744Y-94844795D01*
X92590226Y-94958063D01*
X92446063Y-95102226D01*
X92332795Y-95271744D01*
X92254774Y-95460102D01*
X92215000Y-95660061D01*
X92215000Y-95863939D01*
X92254774Y-96063898D01*
X92332795Y-96252256D01*
X92375387Y-96315999D01*
X88981659Y-96315999D01*
X88982073Y-96315000D01*
X89047165Y-96315000D01*
X89218145Y-96280990D01*
X89379205Y-96214277D01*
X89524155Y-96117424D01*
X89647424Y-95994155D01*
X89744277Y-95849205D01*
X89810990Y-95688145D01*
X89845000Y-95517165D01*
X89845000Y-95342835D01*
X89810990Y-95171855D01*
X89744277Y-95010795D01*
X89647424Y-94865845D01*
X89524155Y-94742576D01*
X89379205Y-94645723D01*
X89218145Y-94579010D01*
X89047165Y-94545000D01*
X88872835Y-94545000D01*
X88701855Y-94579010D01*
X88540795Y-94645723D01*
X88395845Y-94742576D01*
X88272576Y-94865845D01*
X88175723Y-95010795D01*
X88111543Y-95165740D01*
X88046451Y-95165740D01*
X87875471Y-95199750D01*
X87714411Y-95266463D01*
X87569461Y-95363316D01*
X87446192Y-95486585D01*
X87349339Y-95631535D01*
X87282626Y-95792595D01*
X87248616Y-95963575D01*
X87248616Y-96137905D01*
X87282626Y-96308885D01*
X87285573Y-96315999D01*
X78864319Y-96315999D01*
X78778438Y-95333141D01*
X78786739Y-95324840D01*
X78830795Y-95354277D01*
X78991855Y-95420990D01*
X79162835Y-95455000D01*
X79337165Y-95455000D01*
X79508145Y-95420990D01*
X79669205Y-95354277D01*
X79814155Y-95257424D01*
X79937424Y-95134155D01*
X80034277Y-94989205D01*
X80100990Y-94828145D01*
X80135000Y-94657165D01*
X80135000Y-94482835D01*
X80100990Y-94311855D01*
X80034277Y-94150795D01*
X79937424Y-94005845D01*
X79814155Y-93882576D01*
X79669205Y-93785723D01*
X79508145Y-93719010D01*
X79337165Y-93685000D01*
X79162835Y-93685000D01*
X78991855Y-93719010D01*
X78830795Y-93785723D01*
X78685845Y-93882576D01*
X78654434Y-93913987D01*
X78605839Y-93357835D01*
X82929990Y-93357835D01*
X82929990Y-93532165D01*
X82964000Y-93703145D01*
X83030713Y-93864205D01*
X83127566Y-94009155D01*
X83250835Y-94132424D01*
X83395785Y-94229277D01*
X83556845Y-94295990D01*
X83727825Y-94330000D01*
X83902155Y-94330000D01*
X84073135Y-94295990D01*
X84234195Y-94229277D01*
X84379145Y-94132424D01*
X84502414Y-94009155D01*
X84599267Y-93864205D01*
X84665980Y-93703145D01*
X84699990Y-93532165D01*
X84699990Y-93357835D01*
X84665980Y-93186855D01*
X84599267Y-93025795D01*
X84502414Y-92880845D01*
X84379145Y-92757576D01*
X84327152Y-92722835D01*
X84845000Y-92722835D01*
X84845000Y-92897165D01*
X84879010Y-93068145D01*
X84945723Y-93229205D01*
X85042576Y-93374155D01*
X85165845Y-93497424D01*
X85310795Y-93594277D01*
X85471855Y-93660990D01*
X85642835Y-93695000D01*
X85817165Y-93695000D01*
X85988145Y-93660990D01*
X86149205Y-93594277D01*
X86294155Y-93497424D01*
X86417424Y-93374155D01*
X86514277Y-93229205D01*
X86580990Y-93068145D01*
X86615000Y-92897165D01*
X86615000Y-92732835D01*
X102015000Y-92732835D01*
X102015000Y-92907165D01*
X102049010Y-93078145D01*
X102115723Y-93239205D01*
X102212576Y-93384155D01*
X102335845Y-93507424D01*
X102480795Y-93604277D01*
X102641855Y-93670990D01*
X102812835Y-93705000D01*
X102987165Y-93705000D01*
X103158145Y-93670990D01*
X103319205Y-93604277D01*
X103464155Y-93507424D01*
X103587424Y-93384155D01*
X103684277Y-93239205D01*
X103750990Y-93078145D01*
X103785000Y-92907165D01*
X103785000Y-92732835D01*
X103750990Y-92561855D01*
X103684277Y-92400795D01*
X103587424Y-92255845D01*
X103464155Y-92132576D01*
X103319205Y-92035723D01*
X103158145Y-91969010D01*
X102987165Y-91935000D01*
X102812835Y-91935000D01*
X102641855Y-91969010D01*
X102480795Y-92035723D01*
X102335845Y-92132576D01*
X102212576Y-92255845D01*
X102115723Y-92400795D01*
X102049010Y-92561855D01*
X102015000Y-92732835D01*
X86615000Y-92732835D01*
X86615000Y-92722835D01*
X86580990Y-92551855D01*
X86514277Y-92390795D01*
X86417424Y-92245845D01*
X86294155Y-92122576D01*
X86149205Y-92025723D01*
X85988145Y-91959010D01*
X85817165Y-91925000D01*
X85642835Y-91925000D01*
X85471855Y-91959010D01*
X85310795Y-92025723D01*
X85165845Y-92122576D01*
X85042576Y-92245845D01*
X84945723Y-92390795D01*
X84879010Y-92551855D01*
X84845000Y-92722835D01*
X84327152Y-92722835D01*
X84234195Y-92660723D01*
X84073135Y-92594010D01*
X83902155Y-92560000D01*
X83727825Y-92560000D01*
X83556845Y-92594010D01*
X83395785Y-92660723D01*
X83250835Y-92757576D01*
X83127566Y-92880845D01*
X83030713Y-93025795D01*
X82964000Y-93186855D01*
X82929990Y-93357835D01*
X78605839Y-93357835D01*
X78506343Y-92219162D01*
X78517333Y-92198601D01*
X78524560Y-92174776D01*
X78526808Y-92156981D01*
X78618644Y-90488690D01*
X78618820Y-90479709D01*
X78607374Y-89752835D01*
X79895000Y-89752835D01*
X79895000Y-89927165D01*
X79929010Y-90098145D01*
X79995723Y-90259205D01*
X80092576Y-90404155D01*
X80215845Y-90527424D01*
X80360795Y-90624277D01*
X80521855Y-90690990D01*
X80692835Y-90725000D01*
X80867165Y-90725000D01*
X81038145Y-90690990D01*
X81199205Y-90624277D01*
X81344155Y-90527424D01*
X81467424Y-90404155D01*
X81564277Y-90259205D01*
X81630990Y-90098145D01*
X81648908Y-90008061D01*
X85055000Y-90008061D01*
X85055000Y-90211939D01*
X85094774Y-90411898D01*
X85172795Y-90600256D01*
X85286063Y-90769774D01*
X85430226Y-90913937D01*
X85599744Y-91027205D01*
X85788102Y-91105226D01*
X85988061Y-91145000D01*
X86191939Y-91145000D01*
X86391898Y-91105226D01*
X86580256Y-91027205D01*
X86749774Y-90913937D01*
X86893937Y-90769774D01*
X86925000Y-90723285D01*
X86925000Y-90921939D01*
X86964774Y-91121898D01*
X87042795Y-91310256D01*
X87156063Y-91479774D01*
X87300226Y-91623937D01*
X87469744Y-91737205D01*
X87658102Y-91815226D01*
X87858061Y-91855000D01*
X88061939Y-91855000D01*
X88261898Y-91815226D01*
X88450256Y-91737205D01*
X88619774Y-91623937D01*
X88763937Y-91479774D01*
X88877205Y-91310256D01*
X88955226Y-91121898D01*
X88995000Y-90921939D01*
X88995000Y-90718061D01*
X88962135Y-90552835D01*
X91275000Y-90552835D01*
X91275000Y-90727165D01*
X91309010Y-90898145D01*
X91375723Y-91059205D01*
X91472576Y-91204155D01*
X91595845Y-91327424D01*
X91597625Y-91328613D01*
X91564990Y-91492681D01*
X91564990Y-91696559D01*
X91604764Y-91896518D01*
X91682785Y-92084876D01*
X91796053Y-92254394D01*
X91940216Y-92398557D01*
X92109734Y-92511825D01*
X92298092Y-92589846D01*
X92498051Y-92629620D01*
X92701929Y-92629620D01*
X92901888Y-92589846D01*
X93090246Y-92511825D01*
X93259764Y-92398557D01*
X93403927Y-92254394D01*
X93517195Y-92084876D01*
X93595216Y-91896518D01*
X93634990Y-91696559D01*
X93634990Y-91492681D01*
X93595216Y-91292722D01*
X93517195Y-91104364D01*
X93512984Y-91098061D01*
X111165000Y-91098061D01*
X111165000Y-91301939D01*
X111204774Y-91501898D01*
X111282795Y-91690256D01*
X111396063Y-91859774D01*
X111540226Y-92003937D01*
X111709744Y-92117205D01*
X111898102Y-92195226D01*
X112098061Y-92235000D01*
X112301939Y-92235000D01*
X112501898Y-92195226D01*
X112690256Y-92117205D01*
X112859774Y-92003937D01*
X113003937Y-91859774D01*
X113117205Y-91690256D01*
X113195226Y-91501898D01*
X113235000Y-91301939D01*
X113235000Y-91098061D01*
X113195226Y-90898102D01*
X113117205Y-90709744D01*
X113003937Y-90540226D01*
X112859774Y-90396063D01*
X112690256Y-90282795D01*
X112501898Y-90204774D01*
X112301939Y-90165000D01*
X112098061Y-90165000D01*
X111898102Y-90204774D01*
X111709744Y-90282795D01*
X111540226Y-90396063D01*
X111396063Y-90540226D01*
X111282795Y-90709744D01*
X111204774Y-90898102D01*
X111165000Y-91098061D01*
X93512984Y-91098061D01*
X93403927Y-90934846D01*
X93259764Y-90790683D01*
X93090246Y-90677415D01*
X93045000Y-90658673D01*
X93045000Y-90552835D01*
X93010990Y-90381855D01*
X92944277Y-90220795D01*
X92847424Y-90075845D01*
X92724155Y-89952576D01*
X92579205Y-89855723D01*
X92418145Y-89789010D01*
X92247165Y-89755000D01*
X92072835Y-89755000D01*
X91901855Y-89789010D01*
X91740795Y-89855723D01*
X91595845Y-89952576D01*
X91472576Y-90075845D01*
X91375723Y-90220795D01*
X91309010Y-90381855D01*
X91275000Y-90552835D01*
X88962135Y-90552835D01*
X88955226Y-90518102D01*
X88877205Y-90329744D01*
X88763937Y-90160226D01*
X88619774Y-90016063D01*
X88450256Y-89902795D01*
X88261898Y-89824774D01*
X88061939Y-89785000D01*
X87858061Y-89785000D01*
X87658102Y-89824774D01*
X87469744Y-89902795D01*
X87300226Y-90016063D01*
X87156063Y-90160226D01*
X87125000Y-90206715D01*
X87125000Y-90008061D01*
X87085226Y-89808102D01*
X87007205Y-89619744D01*
X86893937Y-89450226D01*
X86749774Y-89306063D01*
X86580256Y-89192795D01*
X86391898Y-89114774D01*
X86191939Y-89075000D01*
X85988061Y-89075000D01*
X85788102Y-89114774D01*
X85599744Y-89192795D01*
X85430226Y-89306063D01*
X85286063Y-89450226D01*
X85172795Y-89619744D01*
X85094774Y-89808102D01*
X85055000Y-90008061D01*
X81648908Y-90008061D01*
X81665000Y-89927165D01*
X81665000Y-89752835D01*
X81630990Y-89581855D01*
X81564277Y-89420795D01*
X81467424Y-89275845D01*
X81344155Y-89152576D01*
X81199205Y-89055723D01*
X81038145Y-88989010D01*
X80867165Y-88955000D01*
X80692835Y-88955000D01*
X80521855Y-88989010D01*
X80360795Y-89055723D01*
X80215845Y-89152576D01*
X80092576Y-89275845D01*
X79995723Y-89420795D01*
X79929010Y-89581855D01*
X79895000Y-89752835D01*
X78607374Y-89752835D01*
X78588477Y-88552835D01*
X82365000Y-88552835D01*
X82365000Y-88727165D01*
X82399010Y-88898145D01*
X82465723Y-89059205D01*
X82562576Y-89204155D01*
X82685845Y-89327424D01*
X82830795Y-89424277D01*
X82991855Y-89490990D01*
X83162835Y-89525000D01*
X83337165Y-89525000D01*
X83508145Y-89490990D01*
X83669205Y-89424277D01*
X83814155Y-89327424D01*
X83937424Y-89204155D01*
X84034277Y-89059205D01*
X84100990Y-88898145D01*
X84135000Y-88727165D01*
X84135000Y-88552835D01*
X84100990Y-88381855D01*
X84034277Y-88220795D01*
X83937424Y-88075845D01*
X83840518Y-87978939D01*
X83913228Y-87978939D01*
X84084208Y-87944929D01*
X84245268Y-87878216D01*
X84390218Y-87781363D01*
X84473520Y-87698061D01*
X85535000Y-87698061D01*
X85535000Y-87901939D01*
X85574774Y-88101898D01*
X85652795Y-88290256D01*
X85766063Y-88459774D01*
X85910226Y-88603937D01*
X86079744Y-88717205D01*
X86268102Y-88795226D01*
X86468061Y-88835000D01*
X86671939Y-88835000D01*
X86871898Y-88795226D01*
X87060256Y-88717205D01*
X87229774Y-88603937D01*
X87280000Y-88553711D01*
X87330226Y-88603937D01*
X87499744Y-88717205D01*
X87688102Y-88795226D01*
X87888061Y-88835000D01*
X88091939Y-88835000D01*
X88291898Y-88795226D01*
X88480256Y-88717205D01*
X88649774Y-88603937D01*
X88793937Y-88459774D01*
X88907205Y-88290256D01*
X88985226Y-88101898D01*
X89025000Y-87901939D01*
X89025000Y-87758061D01*
X91065000Y-87758061D01*
X91065000Y-87961939D01*
X91104774Y-88161898D01*
X91182795Y-88350256D01*
X91296063Y-88519774D01*
X91440226Y-88663937D01*
X91609744Y-88777205D01*
X91730150Y-88827079D01*
X91730000Y-88827835D01*
X91730000Y-89002165D01*
X91764010Y-89173145D01*
X91830723Y-89334205D01*
X91927576Y-89479155D01*
X92050845Y-89602424D01*
X92195795Y-89699277D01*
X92356855Y-89765990D01*
X92527835Y-89800000D01*
X92702165Y-89800000D01*
X92873145Y-89765990D01*
X93034205Y-89699277D01*
X93179155Y-89602424D01*
X93302424Y-89479155D01*
X93399277Y-89334205D01*
X93465990Y-89173145D01*
X93500000Y-89002165D01*
X93500000Y-88827835D01*
X93465990Y-88656855D01*
X93399277Y-88495795D01*
X93302424Y-88350845D01*
X93279640Y-88328061D01*
X95235000Y-88328061D01*
X95235000Y-88531939D01*
X95274774Y-88731898D01*
X95352795Y-88920256D01*
X95466063Y-89089774D01*
X95610226Y-89233937D01*
X95779744Y-89347205D01*
X95968102Y-89425226D01*
X96168061Y-89465000D01*
X96371939Y-89465000D01*
X96571898Y-89425226D01*
X96760256Y-89347205D01*
X96929774Y-89233937D01*
X97073937Y-89089774D01*
X97187205Y-88920256D01*
X97265226Y-88731898D01*
X97305000Y-88531939D01*
X97305000Y-88328061D01*
X97265226Y-88128102D01*
X97187205Y-87939744D01*
X97073937Y-87770226D01*
X96929774Y-87626063D01*
X96924943Y-87622835D01*
X101145000Y-87622835D01*
X101145000Y-87797165D01*
X101179010Y-87968145D01*
X101245723Y-88129205D01*
X101342576Y-88274155D01*
X101465845Y-88397424D01*
X101610795Y-88494277D01*
X101771855Y-88560990D01*
X101942835Y-88595000D01*
X102117165Y-88595000D01*
X102288145Y-88560990D01*
X102449205Y-88494277D01*
X102594155Y-88397424D01*
X102717424Y-88274155D01*
X102814277Y-88129205D01*
X102880990Y-87968145D01*
X102905916Y-87842831D01*
X105385000Y-87842831D01*
X105385000Y-88017161D01*
X105419010Y-88188141D01*
X105485723Y-88349201D01*
X105582576Y-88494151D01*
X105705845Y-88617420D01*
X105850795Y-88714273D01*
X106011855Y-88780986D01*
X106182835Y-88814996D01*
X106357165Y-88814996D01*
X106528145Y-88780986D01*
X106689205Y-88714273D01*
X106765775Y-88663111D01*
X106735000Y-88817825D01*
X106735000Y-88992155D01*
X106743759Y-89036188D01*
X106678145Y-89009010D01*
X106507165Y-88975000D01*
X106332835Y-88975000D01*
X106161855Y-89009010D01*
X106000795Y-89075723D01*
X105855845Y-89172576D01*
X105732576Y-89295845D01*
X105635723Y-89440795D01*
X105569010Y-89601855D01*
X105535000Y-89772835D01*
X105535000Y-89947165D01*
X105569010Y-90118145D01*
X105635723Y-90279205D01*
X105732576Y-90424155D01*
X105855845Y-90547424D01*
X106000795Y-90644277D01*
X106161855Y-90710990D01*
X106332835Y-90745000D01*
X106507165Y-90745000D01*
X106678145Y-90710990D01*
X106839205Y-90644277D01*
X106984155Y-90547424D01*
X107107424Y-90424155D01*
X107204277Y-90279205D01*
X107270990Y-90118145D01*
X107305000Y-89947165D01*
X107305000Y-89772835D01*
X107296241Y-89728802D01*
X107361855Y-89755980D01*
X107532835Y-89789990D01*
X107707165Y-89789990D01*
X107878145Y-89755980D01*
X108039205Y-89689267D01*
X108184155Y-89592414D01*
X108307424Y-89469145D01*
X108404277Y-89324195D01*
X108470990Y-89163135D01*
X108505000Y-88992155D01*
X108505000Y-88817825D01*
X108470990Y-88646845D01*
X108404277Y-88485785D01*
X108307424Y-88340835D01*
X108184155Y-88217566D01*
X108039205Y-88120713D01*
X107878145Y-88054000D01*
X107707165Y-88019990D01*
X107532835Y-88019990D01*
X107361855Y-88054000D01*
X107200795Y-88120713D01*
X107124225Y-88171875D01*
X107155000Y-88017161D01*
X107155000Y-87842831D01*
X107120990Y-87671851D01*
X107054277Y-87510791D01*
X106957424Y-87365841D01*
X106834155Y-87242572D01*
X106689205Y-87145719D01*
X106528145Y-87079006D01*
X106357165Y-87044996D01*
X106182835Y-87044996D01*
X106011855Y-87079006D01*
X105850795Y-87145719D01*
X105705845Y-87242572D01*
X105582576Y-87365841D01*
X105485723Y-87510791D01*
X105419010Y-87671851D01*
X105385000Y-87842831D01*
X102905916Y-87842831D01*
X102915000Y-87797165D01*
X102915000Y-87622835D01*
X102880990Y-87451855D01*
X102814277Y-87290795D01*
X102717424Y-87145845D01*
X102594155Y-87022576D01*
X102449205Y-86925723D01*
X102288145Y-86859010D01*
X102117165Y-86825000D01*
X101942835Y-86825000D01*
X101771855Y-86859010D01*
X101610795Y-86925723D01*
X101465845Y-87022576D01*
X101342576Y-87145845D01*
X101245723Y-87290795D01*
X101179010Y-87451855D01*
X101145000Y-87622835D01*
X96924943Y-87622835D01*
X96760256Y-87512795D01*
X96571898Y-87434774D01*
X96371939Y-87395000D01*
X96168061Y-87395000D01*
X95968102Y-87434774D01*
X95779744Y-87512795D01*
X95610226Y-87626063D01*
X95466063Y-87770226D01*
X95352795Y-87939744D01*
X95274774Y-88128102D01*
X95235000Y-88328061D01*
X93279640Y-88328061D01*
X93179155Y-88227576D01*
X93092112Y-88169416D01*
X93095226Y-88161898D01*
X93135000Y-87961939D01*
X93135000Y-87758061D01*
X93122908Y-87697268D01*
X93301753Y-87732842D01*
X93505631Y-87732842D01*
X93705590Y-87693068D01*
X93893948Y-87615047D01*
X94063466Y-87501779D01*
X94207629Y-87357616D01*
X94320897Y-87188098D01*
X94398918Y-86999740D01*
X94438692Y-86799781D01*
X94438692Y-86712835D01*
X108965000Y-86712835D01*
X108965000Y-86887165D01*
X108999010Y-87058145D01*
X109065723Y-87219205D01*
X109162576Y-87364155D01*
X109285845Y-87487424D01*
X109430795Y-87584277D01*
X109591855Y-87650990D01*
X109762835Y-87685000D01*
X109937165Y-87685000D01*
X110108145Y-87650990D01*
X110269205Y-87584277D01*
X110414155Y-87487424D01*
X110537424Y-87364155D01*
X110634277Y-87219205D01*
X110700990Y-87058145D01*
X110735000Y-86887165D01*
X110735000Y-86712835D01*
X110700990Y-86541855D01*
X110682850Y-86498061D01*
X111165000Y-86498061D01*
X111165000Y-86701939D01*
X111204774Y-86901898D01*
X111282795Y-87090256D01*
X111396063Y-87259774D01*
X111426832Y-87290543D01*
X111389010Y-87381855D01*
X111355000Y-87552835D01*
X111355000Y-87727165D01*
X111389010Y-87898145D01*
X111455723Y-88059205D01*
X111552576Y-88204155D01*
X111675845Y-88327424D01*
X111820795Y-88424277D01*
X111981855Y-88490990D01*
X112152835Y-88525000D01*
X112327165Y-88525000D01*
X112498145Y-88490990D01*
X112659205Y-88424277D01*
X112804155Y-88327424D01*
X112927424Y-88204155D01*
X113024277Y-88059205D01*
X113090990Y-87898145D01*
X113125000Y-87727165D01*
X113125000Y-87552835D01*
X113090990Y-87381855D01*
X113026460Y-87226066D01*
X113117205Y-87090256D01*
X113195226Y-86901898D01*
X113235000Y-86701939D01*
X113235000Y-86498061D01*
X113195226Y-86298102D01*
X113117205Y-86109744D01*
X113003937Y-85940226D01*
X112859774Y-85796063D01*
X112690256Y-85682795D01*
X112501898Y-85604774D01*
X112301939Y-85565000D01*
X112098061Y-85565000D01*
X111898102Y-85604774D01*
X111709744Y-85682795D01*
X111540226Y-85796063D01*
X111396063Y-85940226D01*
X111282795Y-86109744D01*
X111204774Y-86298102D01*
X111165000Y-86498061D01*
X110682850Y-86498061D01*
X110634277Y-86380795D01*
X110537424Y-86235845D01*
X110414155Y-86112576D01*
X110269205Y-86015723D01*
X110108145Y-85949010D01*
X109937165Y-85915000D01*
X109762835Y-85915000D01*
X109591855Y-85949010D01*
X109430795Y-86015723D01*
X109285845Y-86112576D01*
X109162576Y-86235845D01*
X109065723Y-86380795D01*
X108999010Y-86541855D01*
X108965000Y-86712835D01*
X94438692Y-86712835D01*
X94438692Y-86595903D01*
X94398918Y-86395944D01*
X94320897Y-86207586D01*
X94207629Y-86038068D01*
X94063466Y-85893905D01*
X93893948Y-85780637D01*
X93705590Y-85702616D01*
X93505631Y-85662842D01*
X93301753Y-85662842D01*
X93101794Y-85702616D01*
X92913436Y-85780637D01*
X92743918Y-85893905D01*
X92599755Y-86038068D01*
X92486487Y-86207586D01*
X92408466Y-86395944D01*
X92368692Y-86595903D01*
X92368692Y-86799781D01*
X92380784Y-86860574D01*
X92201939Y-86825000D01*
X91998061Y-86825000D01*
X91798102Y-86864774D01*
X91609744Y-86942795D01*
X91440226Y-87056063D01*
X91296063Y-87200226D01*
X91182795Y-87369744D01*
X91104774Y-87558102D01*
X91065000Y-87758061D01*
X89025000Y-87758061D01*
X89025000Y-87698061D01*
X88985226Y-87498102D01*
X88907205Y-87309744D01*
X88793937Y-87140226D01*
X88649774Y-86996063D01*
X88480256Y-86882795D01*
X88291898Y-86804774D01*
X88091939Y-86765000D01*
X87888061Y-86765000D01*
X87688102Y-86804774D01*
X87499744Y-86882795D01*
X87330226Y-86996063D01*
X87280000Y-87046289D01*
X87229774Y-86996063D01*
X87060256Y-86882795D01*
X86871898Y-86804774D01*
X86671939Y-86765000D01*
X86468061Y-86765000D01*
X86268102Y-86804774D01*
X86079744Y-86882795D01*
X85910226Y-86996063D01*
X85766063Y-87140226D01*
X85652795Y-87309744D01*
X85574774Y-87498102D01*
X85535000Y-87698061D01*
X84473520Y-87698061D01*
X84513487Y-87658094D01*
X84610340Y-87513144D01*
X84677053Y-87352084D01*
X84711063Y-87181104D01*
X84711063Y-87006774D01*
X84677053Y-86835794D01*
X84610340Y-86674734D01*
X84513487Y-86529784D01*
X84390218Y-86406515D01*
X84245268Y-86309662D01*
X84218834Y-86298713D01*
X84245000Y-86167165D01*
X84245000Y-85992835D01*
X84210990Y-85821855D01*
X84144277Y-85660795D01*
X84047424Y-85515845D01*
X83924155Y-85392576D01*
X83779205Y-85295723D01*
X83618145Y-85229010D01*
X83447165Y-85195000D01*
X83272835Y-85195000D01*
X83101855Y-85229010D01*
X82940795Y-85295723D01*
X82795845Y-85392576D01*
X82672576Y-85515845D01*
X82575723Y-85660795D01*
X82509010Y-85821855D01*
X82475000Y-85992835D01*
X82475000Y-86167165D01*
X82509010Y-86338145D01*
X82575723Y-86499205D01*
X82672576Y-86644155D01*
X82795845Y-86767424D01*
X82940795Y-86864277D01*
X82967229Y-86875226D01*
X82941063Y-87006774D01*
X82941063Y-87181104D01*
X82975073Y-87352084D01*
X83041786Y-87513144D01*
X83138639Y-87658094D01*
X83235545Y-87755000D01*
X83162835Y-87755000D01*
X82991855Y-87789010D01*
X82830795Y-87855723D01*
X82685845Y-87952576D01*
X82562576Y-88075845D01*
X82465723Y-88220795D01*
X82399010Y-88381855D01*
X82365000Y-88552835D01*
X78588477Y-88552835D01*
X78523280Y-84412835D01*
X85465000Y-84412835D01*
X85465000Y-84587165D01*
X85499010Y-84758145D01*
X85565723Y-84919205D01*
X85662576Y-85064155D01*
X85785845Y-85187424D01*
X85930795Y-85284277D01*
X86091855Y-85350990D01*
X86262835Y-85385000D01*
X86437165Y-85385000D01*
X86608145Y-85350990D01*
X86769205Y-85284277D01*
X86914155Y-85187424D01*
X87037424Y-85064155D01*
X87134277Y-84919205D01*
X87200990Y-84758145D01*
X87235000Y-84587165D01*
X87235000Y-84412835D01*
X87200990Y-84241855D01*
X87134277Y-84080795D01*
X87037424Y-83935845D01*
X86914155Y-83812576D01*
X86769205Y-83715723D01*
X86608145Y-83649010D01*
X86437165Y-83615000D01*
X86262835Y-83615000D01*
X86091855Y-83649010D01*
X85930795Y-83715723D01*
X85785845Y-83812576D01*
X85662576Y-83935845D01*
X85565723Y-84080795D01*
X85499010Y-84241855D01*
X85465000Y-84412835D01*
X78523280Y-84412835D01*
X78518895Y-84134447D01*
X78568617Y-83289167D01*
X78568832Y-83280664D01*
X78556121Y-81736000D01*
X78908294Y-81736000D01*
X78895000Y-81802835D01*
G37*
%TD.AperFunction*%
%TD*%
D16*
%TO.N,+5V*%
X77573000Y-86155000D02*
X77522835Y-86155000D01*
X77351855Y-86189010D01*
X77190795Y-86255723D01*
X77045845Y-86352576D01*
X76965000Y-86433421D01*
X76965000Y-86352835D01*
X76930990Y-86181855D01*
X76864277Y-86020795D01*
X76767424Y-85875845D01*
X76644155Y-85752576D01*
X76499205Y-85655723D01*
X76338145Y-85589010D01*
X76167165Y-85555000D01*
X75992835Y-85555000D01*
X75821855Y-85589010D01*
X75660795Y-85655723D01*
X75515845Y-85752576D01*
X75392576Y-85875845D01*
X75295723Y-86020795D01*
X75229010Y-86181855D01*
X75195000Y-86352835D01*
X75195000Y-86527165D01*
X75229010Y-86698145D01*
X75295723Y-86859205D01*
X75392576Y-87004155D01*
X75515845Y-87127424D01*
X75660795Y-87224277D01*
X75821855Y-87290990D01*
X75992835Y-87325000D01*
X76167165Y-87325000D01*
X76338145Y-87290990D01*
X76499205Y-87224277D01*
X76644155Y-87127424D01*
X76725000Y-87046579D01*
X76725000Y-87127165D01*
X76759010Y-87298145D01*
X76825723Y-87459205D01*
X76922576Y-87604155D01*
X77045845Y-87727424D01*
X77190795Y-87824277D01*
X77351855Y-87890990D01*
X77522835Y-87925000D01*
X77573000Y-87925000D01*
X77573000Y-88050000D01*
X77573008Y-88051468D01*
X77641760Y-93998488D01*
X77545845Y-94062576D01*
X77422576Y-94185845D01*
X77325723Y-94330795D01*
X77259010Y-94491855D01*
X77225000Y-94662835D01*
X77225000Y-94837165D01*
X77259010Y-95008145D01*
X77325723Y-95169205D01*
X77422576Y-95314155D01*
X77545845Y-95437424D01*
X77659271Y-95513213D01*
X77668552Y-96315999D01*
X69334729Y-96315999D01*
X69147216Y-96297613D01*
X69000252Y-96253242D01*
X68864703Y-96181170D01*
X68745742Y-96084147D01*
X68647882Y-95965855D01*
X68574868Y-95830818D01*
X68529471Y-95684166D01*
X68510000Y-95498907D01*
X68510000Y-95162835D01*
X70285000Y-95162835D01*
X70285000Y-95337165D01*
X70319010Y-95508145D01*
X70385723Y-95669205D01*
X70482576Y-95814155D01*
X70605845Y-95937424D01*
X70750795Y-96034277D01*
X70911855Y-96100990D01*
X71082835Y-96135000D01*
X71257165Y-96135000D01*
X71428145Y-96100990D01*
X71589205Y-96034277D01*
X71734155Y-95937424D01*
X71857424Y-95814155D01*
X71954277Y-95669205D01*
X72020990Y-95508145D01*
X72055000Y-95337165D01*
X72055000Y-95162835D01*
X72020990Y-94991855D01*
X71954277Y-94830795D01*
X71857424Y-94685845D01*
X71734155Y-94562576D01*
X71589205Y-94465723D01*
X71428145Y-94399010D01*
X71257165Y-94365000D01*
X71082835Y-94365000D01*
X70911855Y-94399010D01*
X70750795Y-94465723D01*
X70605845Y-94562576D01*
X70482576Y-94685845D01*
X70385723Y-94830795D01*
X70319010Y-94991855D01*
X70285000Y-95162835D01*
X68510000Y-95162835D01*
X68510000Y-93408968D01*
X68520479Y-93410000D01*
X69579521Y-93410000D01*
X69742598Y-93393938D01*
X69951834Y-93330468D01*
X70144666Y-93227396D01*
X70313686Y-93088686D01*
X70452396Y-92919666D01*
X70555468Y-92726834D01*
X70618938Y-92517598D01*
X70640370Y-92300000D01*
X70618938Y-92082402D01*
X70603815Y-92032547D01*
X70693619Y-92166949D01*
X70883051Y-92356381D01*
X71105799Y-92505216D01*
X71353303Y-92607736D01*
X71616052Y-92660000D01*
X71883948Y-92660000D01*
X72146697Y-92607736D01*
X72204292Y-92583879D01*
X72229010Y-92708145D01*
X72295723Y-92869205D01*
X72392576Y-93014155D01*
X72515845Y-93137424D01*
X72660795Y-93234277D01*
X72821855Y-93300990D01*
X72992835Y-93335000D01*
X73167165Y-93335000D01*
X73338145Y-93300990D01*
X73499205Y-93234277D01*
X73644155Y-93137424D01*
X73767424Y-93014155D01*
X73864277Y-92869205D01*
X73892426Y-92801246D01*
X73895723Y-92809205D01*
X73992576Y-92954155D01*
X74115845Y-93077424D01*
X74260795Y-93174277D01*
X74421855Y-93240990D01*
X74592835Y-93275000D01*
X74767165Y-93275000D01*
X74938145Y-93240990D01*
X75099205Y-93174277D01*
X75244155Y-93077424D01*
X75367424Y-92954155D01*
X75464277Y-92809205D01*
X75530990Y-92648145D01*
X75565000Y-92477165D01*
X75565000Y-92302835D01*
X75530990Y-92131855D01*
X75464277Y-91970795D01*
X75367424Y-91825845D01*
X75244155Y-91702576D01*
X75099205Y-91605723D01*
X74938145Y-91539010D01*
X74767165Y-91505000D01*
X74592835Y-91505000D01*
X74421855Y-91539010D01*
X74260795Y-91605723D01*
X74115845Y-91702576D01*
X73992576Y-91825845D01*
X73895723Y-91970795D01*
X73867574Y-92038754D01*
X73864277Y-92030795D01*
X73767424Y-91885845D01*
X73644155Y-91762576D01*
X73499205Y-91665723D01*
X73338145Y-91599010D01*
X73167165Y-91565000D01*
X73083932Y-91565000D01*
X73110000Y-91433948D01*
X73110000Y-91166052D01*
X73057736Y-90903303D01*
X72955216Y-90655799D01*
X72806381Y-90433051D01*
X72616949Y-90243619D01*
X72394201Y-90094784D01*
X72146697Y-89992264D01*
X71883948Y-89940000D01*
X71616052Y-89940000D01*
X71595000Y-89944188D01*
X71595000Y-89938061D01*
X71555226Y-89738102D01*
X71477205Y-89549744D01*
X71363937Y-89380226D01*
X71219774Y-89236063D01*
X71050256Y-89122795D01*
X70861898Y-89044774D01*
X70661939Y-89005000D01*
X70458061Y-89005000D01*
X70258102Y-89044774D01*
X70069744Y-89122795D01*
X69900226Y-89236063D01*
X69756063Y-89380226D01*
X69642795Y-89549744D01*
X69564774Y-89738102D01*
X69525000Y-89938061D01*
X69525000Y-90141939D01*
X69564774Y-90341898D01*
X69642795Y-90530256D01*
X69756063Y-90699774D01*
X69900226Y-90843937D01*
X70069744Y-90957205D01*
X70258102Y-91035226D01*
X70410012Y-91065443D01*
X70390000Y-91166052D01*
X70390000Y-91433948D01*
X70434727Y-91658803D01*
X70313686Y-91511314D01*
X70144666Y-91372604D01*
X69951834Y-91269532D01*
X69742598Y-91206062D01*
X69579521Y-91190000D01*
X68520479Y-91190000D01*
X68510000Y-91191032D01*
X68510000Y-86408968D01*
X68520479Y-86410000D01*
X69579521Y-86410000D01*
X69742598Y-86393938D01*
X69951834Y-86330468D01*
X70144666Y-86227396D01*
X70313686Y-86088686D01*
X70434727Y-85941197D01*
X70390000Y-86166052D01*
X70390000Y-86433948D01*
X70393735Y-86452723D01*
X70311855Y-86469010D01*
X70150795Y-86535723D01*
X70005845Y-86632576D01*
X69882576Y-86755845D01*
X69785723Y-86900795D01*
X69719010Y-87061855D01*
X69685000Y-87232835D01*
X69685000Y-87407165D01*
X69719010Y-87578145D01*
X69785723Y-87739205D01*
X69882576Y-87884155D01*
X70005845Y-88007424D01*
X70150795Y-88104277D01*
X70311855Y-88170990D01*
X70482835Y-88205000D01*
X70657165Y-88205000D01*
X70828145Y-88170990D01*
X70989205Y-88104277D01*
X71134155Y-88007424D01*
X71257424Y-87884155D01*
X71354277Y-87739205D01*
X71404514Y-87617922D01*
X71616052Y-87660000D01*
X71883948Y-87660000D01*
X72146697Y-87607736D01*
X72394201Y-87505216D01*
X72616949Y-87356381D01*
X72806381Y-87166949D01*
X72955216Y-86944201D01*
X73057736Y-86696697D01*
X73075552Y-86607131D01*
X73175845Y-86707424D01*
X73320795Y-86804277D01*
X73481855Y-86870990D01*
X73652835Y-86905000D01*
X73827165Y-86905000D01*
X73998145Y-86870990D01*
X74159205Y-86804277D01*
X74304155Y-86707424D01*
X74427424Y-86584155D01*
X74524277Y-86439205D01*
X74590990Y-86278145D01*
X74625000Y-86107165D01*
X74625000Y-85932835D01*
X74590990Y-85761855D01*
X74524277Y-85600795D01*
X74427424Y-85455845D01*
X74304155Y-85332576D01*
X74159205Y-85235723D01*
X73998145Y-85169010D01*
X73827165Y-85135000D01*
X73652835Y-85135000D01*
X73481855Y-85169010D01*
X73320795Y-85235723D01*
X73175845Y-85332576D01*
X73052576Y-85455845D01*
X72955723Y-85600795D01*
X72941464Y-85635218D01*
X72806381Y-85433051D01*
X72658330Y-85285000D01*
X72687165Y-85285000D01*
X72858145Y-85250990D01*
X73019205Y-85184277D01*
X73164155Y-85087424D01*
X73287424Y-84964155D01*
X73384277Y-84819205D01*
X73450990Y-84658145D01*
X73485000Y-84487165D01*
X73485000Y-84312835D01*
X73450990Y-84141855D01*
X73384277Y-83980795D01*
X73287424Y-83835845D01*
X73164155Y-83712576D01*
X73104679Y-83672835D01*
X74125002Y-83672835D01*
X74125002Y-83847165D01*
X74159012Y-84018145D01*
X74225725Y-84179205D01*
X74322578Y-84324155D01*
X74445847Y-84447424D01*
X74590797Y-84544277D01*
X74751857Y-84610990D01*
X74922837Y-84645000D01*
X75097167Y-84645000D01*
X75268147Y-84610990D01*
X75429207Y-84544277D01*
X75574157Y-84447424D01*
X75697426Y-84324155D01*
X75794279Y-84179205D01*
X75860992Y-84018145D01*
X75895002Y-83847165D01*
X75895002Y-83672835D01*
X75860992Y-83501855D01*
X75794279Y-83340795D01*
X75697426Y-83195845D01*
X75574157Y-83072576D01*
X75429207Y-82975723D01*
X75268147Y-82909010D01*
X75097167Y-82875000D01*
X74922837Y-82875000D01*
X74751857Y-82909010D01*
X74590797Y-82975723D01*
X74445847Y-83072576D01*
X74322578Y-83195845D01*
X74225725Y-83340795D01*
X74159012Y-83501855D01*
X74125002Y-83672835D01*
X73104679Y-83672835D01*
X73019205Y-83615723D01*
X72858145Y-83549010D01*
X72687165Y-83515000D01*
X72512835Y-83515000D01*
X72341855Y-83549010D01*
X72180795Y-83615723D01*
X72035845Y-83712576D01*
X71912576Y-83835845D01*
X71815723Y-83980795D01*
X71749010Y-84141855D01*
X71715000Y-84312835D01*
X71715000Y-84487165D01*
X71749010Y-84658145D01*
X71815723Y-84819205D01*
X71898350Y-84942865D01*
X71883948Y-84940000D01*
X71616052Y-84940000D01*
X71353303Y-84992264D01*
X71105799Y-85094784D01*
X70883051Y-85243619D01*
X70693619Y-85433051D01*
X70603815Y-85567453D01*
X70618938Y-85517598D01*
X70640370Y-85300000D01*
X70618938Y-85082402D01*
X70555468Y-84873166D01*
X70452396Y-84680334D01*
X70313686Y-84511314D01*
X70144666Y-84372604D01*
X69951834Y-84269532D01*
X69742598Y-84206062D01*
X69579521Y-84190000D01*
X68520479Y-84190000D01*
X68510000Y-84191032D01*
X68510000Y-82560726D01*
X68528385Y-82373218D01*
X68572757Y-82226250D01*
X68644827Y-82090706D01*
X68741853Y-81971740D01*
X68860143Y-81873882D01*
X68995181Y-81800867D01*
X69141833Y-81755471D01*
X69327092Y-81736000D01*
X77573000Y-81736000D01*
X77573000Y-86155000D01*
%TA.AperFunction,Conductor*%
D17*
G36*
X77573000Y-86155000D02*
G01*
X77522835Y-86155000D01*
X77351855Y-86189010D01*
X77190795Y-86255723D01*
X77045845Y-86352576D01*
X76965000Y-86433421D01*
X76965000Y-86352835D01*
X76930990Y-86181855D01*
X76864277Y-86020795D01*
X76767424Y-85875845D01*
X76644155Y-85752576D01*
X76499205Y-85655723D01*
X76338145Y-85589010D01*
X76167165Y-85555000D01*
X75992835Y-85555000D01*
X75821855Y-85589010D01*
X75660795Y-85655723D01*
X75515845Y-85752576D01*
X75392576Y-85875845D01*
X75295723Y-86020795D01*
X75229010Y-86181855D01*
X75195000Y-86352835D01*
X75195000Y-86527165D01*
X75229010Y-86698145D01*
X75295723Y-86859205D01*
X75392576Y-87004155D01*
X75515845Y-87127424D01*
X75660795Y-87224277D01*
X75821855Y-87290990D01*
X75992835Y-87325000D01*
X76167165Y-87325000D01*
X76338145Y-87290990D01*
X76499205Y-87224277D01*
X76644155Y-87127424D01*
X76725000Y-87046579D01*
X76725000Y-87127165D01*
X76759010Y-87298145D01*
X76825723Y-87459205D01*
X76922576Y-87604155D01*
X77045845Y-87727424D01*
X77190795Y-87824277D01*
X77351855Y-87890990D01*
X77522835Y-87925000D01*
X77573000Y-87925000D01*
X77573000Y-88050000D01*
X77573008Y-88051468D01*
X77641760Y-93998488D01*
X77545845Y-94062576D01*
X77422576Y-94185845D01*
X77325723Y-94330795D01*
X77259010Y-94491855D01*
X77225000Y-94662835D01*
X77225000Y-94837165D01*
X77259010Y-95008145D01*
X77325723Y-95169205D01*
X77422576Y-95314155D01*
X77545845Y-95437424D01*
X77659271Y-95513213D01*
X77668552Y-96315999D01*
X69334729Y-96315999D01*
X69147216Y-96297613D01*
X69000252Y-96253242D01*
X68864703Y-96181170D01*
X68745742Y-96084147D01*
X68647882Y-95965855D01*
X68574868Y-95830818D01*
X68529471Y-95684166D01*
X68510000Y-95498907D01*
X68510000Y-95162835D01*
X70285000Y-95162835D01*
X70285000Y-95337165D01*
X70319010Y-95508145D01*
X70385723Y-95669205D01*
X70482576Y-95814155D01*
X70605845Y-95937424D01*
X70750795Y-96034277D01*
X70911855Y-96100990D01*
X71082835Y-96135000D01*
X71257165Y-96135000D01*
X71428145Y-96100990D01*
X71589205Y-96034277D01*
X71734155Y-95937424D01*
X71857424Y-95814155D01*
X71954277Y-95669205D01*
X72020990Y-95508145D01*
X72055000Y-95337165D01*
X72055000Y-95162835D01*
X72020990Y-94991855D01*
X71954277Y-94830795D01*
X71857424Y-94685845D01*
X71734155Y-94562576D01*
X71589205Y-94465723D01*
X71428145Y-94399010D01*
X71257165Y-94365000D01*
X71082835Y-94365000D01*
X70911855Y-94399010D01*
X70750795Y-94465723D01*
X70605845Y-94562576D01*
X70482576Y-94685845D01*
X70385723Y-94830795D01*
X70319010Y-94991855D01*
X70285000Y-95162835D01*
X68510000Y-95162835D01*
X68510000Y-93408968D01*
X68520479Y-93410000D01*
X69579521Y-93410000D01*
X69742598Y-93393938D01*
X69951834Y-93330468D01*
X70144666Y-93227396D01*
X70313686Y-93088686D01*
X70452396Y-92919666D01*
X70555468Y-92726834D01*
X70618938Y-92517598D01*
X70640370Y-92300000D01*
X70618938Y-92082402D01*
X70603815Y-92032547D01*
X70693619Y-92166949D01*
X70883051Y-92356381D01*
X71105799Y-92505216D01*
X71353303Y-92607736D01*
X71616052Y-92660000D01*
X71883948Y-92660000D01*
X72146697Y-92607736D01*
X72204292Y-92583879D01*
X72229010Y-92708145D01*
X72295723Y-92869205D01*
X72392576Y-93014155D01*
X72515845Y-93137424D01*
X72660795Y-93234277D01*
X72821855Y-93300990D01*
X72992835Y-93335000D01*
X73167165Y-93335000D01*
X73338145Y-93300990D01*
X73499205Y-93234277D01*
X73644155Y-93137424D01*
X73767424Y-93014155D01*
X73864277Y-92869205D01*
X73892426Y-92801246D01*
X73895723Y-92809205D01*
X73992576Y-92954155D01*
X74115845Y-93077424D01*
X74260795Y-93174277D01*
X74421855Y-93240990D01*
X74592835Y-93275000D01*
X74767165Y-93275000D01*
X74938145Y-93240990D01*
X75099205Y-93174277D01*
X75244155Y-93077424D01*
X75367424Y-92954155D01*
X75464277Y-92809205D01*
X75530990Y-92648145D01*
X75565000Y-92477165D01*
X75565000Y-92302835D01*
X75530990Y-92131855D01*
X75464277Y-91970795D01*
X75367424Y-91825845D01*
X75244155Y-91702576D01*
X75099205Y-91605723D01*
X74938145Y-91539010D01*
X74767165Y-91505000D01*
X74592835Y-91505000D01*
X74421855Y-91539010D01*
X74260795Y-91605723D01*
X74115845Y-91702576D01*
X73992576Y-91825845D01*
X73895723Y-91970795D01*
X73867574Y-92038754D01*
X73864277Y-92030795D01*
X73767424Y-91885845D01*
X73644155Y-91762576D01*
X73499205Y-91665723D01*
X73338145Y-91599010D01*
X73167165Y-91565000D01*
X73083932Y-91565000D01*
X73110000Y-91433948D01*
X73110000Y-91166052D01*
X73057736Y-90903303D01*
X72955216Y-90655799D01*
X72806381Y-90433051D01*
X72616949Y-90243619D01*
X72394201Y-90094784D01*
X72146697Y-89992264D01*
X71883948Y-89940000D01*
X71616052Y-89940000D01*
X71595000Y-89944188D01*
X71595000Y-89938061D01*
X71555226Y-89738102D01*
X71477205Y-89549744D01*
X71363937Y-89380226D01*
X71219774Y-89236063D01*
X71050256Y-89122795D01*
X70861898Y-89044774D01*
X70661939Y-89005000D01*
X70458061Y-89005000D01*
X70258102Y-89044774D01*
X70069744Y-89122795D01*
X69900226Y-89236063D01*
X69756063Y-89380226D01*
X69642795Y-89549744D01*
X69564774Y-89738102D01*
X69525000Y-89938061D01*
X69525000Y-90141939D01*
X69564774Y-90341898D01*
X69642795Y-90530256D01*
X69756063Y-90699774D01*
X69900226Y-90843937D01*
X70069744Y-90957205D01*
X70258102Y-91035226D01*
X70410012Y-91065443D01*
X70390000Y-91166052D01*
X70390000Y-91433948D01*
X70434727Y-91658803D01*
X70313686Y-91511314D01*
X70144666Y-91372604D01*
X69951834Y-91269532D01*
X69742598Y-91206062D01*
X69579521Y-91190000D01*
X68520479Y-91190000D01*
X68510000Y-91191032D01*
X68510000Y-86408968D01*
X68520479Y-86410000D01*
X69579521Y-86410000D01*
X69742598Y-86393938D01*
X69951834Y-86330468D01*
X70144666Y-86227396D01*
X70313686Y-86088686D01*
X70434727Y-85941197D01*
X70390000Y-86166052D01*
X70390000Y-86433948D01*
X70393735Y-86452723D01*
X70311855Y-86469010D01*
X70150795Y-86535723D01*
X70005845Y-86632576D01*
X69882576Y-86755845D01*
X69785723Y-86900795D01*
X69719010Y-87061855D01*
X69685000Y-87232835D01*
X69685000Y-87407165D01*
X69719010Y-87578145D01*
X69785723Y-87739205D01*
X69882576Y-87884155D01*
X70005845Y-88007424D01*
X70150795Y-88104277D01*
X70311855Y-88170990D01*
X70482835Y-88205000D01*
X70657165Y-88205000D01*
X70828145Y-88170990D01*
X70989205Y-88104277D01*
X71134155Y-88007424D01*
X71257424Y-87884155D01*
X71354277Y-87739205D01*
X71404514Y-87617922D01*
X71616052Y-87660000D01*
X71883948Y-87660000D01*
X72146697Y-87607736D01*
X72394201Y-87505216D01*
X72616949Y-87356381D01*
X72806381Y-87166949D01*
X72955216Y-86944201D01*
X73057736Y-86696697D01*
X73075552Y-86607131D01*
X73175845Y-86707424D01*
X73320795Y-86804277D01*
X73481855Y-86870990D01*
X73652835Y-86905000D01*
X73827165Y-86905000D01*
X73998145Y-86870990D01*
X74159205Y-86804277D01*
X74304155Y-86707424D01*
X74427424Y-86584155D01*
X74524277Y-86439205D01*
X74590990Y-86278145D01*
X74625000Y-86107165D01*
X74625000Y-85932835D01*
X74590990Y-85761855D01*
X74524277Y-85600795D01*
X74427424Y-85455845D01*
X74304155Y-85332576D01*
X74159205Y-85235723D01*
X73998145Y-85169010D01*
X73827165Y-85135000D01*
X73652835Y-85135000D01*
X73481855Y-85169010D01*
X73320795Y-85235723D01*
X73175845Y-85332576D01*
X73052576Y-85455845D01*
X72955723Y-85600795D01*
X72941464Y-85635218D01*
X72806381Y-85433051D01*
X72658330Y-85285000D01*
X72687165Y-85285000D01*
X72858145Y-85250990D01*
X73019205Y-85184277D01*
X73164155Y-85087424D01*
X73287424Y-84964155D01*
X73384277Y-84819205D01*
X73450990Y-84658145D01*
X73485000Y-84487165D01*
X73485000Y-84312835D01*
X73450990Y-84141855D01*
X73384277Y-83980795D01*
X73287424Y-83835845D01*
X73164155Y-83712576D01*
X73104679Y-83672835D01*
X74125002Y-83672835D01*
X74125002Y-83847165D01*
X74159012Y-84018145D01*
X74225725Y-84179205D01*
X74322578Y-84324155D01*
X74445847Y-84447424D01*
X74590797Y-84544277D01*
X74751857Y-84610990D01*
X74922837Y-84645000D01*
X75097167Y-84645000D01*
X75268147Y-84610990D01*
X75429207Y-84544277D01*
X75574157Y-84447424D01*
X75697426Y-84324155D01*
X75794279Y-84179205D01*
X75860992Y-84018145D01*
X75895002Y-83847165D01*
X75895002Y-83672835D01*
X75860992Y-83501855D01*
X75794279Y-83340795D01*
X75697426Y-83195845D01*
X75574157Y-83072576D01*
X75429207Y-82975723D01*
X75268147Y-82909010D01*
X75097167Y-82875000D01*
X74922837Y-82875000D01*
X74751857Y-82909010D01*
X74590797Y-82975723D01*
X74445847Y-83072576D01*
X74322578Y-83195845D01*
X74225725Y-83340795D01*
X74159012Y-83501855D01*
X74125002Y-83672835D01*
X73104679Y-83672835D01*
X73019205Y-83615723D01*
X72858145Y-83549010D01*
X72687165Y-83515000D01*
X72512835Y-83515000D01*
X72341855Y-83549010D01*
X72180795Y-83615723D01*
X72035845Y-83712576D01*
X71912576Y-83835845D01*
X71815723Y-83980795D01*
X71749010Y-84141855D01*
X71715000Y-84312835D01*
X71715000Y-84487165D01*
X71749010Y-84658145D01*
X71815723Y-84819205D01*
X71898350Y-84942865D01*
X71883948Y-84940000D01*
X71616052Y-84940000D01*
X71353303Y-84992264D01*
X71105799Y-85094784D01*
X70883051Y-85243619D01*
X70693619Y-85433051D01*
X70603815Y-85567453D01*
X70618938Y-85517598D01*
X70640370Y-85300000D01*
X70618938Y-85082402D01*
X70555468Y-84873166D01*
X70452396Y-84680334D01*
X70313686Y-84511314D01*
X70144666Y-84372604D01*
X69951834Y-84269532D01*
X69742598Y-84206062D01*
X69579521Y-84190000D01*
X68520479Y-84190000D01*
X68510000Y-84191032D01*
X68510000Y-82560726D01*
X68528385Y-82373218D01*
X68572757Y-82226250D01*
X68644827Y-82090706D01*
X68741853Y-81971740D01*
X68860143Y-81873882D01*
X68995181Y-81800867D01*
X69141833Y-81755471D01*
X69327092Y-81736000D01*
X77573000Y-81736000D01*
X77573000Y-86155000D01*
G37*
%TD.AperFunction*%
%TD*%
M02*
