M48
; DRILL file {KiCad (5.1.8-0-10_14)} date Friday, April 16, 2021 at 06:19:50 PM
; FORMAT={-:-/ absolute / metric / decimal}
; #@! TF.CreationDate,2021-04-16T18:19:50+02:00
; #@! TF.GenerationSoftware,Kicad,Pcbnew,(5.1.8-0-10_14)
FMAT,2
METRIC
T1C0.400
T2C0.600
T3C0.800
T4C0.850
T5C0.800
%
G90
G05
T1
X70.56Y-90.04
X70.57Y-87.32
X71.17Y-95.25
X72.6Y-84.4
X73.08Y-92.45
X73.74Y-86.02
X73.89Y-94.14
X74.11Y-81.95
X74.68Y-92.39
X75.01Y-83.76
X75.59Y-94.19
X76.08Y-86.44
X76.33Y-81.88
X77.09Y-88.48
X77.29Y-94.18
X77.48Y-81.83
X77.61Y-87.04
X78.11Y-94.75
X79.25Y-94.57
X79.78Y-81.89
X80.66Y-87.0
X80.78Y-89.84
X81.0Y-95.66
X81.29Y-81.77
X81.32Y-93.75
X82.07Y-91.38
X82.16Y-92.5
X83.25Y-88.64
X83.36Y-86.08
X83.815Y-93.445
X83.826Y-87.094
X85.73Y-92.81
X86.09Y-90.11
X86.35Y-84.5
X86.57Y-87.8
X87.07Y-85.69
X87.11Y-92.62
X87.6Y-82.55
X87.96Y-90.82
X87.99Y-87.8
X88.134Y-96.051
X88.55Y-85.75
X88.61Y-92.8
X88.96Y-95.43
X91.65Y-81.86
X92.1Y-87.86
X92.16Y-90.64
X92.336Y-82.536
X92.6Y-91.595
X92.615Y-88.915
X93.25Y-95.762
X93.404Y-86.698
X95.84Y-95.76
X96.27Y-88.43
X99.278Y-95.802
X100.56Y-94.97
X102.03Y-87.71
X102.11Y-86.15
X102.9Y-92.82
X106.27Y-87.93
X106.42Y-89.86
X107.62Y-88.905
X109.85Y-86.8
X110.15Y-95.0
X110.74Y-85.14
X112.24Y-87.64
X113.95Y-95.85
T3
X99.39Y-82.96
X101.39Y-82.96
X103.39Y-82.96
X105.39Y-82.96
T4
X71.75Y-86.3
X71.75Y-91.3
T5
X112.2Y-86.6
X112.2Y-91.2
T2
G00X69.4Y-85.3
M15
G01X68.7Y-85.3
M16
G05
G00X69.4Y-92.3
M15
G01X68.7Y-92.3
M16
G05
T0
M30
