%TF.GenerationSoftware,KiCad,Pcbnew,(5.1.8-0-10_14)*%
%TF.CreationDate,2021-04-16T18:19:52+02:00*%
%TF.ProjectId,SimpleCANAdapter,53696d70-6c65-4434-914e-416461707465,rev?*%
%TF.SameCoordinates,Original*%
%TF.FileFunction,Legend,Bot*%
%TF.FilePolarity,Positive*%
%FSLAX46Y46*%
G04 Gerber Fmt 4.6, Leading zero omitted, Abs format (unit mm)*
G04 Created by KiCad (PCBNEW (5.1.8-0-10_14)) date 2021-04-16 18:19:52*
%MOMM*%
%LPD*%
G01*
G04 APERTURE LIST*
%ADD10C,0.120000*%
%ADD11C,0.300000*%
%ADD12C,0.100000*%
%ADD13C,0.150000*%
%ADD14C,0.125000*%
%ADD15C,0.062500*%
G04 APERTURE END LIST*
D10*
X96290000Y-85120000D02*
X96130000Y-84840000D01*
X96360000Y-85040000D02*
X96290000Y-85120000D01*
X96310000Y-84850000D02*
X96360000Y-85040000D01*
X96890000Y-84960000D02*
X96310000Y-84850000D01*
X96570000Y-84920000D02*
X96890000Y-84960000D01*
X96430000Y-85050000D02*
X96570000Y-84920000D01*
X96480000Y-84850000D02*
X96430000Y-85050000D01*
X96370000Y-84950000D02*
X96480000Y-84850000D01*
X96250000Y-84720000D02*
X96370000Y-84950000D01*
X96790000Y-84910000D02*
X96250000Y-84720000D01*
X96440000Y-84770000D02*
X96790000Y-84910000D01*
X96010000Y-84800000D02*
X96440000Y-84770000D01*
X96030000Y-85080000D02*
X96010000Y-84800000D01*
X96330000Y-85610000D02*
X96030000Y-85080000D01*
X96010000Y-84670000D02*
X96330000Y-85610000D01*
X96480000Y-85840000D02*
X96010000Y-84670000D01*
X96360000Y-85130000D02*
X96480000Y-85840000D01*
X96600000Y-84920000D02*
X96360000Y-85130000D01*
X97300000Y-85190000D02*
X96600000Y-84920000D01*
X97260000Y-85110000D02*
X97300000Y-85190000D01*
X96640000Y-84750000D02*
X97260000Y-85110000D01*
X96090000Y-84620000D02*
X96640000Y-84750000D01*
X96610000Y-85870000D02*
X96090000Y-84620000D01*
X97290000Y-86320000D02*
X96610000Y-85870000D01*
X96630000Y-85790000D02*
X97290000Y-86320000D01*
X96520000Y-85900000D02*
X96630000Y-85790000D01*
X97090000Y-86340000D02*
X96520000Y-85900000D01*
X97180000Y-86260000D02*
X97090000Y-86340000D01*
X97160000Y-86370000D02*
X97180000Y-86260000D01*
X97330000Y-86340000D02*
X97160000Y-86370000D01*
X97260000Y-86450000D02*
X97330000Y-86340000D01*
X97470000Y-86420000D02*
X97260000Y-86450000D01*
X97400000Y-86380000D02*
X97470000Y-86420000D01*
X97380000Y-86500000D02*
X97400000Y-86380000D01*
X97590000Y-86460000D02*
X97380000Y-86500000D01*
X97440000Y-86550000D02*
X97590000Y-86460000D01*
X97830000Y-86540000D02*
X97440000Y-86550000D01*
X98380000Y-86600000D02*
X97830000Y-86540000D01*
X97560000Y-86620000D02*
X98380000Y-86600000D01*
X98310000Y-86690000D02*
X97560000Y-86620000D01*
X97630000Y-86690000D02*
X98310000Y-86690000D01*
X97910000Y-86810000D02*
X97630000Y-86690000D01*
X98640000Y-86730000D02*
X97910000Y-86810000D01*
X98170000Y-86860000D02*
X98640000Y-86730000D01*
X98400000Y-86510000D02*
X98170000Y-86860000D01*
X98420000Y-86610000D02*
X98400000Y-86510000D01*
X98230000Y-86890000D02*
X98420000Y-86610000D01*
X98460000Y-86700000D02*
X98230000Y-86890000D01*
X98410000Y-86440000D02*
X98460000Y-86700000D01*
X98580000Y-86690000D02*
X98410000Y-86440000D01*
X98280000Y-86890000D02*
X98580000Y-86690000D01*
X98760000Y-86780000D02*
X98280000Y-86890000D01*
X98500000Y-86390000D02*
X98760000Y-86780000D01*
X98710000Y-86820000D02*
X98500000Y-86390000D01*
X98540000Y-86230000D02*
X98710000Y-86820000D01*
X98820000Y-86740000D02*
X98540000Y-86230000D01*
X98580000Y-86020000D02*
X98820000Y-86740000D01*
X98870000Y-86630000D02*
X98580000Y-86020000D01*
X98920000Y-86530000D02*
X98870000Y-86630000D01*
X98410000Y-85550000D02*
X98920000Y-86530000D01*
X98980000Y-86420000D02*
X98410000Y-85550000D01*
X98910000Y-86120000D02*
X98980000Y-86420000D01*
X98180000Y-85150000D02*
X98910000Y-86120000D01*
X98820000Y-85860000D02*
X98180000Y-85150000D01*
X98270000Y-85320000D02*
X98820000Y-85860000D01*
X98680000Y-85570000D02*
X98270000Y-85320000D01*
X97200000Y-84330000D02*
X98680000Y-85570000D01*
X98050000Y-84990000D02*
X97200000Y-84330000D01*
X97290000Y-84300000D02*
X98050000Y-84990000D01*
X96860000Y-84170000D02*
X97290000Y-84300000D01*
X97160000Y-84150000D02*
X96860000Y-84170000D01*
X96610000Y-84040000D02*
X97160000Y-84150000D01*
X97000000Y-84010000D02*
X96610000Y-84040000D01*
X98500000Y-85290000D02*
X97000000Y-84010000D01*
X97150000Y-83990000D02*
X98500000Y-85290000D01*
X95240000Y-83890000D02*
X97150000Y-83990000D01*
X95190000Y-84040000D02*
X95240000Y-83890000D01*
X95440000Y-83890000D02*
X95190000Y-84040000D01*
X95150000Y-83790000D02*
X95440000Y-83890000D01*
X97000000Y-83910000D02*
X95150000Y-83790000D01*
X95290000Y-83690000D02*
X97000000Y-83910000D01*
X95190000Y-83760000D02*
X95290000Y-83690000D01*
X95180000Y-83620000D02*
X95190000Y-83760000D01*
X96850000Y-83820000D02*
X95180000Y-83620000D01*
X96610000Y-83680000D02*
X96850000Y-83820000D01*
X95510000Y-83560000D02*
X96610000Y-83680000D01*
X95200000Y-83650000D02*
X95510000Y-83560000D01*
X95170000Y-83510000D02*
X95200000Y-83650000D01*
X96380000Y-83570000D02*
X95170000Y-83510000D01*
X95580000Y-83370000D02*
X96380000Y-83570000D01*
X95820000Y-83410000D02*
X95580000Y-83370000D01*
X94540000Y-83670000D02*
X95820000Y-83410000D01*
X94450000Y-83820000D02*
X94540000Y-83670000D01*
X94730000Y-84250000D02*
X94450000Y-83820000D01*
X94700000Y-84170000D02*
X94730000Y-84250000D01*
X94750000Y-84340000D02*
X94700000Y-84170000D01*
X94880000Y-83900000D02*
X94750000Y-84340000D01*
X94800000Y-84630000D02*
X94880000Y-83900000D01*
X94650000Y-84220000D02*
X94800000Y-84630000D01*
X94890000Y-83690000D02*
X94650000Y-84220000D01*
X94770000Y-83660000D02*
X94890000Y-83690000D01*
X94560000Y-84210000D02*
X94770000Y-83660000D01*
X94870000Y-84780000D02*
X94560000Y-84210000D01*
X94960000Y-83650000D02*
X94870000Y-84780000D01*
X94980000Y-84870000D02*
X94960000Y-83650000D01*
X95080000Y-85470000D02*
X94980000Y-84870000D01*
X96560000Y-86710000D02*
X95080000Y-85470000D01*
X95500000Y-86000000D02*
X96560000Y-86710000D01*
X95950000Y-86280000D02*
X95500000Y-86000000D01*
X95780000Y-86050000D02*
X95950000Y-86280000D01*
X94660000Y-84820000D02*
X95780000Y-86050000D01*
X95110000Y-85090000D02*
X94660000Y-84820000D01*
X94640000Y-84680000D02*
X95110000Y-85090000D01*
X95030000Y-84910000D02*
X94640000Y-84680000D01*
X94810000Y-84850000D02*
X95030000Y-84910000D01*
X94510000Y-84240000D02*
X94810000Y-84850000D01*
X94680000Y-83700000D02*
X94510000Y-84240000D01*
X95060000Y-83570000D02*
X94680000Y-83700000D01*
X95070000Y-84990000D02*
X95060000Y-83570000D01*
X95180000Y-83490000D02*
X95070000Y-84990000D01*
X95100000Y-84990000D02*
X95180000Y-83490000D01*
X94680000Y-84990000D02*
X95100000Y-84990000D01*
X94450000Y-84230000D02*
X94680000Y-84990000D01*
X94680000Y-83680000D02*
X94450000Y-84230000D01*
X94600000Y-83680000D02*
X94680000Y-83680000D01*
X95520000Y-83390000D02*
X94600000Y-83680000D01*
X94580000Y-83620000D02*
X95520000Y-83390000D01*
X95370000Y-83310000D02*
X94580000Y-83620000D01*
X94690000Y-83470000D02*
X95370000Y-83310000D01*
X94380000Y-84150000D02*
X94690000Y-83470000D01*
X94680000Y-84980000D02*
X94380000Y-84150000D01*
X95220000Y-85170000D02*
X94680000Y-84980000D01*
X94660000Y-85060000D02*
X95220000Y-85170000D01*
X95220000Y-85300000D02*
X94660000Y-85060000D01*
X94760000Y-85180000D02*
X95220000Y-85300000D01*
X95380000Y-85510000D02*
X94760000Y-85180000D01*
X95310000Y-85420000D02*
X95380000Y-85510000D01*
X94830000Y-85290000D02*
X95310000Y-85420000D01*
X95490000Y-85680000D02*
X94830000Y-85290000D01*
X94980000Y-85450000D02*
X95490000Y-85680000D01*
X95680000Y-85930000D02*
X94980000Y-85450000D01*
X95120000Y-85610000D02*
X95680000Y-85930000D01*
X96410000Y-86620000D02*
X95120000Y-85610000D01*
D11*
X101300000Y-89700000D02*
X82660000Y-89700000D01*
D12*
X114599285Y-92097857D02*
X114635000Y-92062142D01*
X114670714Y-91990714D01*
X114670714Y-91812142D01*
X114635000Y-91740714D01*
X114599285Y-91705000D01*
X114527857Y-91669285D01*
X114456428Y-91669285D01*
X114349285Y-91705000D01*
X113920714Y-92133571D01*
X113920714Y-91669285D01*
X114670714Y-91205000D02*
X114670714Y-91133571D01*
X114635000Y-91062142D01*
X114599285Y-91026428D01*
X114527857Y-90990714D01*
X114385000Y-90955000D01*
X114206428Y-90955000D01*
X114063571Y-90990714D01*
X113992142Y-91026428D01*
X113956428Y-91062142D01*
X113920714Y-91133571D01*
X113920714Y-91205000D01*
X113956428Y-91276428D01*
X113992142Y-91312142D01*
X114063571Y-91347857D01*
X114206428Y-91383571D01*
X114385000Y-91383571D01*
X114527857Y-91347857D01*
X114599285Y-91312142D01*
X114635000Y-91276428D01*
X114670714Y-91205000D01*
X114599285Y-90669285D02*
X114635000Y-90633571D01*
X114670714Y-90562142D01*
X114670714Y-90383571D01*
X114635000Y-90312142D01*
X114599285Y-90276428D01*
X114527857Y-90240714D01*
X114456428Y-90240714D01*
X114349285Y-90276428D01*
X113920714Y-90705000D01*
X113920714Y-90240714D01*
X113920714Y-89526428D02*
X113920714Y-89955000D01*
X113920714Y-89740714D02*
X114670714Y-89740714D01*
X114563571Y-89812142D01*
X114492142Y-89883571D01*
X114456428Y-89955000D01*
X114706428Y-88097857D02*
X113742142Y-88740714D01*
X113920714Y-86847857D02*
X114277857Y-87097857D01*
X113920714Y-87276428D02*
X114670714Y-87276428D01*
X114670714Y-86990714D01*
X114635000Y-86919285D01*
X114599285Y-86883571D01*
X114527857Y-86847857D01*
X114420714Y-86847857D01*
X114349285Y-86883571D01*
X114313571Y-86919285D01*
X114277857Y-86990714D01*
X114277857Y-87276428D01*
X113920714Y-86133571D02*
X113920714Y-86562142D01*
X113920714Y-86347857D02*
X114670714Y-86347857D01*
X114563571Y-86419285D01*
X114492142Y-86490714D01*
X114456428Y-86562142D01*
X113992142Y-85812142D02*
X113956428Y-85776428D01*
X113920714Y-85812142D01*
X113956428Y-85847857D01*
X113992142Y-85812142D01*
X113920714Y-85812142D01*
X113920714Y-85062142D02*
X113920714Y-85490714D01*
X113920714Y-85276428D02*
X114670714Y-85276428D01*
X114563571Y-85347857D01*
X114492142Y-85419285D01*
X114456428Y-85490714D01*
D13*
X112001904Y-96092380D02*
X112478095Y-96092380D01*
X112478095Y-95092380D01*
X111525714Y-96092380D02*
X111620952Y-96044761D01*
X111668571Y-95949523D01*
X111668571Y-95092380D01*
X111001904Y-96092380D02*
X111097142Y-96044761D01*
X111144761Y-95997142D01*
X111192380Y-95901904D01*
X111192380Y-95616190D01*
X111144761Y-95520952D01*
X111097142Y-95473333D01*
X111001904Y-95425714D01*
X110859047Y-95425714D01*
X110763809Y-95473333D01*
X110716190Y-95520952D01*
X110668571Y-95616190D01*
X110668571Y-95901904D01*
X110716190Y-95997142D01*
X110763809Y-96044761D01*
X110859047Y-96092380D01*
X111001904Y-96092380D01*
X110240000Y-95425714D02*
X110240000Y-96425714D01*
X110240000Y-95473333D02*
X110144761Y-95425714D01*
X109954285Y-95425714D01*
X109859047Y-95473333D01*
X109811428Y-95520952D01*
X109763809Y-95616190D01*
X109763809Y-95901904D01*
X109811428Y-95997142D01*
X109859047Y-96044761D01*
X109954285Y-96092380D01*
X110144761Y-96092380D01*
X110240000Y-96044761D01*
X109335238Y-96092380D02*
X109335238Y-95425714D01*
X109335238Y-95092380D02*
X109382857Y-95140000D01*
X109335238Y-95187619D01*
X109287619Y-95140000D01*
X109335238Y-95092380D01*
X109335238Y-95187619D01*
X108906666Y-96044761D02*
X108811428Y-96092380D01*
X108620952Y-96092380D01*
X108525714Y-96044761D01*
X108478095Y-95949523D01*
X108478095Y-95901904D01*
X108525714Y-95806666D01*
X108620952Y-95759047D01*
X108763809Y-95759047D01*
X108859047Y-95711428D01*
X108906666Y-95616190D01*
X108906666Y-95568571D01*
X108859047Y-95473333D01*
X108763809Y-95425714D01*
X108620952Y-95425714D01*
X108525714Y-95473333D01*
X107287619Y-96092380D02*
X107287619Y-95092380D01*
X107049523Y-95092380D01*
X106906666Y-95140000D01*
X106811428Y-95235238D01*
X106763809Y-95330476D01*
X106716190Y-95520952D01*
X106716190Y-95663809D01*
X106763809Y-95854285D01*
X106811428Y-95949523D01*
X106906666Y-96044761D01*
X107049523Y-96092380D01*
X107287619Y-96092380D01*
X105906666Y-96044761D02*
X106001904Y-96092380D01*
X106192380Y-96092380D01*
X106287619Y-96044761D01*
X106335238Y-95949523D01*
X106335238Y-95568571D01*
X106287619Y-95473333D01*
X106192380Y-95425714D01*
X106001904Y-95425714D01*
X105906666Y-95473333D01*
X105859047Y-95568571D01*
X105859047Y-95663809D01*
X106335238Y-95759047D01*
X105525714Y-95425714D02*
X105287619Y-96092380D01*
X105049523Y-95425714D01*
X104287619Y-96044761D02*
X104382857Y-96092380D01*
X104573333Y-96092380D01*
X104668571Y-96044761D01*
X104716190Y-95949523D01*
X104716190Y-95568571D01*
X104668571Y-95473333D01*
X104573333Y-95425714D01*
X104382857Y-95425714D01*
X104287619Y-95473333D01*
X104240000Y-95568571D01*
X104240000Y-95663809D01*
X104716190Y-95759047D01*
X103668571Y-96092380D02*
X103763809Y-96044761D01*
X103811428Y-95949523D01*
X103811428Y-95092380D01*
X103144761Y-96092380D02*
X103240000Y-96044761D01*
X103287619Y-95997142D01*
X103335238Y-95901904D01*
X103335238Y-95616190D01*
X103287619Y-95520952D01*
X103240000Y-95473333D01*
X103144761Y-95425714D01*
X103001904Y-95425714D01*
X102906666Y-95473333D01*
X102859047Y-95520952D01*
X102811428Y-95616190D01*
X102811428Y-95901904D01*
X102859047Y-95997142D01*
X102906666Y-96044761D01*
X103001904Y-96092380D01*
X103144761Y-96092380D01*
X102382857Y-95425714D02*
X102382857Y-96425714D01*
X102382857Y-95473333D02*
X102287619Y-95425714D01*
X102097142Y-95425714D01*
X102001904Y-95473333D01*
X101954285Y-95520952D01*
X101906666Y-95616190D01*
X101906666Y-95901904D01*
X101954285Y-95997142D01*
X102001904Y-96044761D01*
X102097142Y-96092380D01*
X102287619Y-96092380D01*
X102382857Y-96044761D01*
X101478095Y-96092380D02*
X101478095Y-95425714D01*
X101478095Y-95520952D02*
X101430476Y-95473333D01*
X101335238Y-95425714D01*
X101192380Y-95425714D01*
X101097142Y-95473333D01*
X101049523Y-95568571D01*
X101049523Y-96092380D01*
X101049523Y-95568571D02*
X101001904Y-95473333D01*
X100906666Y-95425714D01*
X100763809Y-95425714D01*
X100668571Y-95473333D01*
X100620952Y-95568571D01*
X100620952Y-96092380D01*
X99763809Y-96044761D02*
X99859047Y-96092380D01*
X100049523Y-96092380D01*
X100144761Y-96044761D01*
X100192380Y-95949523D01*
X100192380Y-95568571D01*
X100144761Y-95473333D01*
X100049523Y-95425714D01*
X99859047Y-95425714D01*
X99763809Y-95473333D01*
X99716190Y-95568571D01*
X99716190Y-95663809D01*
X100192380Y-95759047D01*
X99287619Y-95425714D02*
X99287619Y-96092380D01*
X99287619Y-95520952D02*
X99240000Y-95473333D01*
X99144761Y-95425714D01*
X99001904Y-95425714D01*
X98906666Y-95473333D01*
X98859047Y-95568571D01*
X98859047Y-96092380D01*
X98525714Y-95425714D02*
X98144761Y-95425714D01*
X98382857Y-95092380D02*
X98382857Y-95949523D01*
X98335238Y-96044761D01*
X98240000Y-96092380D01*
X98144761Y-96092380D01*
X97859047Y-96044761D02*
X97763809Y-96092380D01*
X97573333Y-96092380D01*
X97478095Y-96044761D01*
X97430476Y-95949523D01*
X97430476Y-95901904D01*
X97478095Y-95806666D01*
X97573333Y-95759047D01*
X97716190Y-95759047D01*
X97811428Y-95711428D01*
X97859047Y-95616190D01*
X97859047Y-95568571D01*
X97811428Y-95473333D01*
X97716190Y-95425714D01*
X97573333Y-95425714D01*
X97478095Y-95473333D01*
X96240000Y-96092380D02*
X96240000Y-95092380D01*
X95763809Y-95425714D02*
X95763809Y-96092380D01*
X95763809Y-95520952D02*
X95716190Y-95473333D01*
X95620952Y-95425714D01*
X95478095Y-95425714D01*
X95382857Y-95473333D01*
X95335238Y-95568571D01*
X95335238Y-96092380D01*
X94430476Y-96044761D02*
X94525714Y-96092380D01*
X94716190Y-96092380D01*
X94811428Y-96044761D01*
X94859047Y-95997142D01*
X94906666Y-95901904D01*
X94906666Y-95616190D01*
X94859047Y-95520952D01*
X94811428Y-95473333D01*
X94716190Y-95425714D01*
X94525714Y-95425714D01*
X94430476Y-95473333D01*
X94001904Y-95997142D02*
X93954285Y-96044761D01*
X94001904Y-96092380D01*
X94049523Y-96044761D01*
X94001904Y-95997142D01*
X94001904Y-96092380D01*
X101212857Y-91172380D02*
X101212857Y-91981904D01*
X101165238Y-92077142D01*
X101117619Y-92124761D01*
X101022380Y-92172380D01*
X100831904Y-92172380D01*
X100736666Y-92124761D01*
X100689047Y-92077142D01*
X100641428Y-91981904D01*
X100641428Y-91172380D01*
X99831904Y-91648571D02*
X99689047Y-91696190D01*
X99641428Y-91743809D01*
X99593809Y-91839047D01*
X99593809Y-91981904D01*
X99641428Y-92077142D01*
X99689047Y-92124761D01*
X99784285Y-92172380D01*
X100165238Y-92172380D01*
X100165238Y-91172380D01*
X99831904Y-91172380D01*
X99736666Y-91220000D01*
X99689047Y-91267619D01*
X99641428Y-91362857D01*
X99641428Y-91458095D01*
X99689047Y-91553333D01*
X99736666Y-91600952D01*
X99831904Y-91648571D01*
X100165238Y-91648571D01*
X99212857Y-92124761D02*
X99070000Y-92172380D01*
X98831904Y-92172380D01*
X98736666Y-92124761D01*
X98689047Y-92077142D01*
X98641428Y-91981904D01*
X98641428Y-91886666D01*
X98689047Y-91791428D01*
X98736666Y-91743809D01*
X98831904Y-91696190D01*
X99022380Y-91648571D01*
X99117619Y-91600952D01*
X99165238Y-91553333D01*
X99212857Y-91458095D01*
X99212857Y-91362857D01*
X99165238Y-91267619D01*
X99117619Y-91220000D01*
X99022380Y-91172380D01*
X98784285Y-91172380D01*
X98641428Y-91220000D01*
X97593809Y-91505714D02*
X97212857Y-91505714D01*
X97450952Y-91172380D02*
X97450952Y-92029523D01*
X97403333Y-92124761D01*
X97308095Y-92172380D01*
X97212857Y-92172380D01*
X96736666Y-92172380D02*
X96831904Y-92124761D01*
X96879523Y-92077142D01*
X96927142Y-91981904D01*
X96927142Y-91696190D01*
X96879523Y-91600952D01*
X96831904Y-91553333D01*
X96736666Y-91505714D01*
X96593809Y-91505714D01*
X96498571Y-91553333D01*
X96450952Y-91600952D01*
X96403333Y-91696190D01*
X96403333Y-91981904D01*
X96450952Y-92077142D01*
X96498571Y-92124761D01*
X96593809Y-92172380D01*
X96736666Y-92172380D01*
X94641428Y-92077142D02*
X94689047Y-92124761D01*
X94831904Y-92172380D01*
X94927142Y-92172380D01*
X95070000Y-92124761D01*
X95165238Y-92029523D01*
X95212857Y-91934285D01*
X95260476Y-91743809D01*
X95260476Y-91600952D01*
X95212857Y-91410476D01*
X95165238Y-91315238D01*
X95070000Y-91220000D01*
X94927142Y-91172380D01*
X94831904Y-91172380D01*
X94689047Y-91220000D01*
X94641428Y-91267619D01*
X94260476Y-91886666D02*
X93784285Y-91886666D01*
X94355714Y-92172380D02*
X94022380Y-91172380D01*
X93689047Y-92172380D01*
X93355714Y-92172380D02*
X93355714Y-91172380D01*
X92784285Y-92172380D01*
X92784285Y-91172380D01*
X91212857Y-91648571D02*
X91070000Y-91696190D01*
X91022380Y-91743809D01*
X90974761Y-91839047D01*
X90974761Y-91981904D01*
X91022380Y-92077142D01*
X91070000Y-92124761D01*
X91165238Y-92172380D01*
X91546190Y-92172380D01*
X91546190Y-91172380D01*
X91212857Y-91172380D01*
X91117619Y-91220000D01*
X91070000Y-91267619D01*
X91022380Y-91362857D01*
X91022380Y-91458095D01*
X91070000Y-91553333D01*
X91117619Y-91600952D01*
X91212857Y-91648571D01*
X91546190Y-91648571D01*
X90117619Y-91505714D02*
X90117619Y-92172380D01*
X90546190Y-91505714D02*
X90546190Y-92029523D01*
X90498571Y-92124761D01*
X90403333Y-92172380D01*
X90260476Y-92172380D01*
X90165238Y-92124761D01*
X90117619Y-92077142D01*
X89689047Y-92124761D02*
X89593809Y-92172380D01*
X89403333Y-92172380D01*
X89308095Y-92124761D01*
X89260476Y-92029523D01*
X89260476Y-91981904D01*
X89308095Y-91886666D01*
X89403333Y-91839047D01*
X89546190Y-91839047D01*
X89641428Y-91791428D01*
X89689047Y-91696190D01*
X89689047Y-91648571D01*
X89641428Y-91553333D01*
X89546190Y-91505714D01*
X89403333Y-91505714D01*
X89308095Y-91553333D01*
X88117619Y-91886666D02*
X87641428Y-91886666D01*
X88212857Y-92172380D02*
X87879523Y-91172380D01*
X87546190Y-92172380D01*
X86784285Y-92172380D02*
X86784285Y-91172380D01*
X86784285Y-92124761D02*
X86879523Y-92172380D01*
X87070000Y-92172380D01*
X87165238Y-92124761D01*
X87212857Y-92077142D01*
X87260476Y-91981904D01*
X87260476Y-91696190D01*
X87212857Y-91600952D01*
X87165238Y-91553333D01*
X87070000Y-91505714D01*
X86879523Y-91505714D01*
X86784285Y-91553333D01*
X85879523Y-92172380D02*
X85879523Y-91648571D01*
X85927142Y-91553333D01*
X86022380Y-91505714D01*
X86212857Y-91505714D01*
X86308095Y-91553333D01*
X85879523Y-92124761D02*
X85974761Y-92172380D01*
X86212857Y-92172380D01*
X86308095Y-92124761D01*
X86355714Y-92029523D01*
X86355714Y-91934285D01*
X86308095Y-91839047D01*
X86212857Y-91791428D01*
X85974761Y-91791428D01*
X85879523Y-91743809D01*
X85403333Y-91505714D02*
X85403333Y-92505714D01*
X85403333Y-91553333D02*
X85308095Y-91505714D01*
X85117619Y-91505714D01*
X85022380Y-91553333D01*
X84974761Y-91600952D01*
X84927142Y-91696190D01*
X84927142Y-91981904D01*
X84974761Y-92077142D01*
X85022380Y-92124761D01*
X85117619Y-92172380D01*
X85308095Y-92172380D01*
X85403333Y-92124761D01*
X84641428Y-91505714D02*
X84260476Y-91505714D01*
X84498571Y-91172380D02*
X84498571Y-92029523D01*
X84450952Y-92124761D01*
X84355714Y-92172380D01*
X84260476Y-92172380D01*
X83546190Y-92124761D02*
X83641428Y-92172380D01*
X83831904Y-92172380D01*
X83927142Y-92124761D01*
X83974761Y-92029523D01*
X83974761Y-91648571D01*
X83927142Y-91553333D01*
X83831904Y-91505714D01*
X83641428Y-91505714D01*
X83546190Y-91553333D01*
X83498571Y-91648571D01*
X83498571Y-91743809D01*
X83974761Y-91839047D01*
X83070000Y-92172380D02*
X83070000Y-91505714D01*
X83070000Y-91696190D02*
X83022380Y-91600952D01*
X82974761Y-91553333D01*
X82879523Y-91505714D01*
X82784285Y-91505714D01*
D10*
%TO.C,U3*%
X80640000Y-90340000D02*
X79380000Y-90340000D01*
X73820000Y-90340000D02*
X75080000Y-90340000D01*
X80640000Y-86580000D02*
X80640000Y-90340000D01*
X73820000Y-84330000D02*
X73820000Y-90340000D01*
%TO.C,F1*%
X72302064Y-81890000D02*
X71097936Y-81890000D01*
X72302064Y-83710000D02*
X71097936Y-83710000D01*
%TO.C,R1*%
X103422500Y-90987742D02*
X103422500Y-91462258D01*
X102377500Y-90987742D02*
X102377500Y-91462258D01*
%TO.C,U2*%
X109460000Y-89000000D02*
X109460000Y-90950000D01*
X109460000Y-89000000D02*
X109460000Y-87050000D01*
X104340000Y-89000000D02*
X104340000Y-90950000D01*
X104340000Y-89000000D02*
X104340000Y-85550000D01*
D13*
%TO.C,U6*%
X96310000Y-86450000D02*
X96579341Y-86667159D01*
X96579341Y-86667159D02*
X96866076Y-86874831D01*
X96866076Y-86874831D02*
X97167569Y-87071961D01*
X97167569Y-87071961D02*
X97482239Y-87256441D01*
X98419925Y-85774276D02*
X98374068Y-85667277D01*
X98374068Y-85667277D02*
X98318724Y-85559225D01*
X98318724Y-85559225D02*
X98255474Y-85451172D01*
X98255474Y-85451172D02*
X98105255Y-85238229D01*
X98105255Y-85238229D02*
X97927100Y-85031085D01*
X97927100Y-85031085D02*
X97723117Y-84832900D01*
X97723117Y-84832900D02*
X97497525Y-84644731D01*
X97497525Y-84644731D02*
X97255065Y-84470265D01*
X97255065Y-84470265D02*
X97004699Y-84313721D01*
X97004699Y-84313721D02*
X96754333Y-84179314D01*
X96754333Y-84179314D02*
X96511874Y-84070734D01*
X96511874Y-84070734D02*
X96395915Y-84027513D01*
X96395915Y-84027513D02*
X96282592Y-83990617D01*
X96282592Y-83990617D02*
X96068068Y-83937381D01*
X96068068Y-83937381D02*
X95866721Y-83909973D01*
X95866721Y-83909973D02*
X95679605Y-83907865D01*
X95679605Y-83907865D02*
X95591582Y-83917352D01*
X95591582Y-83917352D02*
X95508829Y-83934746D01*
X95508829Y-83934746D02*
X95431348Y-83961100D01*
X95431348Y-83961100D02*
X95360718Y-83997996D01*
X95360718Y-83997996D02*
X95297468Y-84045434D01*
X95297468Y-84045434D02*
X95243178Y-84103940D01*
X95243178Y-84103940D02*
X95197849Y-84173516D01*
X95197849Y-84173516D02*
X95162534Y-84253633D01*
X95162534Y-84253633D02*
X95136707Y-84342710D01*
X95136707Y-84342710D02*
X95120367Y-84439167D01*
X95120367Y-84439167D02*
X95114042Y-84541422D01*
X95114042Y-84541422D02*
X95117205Y-84648420D01*
X95117205Y-84648420D02*
X95129855Y-84757527D01*
X95129855Y-84757527D02*
X95151465Y-84868742D01*
X95151465Y-84868742D02*
X95182036Y-84980484D01*
X95182036Y-84980484D02*
X95221568Y-85093281D01*
X95221568Y-85093281D02*
X95269532Y-85205550D01*
X95269532Y-85205550D02*
X95326458Y-85318346D01*
X95326458Y-85318346D02*
X95391289Y-85431670D01*
X95391289Y-85431670D02*
X95464554Y-85544993D01*
X95464554Y-85544993D02*
X95545725Y-85658317D01*
X95545725Y-85658317D02*
X95634803Y-85772167D01*
X95634803Y-85772167D02*
X95834568Y-85999869D01*
X95834568Y-85999869D02*
X96060688Y-86227043D01*
X96060688Y-86227043D02*
X96310000Y-86450000D01*
X96994158Y-86004612D02*
X97055827Y-86057848D01*
X97055827Y-86057848D02*
X97127510Y-86114246D01*
X97127510Y-86114246D02*
X97210790Y-86172753D01*
X97210790Y-86172753D02*
X97305665Y-86232841D01*
X97305665Y-86232841D02*
X97411610Y-86291874D01*
X97411610Y-86291874D02*
X97525460Y-86348272D01*
X97525460Y-86348272D02*
X97644582Y-86399400D01*
X97644582Y-86399400D02*
X97766338Y-86443148D01*
X97766338Y-86443148D02*
X97886514Y-86476354D01*
X97886514Y-86476354D02*
X98001946Y-86497965D01*
X98001946Y-86497965D02*
X98109471Y-86505344D01*
X98109471Y-86505344D02*
X98206455Y-86497965D01*
X98206455Y-86497965D02*
X98290789Y-86475827D01*
X98290789Y-86475827D02*
X98360891Y-86439458D01*
X98360891Y-86439458D02*
X98416762Y-86389385D01*
X98416762Y-86389385D02*
X98457875Y-86326662D01*
X98457875Y-86326662D02*
X98484757Y-86252870D01*
X98484757Y-86252870D02*
X98496879Y-86170117D01*
X98496879Y-86170117D02*
X98495825Y-86078931D01*
X98495825Y-86078931D02*
X98482121Y-85981421D01*
X98482121Y-85981421D02*
X98456294Y-85879693D01*
X98456294Y-85879693D02*
X98419925Y-85774276D01*
X97991404Y-87531053D02*
X97503850Y-87316529D01*
X97503850Y-87316529D02*
X97038960Y-87088301D01*
X94633867Y-85100133D02*
X94544789Y-84936736D01*
X94544789Y-84936736D02*
X94470997Y-84772813D01*
X94470997Y-84772813D02*
X94413545Y-84608889D01*
X94413545Y-84608889D02*
X94371378Y-84447601D01*
X94371378Y-84447601D02*
X94346078Y-84289475D01*
X94346078Y-84289475D02*
X94336590Y-84137147D01*
X95279020Y-85884964D02*
X95126165Y-85733690D01*
X95126165Y-85733690D02*
X94983852Y-85579254D01*
X94983852Y-85579254D02*
X94854189Y-85422182D01*
X94854189Y-85422182D02*
X94737176Y-85262475D01*
X94737176Y-85262475D02*
X94633867Y-85100133D01*
X94336590Y-84137147D02*
X94343442Y-83993252D01*
X94343442Y-83993252D02*
X94365580Y-83858846D01*
X94365580Y-83858846D02*
X94402476Y-83736562D01*
X94402476Y-83736562D02*
X94453603Y-83627982D01*
X94453603Y-83627982D02*
X94517908Y-83534161D01*
X94517908Y-83534161D02*
X94594862Y-83456679D01*
X94594862Y-83456679D02*
X94681832Y-83394483D01*
X94681832Y-83394483D02*
X94779342Y-83347045D01*
X94779342Y-83347045D02*
X94884760Y-83313312D01*
X94884760Y-83313312D02*
X94997556Y-83292228D01*
X94997556Y-83292228D02*
X95116677Y-83281686D01*
X95116677Y-83281686D02*
X95240543Y-83280632D01*
X95240543Y-83280632D02*
X95501977Y-83301716D01*
X95501977Y-83301716D02*
X95777643Y-83352843D01*
X95777643Y-83352843D02*
X96066486Y-83434541D01*
X96066486Y-83434541D02*
X96366398Y-83547865D01*
X96366398Y-83547865D02*
X96670527Y-83690705D01*
X96670527Y-83690705D02*
X96966222Y-83853575D01*
X96966222Y-83853575D02*
X97239780Y-84023296D01*
X97239780Y-84023296D02*
X97478549Y-84188274D01*
X97478549Y-84188274D02*
X97679896Y-84343765D01*
X97679896Y-84343765D02*
X97853308Y-84497147D01*
X97853308Y-84497147D02*
X98019867Y-84665814D01*
X98019867Y-84665814D02*
X98106836Y-84761744D01*
X98106836Y-84761744D02*
X98199076Y-84868742D01*
X98199076Y-84868742D02*
X98297641Y-84987864D01*
X98297641Y-84987864D02*
X98400950Y-85119108D01*
X98400950Y-85119108D02*
X98613365Y-85413749D01*
X98613365Y-85413749D02*
X98808387Y-85735799D01*
X98808387Y-85735799D02*
X98888504Y-85899195D01*
X98888504Y-85899195D02*
X98951228Y-86059956D01*
X98951228Y-86059956D02*
X98993394Y-86214393D01*
X98993394Y-86214393D02*
X99011842Y-86359868D01*
X99011842Y-86359868D02*
X99006044Y-86492694D01*
X99006044Y-86492694D02*
X98975474Y-86610761D01*
X98975474Y-86610761D02*
X98921711Y-86713016D01*
X98921711Y-86713016D02*
X98847392Y-86797350D01*
X98847392Y-86797350D02*
X98754625Y-86863762D01*
X98754625Y-86863762D02*
X98647626Y-86911727D01*
X98647626Y-86911727D02*
X98528505Y-86940717D01*
X98528505Y-86940717D02*
X98399896Y-86951786D01*
X98399896Y-86951786D02*
X98263908Y-86945461D01*
X98263908Y-86945461D02*
X98122121Y-86922796D01*
X98122121Y-86922796D02*
X97975064Y-86884319D01*
X97975064Y-86884319D02*
X97824845Y-86831610D01*
X97824845Y-86831610D02*
X97671463Y-86765724D01*
X97671463Y-86765724D02*
X97515973Y-86688770D01*
X97515973Y-86688770D02*
X97201829Y-86503763D01*
X97201829Y-86503763D02*
X96892430Y-86285022D01*
X96892430Y-86285022D02*
X96601478Y-86039927D01*
X96601478Y-86039927D02*
X96467599Y-85910264D01*
X96467599Y-85910264D02*
X96344261Y-85776384D01*
X96344261Y-85776384D02*
X96233573Y-85639869D01*
X96233573Y-85639869D02*
X96136589Y-85502299D01*
X96136589Y-85502299D02*
X96054890Y-85365784D01*
X96054890Y-85365784D02*
X95990059Y-85231904D01*
X95990059Y-85231904D02*
X95942621Y-85103822D01*
X95942621Y-85103822D02*
X95913104Y-84983647D01*
X95913104Y-84983647D02*
X95902035Y-84874013D01*
X95902035Y-84874013D02*
X95909415Y-84777556D01*
X95909415Y-84777556D02*
X95933661Y-84696912D01*
X95933661Y-84696912D02*
X95974773Y-84632608D01*
X95974773Y-84632608D02*
X96031699Y-84585697D01*
X96031699Y-84585697D02*
X96102328Y-84556707D01*
X96102328Y-84556707D02*
X96184554Y-84544057D01*
X96184554Y-84544057D02*
X96277321Y-84547747D01*
X96277321Y-84547747D02*
X96378521Y-84565668D01*
X96378521Y-84565668D02*
X96484992Y-84596239D01*
X96484992Y-84596239D02*
X96707423Y-84690060D01*
X96707423Y-84690060D02*
X96927745Y-84817088D01*
X96927745Y-84817088D02*
X97133308Y-84965726D01*
X97133308Y-84965726D02*
X97315153Y-85125433D01*
X97315153Y-85125433D02*
X97469062Y-85287775D01*
X97469062Y-85287775D02*
X97596617Y-85445374D01*
X97596617Y-85445374D02*
X97700453Y-85592958D01*
X97700453Y-85592958D02*
X97782678Y-85728419D01*
X97782678Y-85728419D02*
X97843820Y-85850176D01*
X97843820Y-85850176D02*
X97749472Y-85736326D01*
X97749472Y-85736326D02*
X97643527Y-85619840D01*
X97643527Y-85619840D02*
X97525460Y-85500718D01*
X97525460Y-85500718D02*
X97394216Y-85382651D01*
X97394216Y-85382651D02*
X97249794Y-85271963D01*
X97249794Y-85271963D02*
X97093250Y-85176033D01*
X97093250Y-85176033D02*
X96929326Y-85103822D01*
X96929326Y-85103822D02*
X96848682Y-85079049D01*
X96848682Y-85079049D02*
X96770673Y-85062710D01*
X96770673Y-85062710D02*
X96698462Y-85056385D01*
X96698462Y-85056385D02*
X96632577Y-85060074D01*
X96632577Y-85060074D02*
X96576178Y-85074306D01*
X96576178Y-85074306D02*
X96529795Y-85098552D01*
X96529795Y-85098552D02*
X96495007Y-85133339D01*
X96495007Y-85133339D02*
X96472870Y-85177615D01*
X96472870Y-85177615D02*
X96463382Y-85230850D01*
X96463382Y-85230850D02*
X96466017Y-85290411D01*
X96466017Y-85290411D02*
X96479722Y-85354715D01*
X96479722Y-85354715D02*
X96503441Y-85421128D01*
X96503441Y-85421128D02*
X96574070Y-85551318D01*
X96574070Y-85551318D02*
X96662093Y-85667804D01*
X96662093Y-85667804D02*
X96754860Y-85768478D01*
X96754860Y-85768478D02*
X96940395Y-85954539D01*
X96940395Y-85954539D02*
X96994158Y-86004612D01*
X91412803Y-84999611D02*
X91468588Y-84911504D01*
X93342462Y-83535590D02*
X93342462Y-85020940D01*
X93342462Y-85020940D02*
X93101931Y-85020940D01*
X93101931Y-85020940D02*
X93101931Y-84100985D01*
X93101931Y-84100985D02*
X92417912Y-85040301D01*
X92417912Y-85040301D02*
X92316023Y-85040301D01*
X92316023Y-85040301D02*
X92316023Y-83535590D01*
X92316023Y-83535590D02*
X92556390Y-83535590D01*
X92556390Y-83535590D02*
X92556390Y-84431263D01*
X92556390Y-84431263D02*
X93222197Y-83535590D01*
X93222197Y-83535590D02*
X93342462Y-83535590D01*
X91582618Y-85004205D02*
X91730399Y-85039732D01*
X91730399Y-85039732D02*
X91752434Y-85040301D01*
X91752434Y-85040301D02*
X91900981Y-85018315D01*
X91900981Y-85018315D02*
X92013966Y-84952522D01*
X92013966Y-84952522D02*
X92093543Y-84822589D01*
X92093543Y-84822589D02*
X92109292Y-84703788D01*
X92109292Y-84703788D02*
X92083585Y-84554566D01*
X92083585Y-84554566D02*
X91999052Y-84429606D01*
X91999052Y-84429606D02*
X91975080Y-84408949D01*
X91975080Y-84408949D02*
X91836047Y-84336270D01*
X91836047Y-84336270D02*
X91682383Y-84306367D01*
X91682383Y-84306367D02*
X91593611Y-84302630D01*
X91593611Y-84302630D02*
X91493691Y-84317725D01*
X91493691Y-84317725D02*
X91551157Y-84174120D01*
X91551157Y-84174120D02*
X91695721Y-84126999D01*
X91695721Y-84126999D02*
X91723557Y-84126252D01*
X91723557Y-84126252D02*
X91875759Y-84144862D01*
X91875759Y-84144862D02*
X91950469Y-84173833D01*
X91950469Y-84173833D02*
X92002480Y-83977274D01*
X92002480Y-83977274D02*
X91857353Y-83928260D01*
X91857353Y-83928260D02*
X91707150Y-83914434D01*
X91707150Y-83914434D02*
X91548164Y-83930345D01*
X91548164Y-83930345D02*
X91407367Y-83989082D01*
X91407367Y-83989082D02*
X91361777Y-84027480D01*
X91252176Y-84455546D02*
X91252176Y-84687544D01*
X91252176Y-84687544D02*
X91238528Y-84837148D01*
X91238528Y-84837148D02*
X91169483Y-84960233D01*
X91235769Y-85027503D02*
X91319446Y-85040301D01*
X91319446Y-85040301D02*
X91412803Y-84999611D01*
X97482239Y-87256441D02*
X97810087Y-87428271D01*
X97810087Y-87428271D02*
X98150057Y-87586397D01*
X98150057Y-87586397D02*
X98501623Y-87730819D01*
X91468588Y-84911504D02*
X91582618Y-85004205D01*
X98501623Y-87730819D02*
X97991404Y-87531053D01*
X97038960Y-87088301D02*
X96598316Y-86845841D01*
X96598316Y-86845841D02*
X96183499Y-86588624D01*
X96183499Y-86588624D02*
X95796618Y-86317701D01*
X95796618Y-86317701D02*
X95442417Y-86032548D01*
X95442417Y-86032548D02*
X95279020Y-85884964D01*
X90277584Y-86661011D02*
X90419015Y-86616383D01*
X90419015Y-86616383D02*
X90555318Y-86682153D01*
X90555318Y-86682153D02*
X90567665Y-86696450D01*
X90567665Y-86696450D02*
X90628577Y-86836432D01*
X90628577Y-86836432D02*
X90632638Y-86892025D01*
X90632638Y-86892025D02*
X90632638Y-87510087D01*
X90632638Y-87510087D02*
X90873004Y-87510087D01*
X90873004Y-87510087D02*
X90873004Y-86424910D01*
X90873004Y-86424910D02*
X90632638Y-86424910D01*
X90632638Y-86424910D02*
X90632638Y-86524174D01*
X90632638Y-86524174D02*
X90506525Y-86430846D01*
X90506525Y-86430846D02*
X90364215Y-86404565D01*
X90364215Y-86404565D02*
X90212027Y-86426853D01*
X90212027Y-86426853D02*
X90175695Y-86444106D01*
X90175695Y-86444106D02*
X90277584Y-86661011D01*
X90328611Y-85020940D02*
X90328611Y-84929716D01*
X90328611Y-84929716D02*
X90463496Y-85005771D01*
X90463496Y-85005771D02*
X90469057Y-85007814D01*
X90469057Y-85007814D02*
X90619418Y-85040015D01*
X90619418Y-85040015D02*
X90633622Y-85040301D01*
X90633622Y-85040301D02*
X90790583Y-85015202D01*
X90790583Y-85015202D02*
X90913515Y-84926993D01*
X90913515Y-84926993D02*
X90979685Y-84775324D01*
X90979685Y-84775324D02*
X90992285Y-84638979D01*
X90992285Y-84638979D02*
X90992285Y-83934779D01*
X90992285Y-83934779D02*
X90751919Y-83934779D01*
X90751919Y-83934779D02*
X90751919Y-84619782D01*
X90751919Y-84619782D02*
X90712784Y-84769582D01*
X90712784Y-84769582D02*
X90573900Y-84828483D01*
X90573900Y-84828483D02*
X90426363Y-84786595D01*
X90426363Y-84786595D02*
X90421968Y-84783855D01*
X90421968Y-84783855D02*
X90328611Y-84680489D01*
X90328611Y-84680489D02*
X90328611Y-83934779D01*
X90328611Y-83934779D02*
X90088081Y-83934779D01*
X90088081Y-83934779D02*
X90088081Y-85020940D01*
X90088081Y-85020940D02*
X90328611Y-85020940D01*
X88982723Y-85019956D02*
X88739239Y-85019956D01*
X88739239Y-85019956D02*
X88739239Y-83934779D01*
X88417985Y-83530504D02*
X88177454Y-83469633D01*
X88739239Y-83934779D02*
X89114309Y-83934779D01*
X89114309Y-84142495D02*
X88982723Y-84142495D01*
X88982723Y-84142495D02*
X88982723Y-85019956D01*
X89114309Y-83934779D02*
X89114309Y-84142495D01*
X88177454Y-83469633D02*
X88177454Y-84689677D01*
X88177454Y-84689677D02*
X88152545Y-84842120D01*
X88152545Y-84842120D02*
X88063916Y-84928731D01*
X88063916Y-84928731D02*
X88178043Y-85029394D01*
X88178043Y-85029394D02*
X88254568Y-85040301D01*
X88254568Y-85040301D02*
X88386706Y-84964610D01*
X88386706Y-84964610D02*
X88417825Y-84815800D01*
X88417825Y-84815800D02*
X88417985Y-84801083D01*
X88417985Y-84801083D02*
X88417985Y-83530504D01*
X94157247Y-86104640D02*
X94260120Y-86322529D01*
X94236166Y-87151424D02*
X94119674Y-87364226D01*
X94119674Y-87364226D02*
X94241725Y-87461704D01*
X94241725Y-87461704D02*
X94397394Y-87518664D01*
X94397394Y-87518664D02*
X94549765Y-87535187D01*
X94549765Y-87535187D02*
X94568085Y-87535354D01*
X94568085Y-87535354D02*
X94723773Y-87519188D01*
X94723773Y-87519188D02*
X94872285Y-87463271D01*
X94872285Y-87463271D02*
X94995032Y-87367344D01*
X94995032Y-87367344D02*
X95026832Y-87330755D01*
X95026832Y-87330755D02*
X95113119Y-87188256D01*
X95113119Y-87188256D02*
X95163430Y-87035160D01*
X95163430Y-87035160D02*
X95186421Y-86879293D01*
X95186421Y-86879293D02*
X95190412Y-86772416D01*
X95190412Y-86772416D02*
X95179088Y-86614508D01*
X95179088Y-86614508D02*
X95139266Y-86452988D01*
X95139266Y-86452988D02*
X95070746Y-86308563D01*
X95070746Y-86308563D02*
X95009112Y-86221788D01*
X95009112Y-86221788D02*
X94899064Y-86114716D01*
X94899064Y-86114716D02*
X94757974Y-86036845D01*
X94757974Y-86036845D02*
X94597080Y-86002236D01*
X94597080Y-86002236D02*
X94544951Y-86000290D01*
X94544951Y-86000290D02*
X94389753Y-86012620D01*
X94389753Y-86012620D02*
X94235937Y-86058986D01*
X94235937Y-86058986D02*
X94157247Y-86104640D01*
X94260120Y-86322529D02*
X94395511Y-86248963D01*
X94395511Y-86248963D02*
X94529528Y-86234422D01*
X94529528Y-86234422D02*
X94680620Y-86268598D01*
X94680620Y-86268598D02*
X94803823Y-86371127D01*
X94803823Y-86371127D02*
X94818132Y-86389962D01*
X94818132Y-86389962D02*
X94890982Y-86529975D01*
X94890982Y-86529975D02*
X94925293Y-86683388D01*
X94925293Y-86683388D02*
X94930685Y-86783573D01*
X94930685Y-86783573D02*
X94918354Y-86935687D01*
X94918354Y-86935687D02*
X94871988Y-87085479D01*
X94871988Y-87085479D02*
X94826335Y-87161596D01*
X94826335Y-87161596D02*
X94713148Y-87261933D01*
X94713148Y-87261933D02*
X94558562Y-87301249D01*
X94558562Y-87301249D02*
X94547740Y-87301386D01*
X94547740Y-87301386D02*
X94390107Y-87272664D01*
X94390107Y-87272664D02*
X94265637Y-87186555D01*
X94265637Y-87186555D02*
X94236166Y-87151424D01*
X93749362Y-86964873D02*
X93734039Y-87121859D01*
X93734039Y-87121859D02*
X93662911Y-87264479D01*
X93662911Y-87264479D02*
X93519169Y-87323349D01*
X93519169Y-87323349D02*
X93504074Y-87323700D01*
X93504074Y-87323700D02*
X93361599Y-87271232D01*
X93361599Y-87271232D02*
X93325727Y-87230507D01*
X93325727Y-87230507D02*
X93269044Y-87082996D01*
X93269044Y-87082996D02*
X93259769Y-86964873D01*
X93259769Y-86964873D02*
X93275053Y-86810229D01*
X93275053Y-86810229D02*
X93345942Y-86669682D01*
X93345942Y-86669682D02*
X93489053Y-86611642D01*
X93489053Y-86611642D02*
X93504074Y-86611297D01*
X93504074Y-86611297D02*
X93646985Y-86663763D01*
X93646985Y-86663763D02*
X93683077Y-86704490D01*
X93683077Y-86704490D02*
X93740069Y-86849924D01*
X93740069Y-86849924D02*
X93749362Y-86964873D01*
X86026790Y-86661011D02*
X86168220Y-86616383D01*
X86168220Y-86616383D02*
X86304279Y-86682153D01*
X86304279Y-86682153D02*
X86316542Y-86696450D01*
X86316542Y-86696450D02*
X86377454Y-86836432D01*
X86377454Y-86836432D02*
X86381515Y-86892025D01*
X86381515Y-86892025D02*
X86381515Y-87510087D01*
X86381515Y-87510087D02*
X86622045Y-87510087D01*
X86622045Y-87510087D02*
X86622045Y-86424910D01*
X86622045Y-86424910D02*
X86381515Y-86424910D01*
X86381515Y-86424910D02*
X86381515Y-86524174D01*
X86381515Y-86524174D02*
X86255590Y-86430846D01*
X86255590Y-86430846D02*
X86113092Y-86404565D01*
X86113092Y-86404565D02*
X85961042Y-86426853D01*
X85961042Y-86426853D02*
X85924736Y-86444106D01*
X85924736Y-86444106D02*
X86026790Y-86661011D01*
X88293946Y-86020635D02*
X88053415Y-85959764D01*
X88053415Y-85959764D02*
X88053415Y-87179808D01*
X88053415Y-87179808D02*
X88028506Y-87332251D01*
X88028506Y-87332251D02*
X87939877Y-87418862D01*
X87939877Y-87418862D02*
X88054004Y-87519525D01*
X88054004Y-87519525D02*
X88130529Y-87530432D01*
X88130529Y-87530432D02*
X88262667Y-87454741D01*
X88262667Y-87454741D02*
X88293786Y-87305931D01*
X88293786Y-87305931D02*
X88293946Y-87291214D01*
X88293946Y-87291214D02*
X88293946Y-86020635D01*
X90098745Y-86964873D02*
X90082640Y-86805151D01*
X90082640Y-86805151D02*
X90028370Y-86655679D01*
X90028370Y-86655679D02*
X89962565Y-86560598D01*
X89962565Y-86560598D02*
X89837654Y-86459572D01*
X89837654Y-86459572D02*
X89683951Y-86410050D01*
X89683951Y-86410050D02*
X89603246Y-86404565D01*
X89603246Y-86404565D02*
X89442025Y-86425667D01*
X89442025Y-86425667D02*
X89300586Y-86496116D01*
X89300586Y-86496116D02*
X89239004Y-86554527D01*
X89239004Y-86554527D02*
X89159818Y-86682575D01*
X89159818Y-86682575D02*
X89119337Y-86827160D01*
X89119337Y-86827160D02*
X89109059Y-86964873D01*
X89109059Y-86964873D02*
X89121941Y-87116687D01*
X89121941Y-87116687D02*
X89171408Y-87271327D01*
X89171408Y-87271327D02*
X89240973Y-87377352D01*
X89240973Y-87377352D02*
X89364875Y-87476465D01*
X89364875Y-87476465D02*
X89507511Y-87523106D01*
X89507511Y-87523106D02*
X89603246Y-87530432D01*
X89603246Y-87530432D02*
X89752325Y-87512168D01*
X89752325Y-87512168D02*
X89896661Y-87443493D01*
X89896661Y-87443493D02*
X89968307Y-87375875D01*
X89968307Y-87375875D02*
X90047792Y-87245629D01*
X90047792Y-87245629D02*
X90088427Y-87101064D01*
X90088427Y-87101064D02*
X90098745Y-86964873D01*
X88875091Y-86020635D02*
X88634561Y-85959764D01*
X88634561Y-85959764D02*
X88634561Y-87179808D01*
X88634561Y-87179808D02*
X88609651Y-87332251D01*
X88609651Y-87332251D02*
X88521022Y-87418862D01*
X88521022Y-87418862D02*
X88635149Y-87519525D01*
X88635149Y-87519525D02*
X88711675Y-87530432D01*
X88711675Y-87530432D02*
X88843812Y-87454741D01*
X88843812Y-87454741D02*
X88874931Y-87305931D01*
X88874931Y-87305931D02*
X88875091Y-87291214D01*
X88875091Y-87291214D02*
X88875091Y-86020635D01*
X93999573Y-86964873D02*
X93983468Y-86805151D01*
X93983468Y-86805151D02*
X93929198Y-86655679D01*
X93929198Y-86655679D02*
X93863393Y-86560598D01*
X93863393Y-86560598D02*
X93738434Y-86459572D01*
X93738434Y-86459572D02*
X93584718Y-86410050D01*
X93584718Y-86410050D02*
X93504074Y-86404565D01*
X93504074Y-86404565D02*
X93342849Y-86425667D01*
X93342849Y-86425667D02*
X93201370Y-86496116D01*
X93201370Y-86496116D02*
X93139504Y-86554527D01*
X93139504Y-86554527D02*
X93060442Y-86682575D01*
X93060442Y-86682575D02*
X93019998Y-86827160D01*
X93019998Y-86827160D02*
X93009723Y-86964873D01*
X93009723Y-86964873D02*
X93022648Y-87116687D01*
X93022648Y-87116687D02*
X93072252Y-87271327D01*
X93072252Y-87271327D02*
X93141965Y-87377352D01*
X93141965Y-87377352D02*
X93265500Y-87476465D01*
X93265500Y-87476465D02*
X93408172Y-87523106D01*
X93408172Y-87523106D02*
X93504074Y-87530432D01*
X93504074Y-87530432D02*
X93653153Y-87512168D01*
X93653153Y-87512168D02*
X93797489Y-87443493D01*
X93797489Y-87443493D02*
X93869135Y-87375875D01*
X93869135Y-87375875D02*
X93948620Y-87245629D01*
X93948620Y-87245629D02*
X93989255Y-87101064D01*
X93989255Y-87101064D02*
X93999573Y-86964873D01*
X91617730Y-86628524D02*
X91737011Y-86628524D01*
X91737011Y-86628524D02*
X91737011Y-86424910D01*
X91737011Y-86424910D02*
X91617730Y-86424910D01*
X91617730Y-86424910D02*
X91617730Y-86204068D01*
X91617730Y-86204068D02*
X91377200Y-86110711D01*
X91377200Y-86110711D02*
X91377200Y-86424910D01*
X91377200Y-86424910D02*
X91094338Y-86424910D01*
X91094338Y-86424910D02*
X91094338Y-86628524D01*
X91094338Y-86628524D02*
X91377200Y-86628524D01*
X91377200Y-86628524D02*
X91377200Y-87103843D01*
X91377200Y-87103843D02*
X91350709Y-87255333D01*
X91350709Y-87255333D02*
X91342580Y-87268408D01*
X91342580Y-87268408D02*
X91221330Y-87316481D01*
X91221330Y-87316481D02*
X91073892Y-87275811D01*
X91073892Y-87275811D02*
X91059719Y-87266931D01*
X91059719Y-87266931D02*
X91059719Y-87499914D01*
X91059719Y-87499914D02*
X91208456Y-87527451D01*
X91208456Y-87527451D02*
X91298281Y-87530432D01*
X91298281Y-87530432D02*
X91448923Y-87501366D01*
X91448923Y-87501366D02*
X91534873Y-87438715D01*
X91534873Y-87438715D02*
X91604071Y-87302425D01*
X91604071Y-87302425D02*
X91617730Y-87177675D01*
X91617730Y-87177675D02*
X91617730Y-86628524D01*
X91491722Y-84509197D02*
X91584095Y-84496072D01*
X91584095Y-84496072D02*
X91734236Y-84515289D01*
X91734236Y-84515289D02*
X91855145Y-84616085D01*
X91855145Y-84616085D02*
X91868761Y-84692631D01*
X91868761Y-84692631D02*
X91792864Y-84824383D01*
X91792864Y-84824383D02*
X91708134Y-84838655D01*
X91708134Y-84838655D02*
X91560218Y-84794967D01*
X91560218Y-84794967D02*
X91493625Y-84651325D01*
X91493625Y-84651325D02*
X91491722Y-84610594D01*
X91491722Y-84610594D02*
X91491722Y-84509197D01*
X86777914Y-84950061D02*
X86692268Y-84748415D01*
X86692268Y-84748415D02*
X86554475Y-84823729D01*
X86554475Y-84823729D02*
X86448785Y-84838655D01*
X86448785Y-84838655D02*
X86313284Y-84769030D01*
X86313284Y-84769030D02*
X86308338Y-84733157D01*
X86308338Y-84733157D02*
X86350669Y-84631924D01*
X86350669Y-84631924D02*
X86485798Y-84551920D01*
X86485798Y-84551920D02*
X86515070Y-84538731D01*
X86515070Y-84538731D02*
X86655679Y-84456735D01*
X86655679Y-84456735D02*
X86755547Y-84334358D01*
X86755547Y-84334358D02*
X86781524Y-84212390D01*
X86781524Y-84212390D02*
X86741835Y-84060688D01*
X86741835Y-84060688D02*
X86679799Y-83993025D01*
X86679799Y-83993025D02*
X86538676Y-83927420D01*
X86538676Y-83927420D02*
X86418923Y-83914434D01*
X86418923Y-83914434D02*
X86263177Y-83933486D01*
X86263177Y-83933486D02*
X86117030Y-83990564D01*
X86117030Y-83990564D02*
X86186268Y-84187123D01*
X86186268Y-84187123D02*
X86323763Y-84123005D01*
X86323763Y-84123005D02*
X86405469Y-84116079D01*
X86405469Y-84116079D02*
X86530369Y-84202711D01*
X86530369Y-84202711D02*
X86531477Y-84221578D01*
X86531477Y-84221578D02*
X86490131Y-84296559D01*
X86313261Y-84386143D02*
X86178937Y-84461398D01*
X86178937Y-84461398D02*
X86118014Y-84522487D01*
X86118014Y-84522487D02*
X86061161Y-84667893D01*
X86061161Y-84667893D02*
X86058292Y-84715929D01*
X86058292Y-84715929D02*
X86091931Y-84865429D01*
X86091931Y-84865429D02*
X86164611Y-84953506D01*
X86164611Y-84953506D02*
X86299066Y-85021248D01*
X86299066Y-85021248D02*
X86453707Y-85040301D01*
X86453707Y-85040301D02*
X86606696Y-85025587D01*
X86606696Y-85025587D02*
X86618764Y-85022417D01*
X86618764Y-85022417D02*
X86759960Y-84959980D01*
X86759960Y-84959980D02*
X86777914Y-84950061D01*
X87561854Y-86854452D02*
X87055853Y-86854452D01*
X87055853Y-86854452D02*
X87102783Y-86709402D01*
X87102783Y-86709402D02*
X87228571Y-86624757D01*
X87228571Y-86624757D02*
X87305900Y-86616383D01*
X87305900Y-86616383D02*
X87456157Y-86661968D01*
X87456157Y-86661968D02*
X87542367Y-86785885D01*
X87542367Y-86785885D02*
X87561854Y-86854452D01*
X87214676Y-85020940D02*
X87214676Y-84929716D01*
X87214676Y-84929716D02*
X87349590Y-85005771D01*
X87349590Y-85005771D02*
X87355122Y-85007814D01*
X87355122Y-85007814D02*
X87505609Y-85040015D01*
X87505609Y-85040015D02*
X87519851Y-85040301D01*
X87519851Y-85040301D02*
X87676812Y-85015202D01*
X87676812Y-85015202D02*
X87799744Y-84926993D01*
X87799744Y-84926993D02*
X87865914Y-84775324D01*
X87865914Y-84775324D02*
X87878514Y-84638979D01*
X87878514Y-84638979D02*
X87878514Y-83934779D01*
X87878514Y-83934779D02*
X87637983Y-83934779D01*
X87637983Y-83934779D02*
X87637983Y-84619782D01*
X87637983Y-84619782D02*
X87598980Y-84769582D01*
X87598980Y-84769582D02*
X87460129Y-84828483D01*
X87460129Y-84828483D02*
X87312606Y-84786595D01*
X87312606Y-84786595D02*
X87308197Y-84783855D01*
X87308197Y-84783855D02*
X87214676Y-84680489D01*
X87214676Y-84680489D02*
X87214676Y-83934779D01*
X87214676Y-83934779D02*
X86974473Y-83934779D01*
X86974473Y-83934779D02*
X86974473Y-85020940D01*
X86974473Y-85020940D02*
X87214676Y-85020940D01*
X92154412Y-87510087D02*
X92154412Y-86882837D01*
X92154412Y-86882837D02*
X92176126Y-86732994D01*
X92176126Y-86732994D02*
X92204946Y-86680207D01*
X92204946Y-86680207D02*
X92342228Y-86617382D01*
X92342228Y-86617382D02*
X92369839Y-86616383D01*
X92369839Y-86616383D02*
X92482885Y-86647885D01*
X92576735Y-86725819D02*
X92576735Y-87510087D01*
X92576735Y-87510087D02*
X92817101Y-87510087D01*
X92817101Y-87510087D02*
X92817101Y-86424910D01*
X92817101Y-86424910D02*
X92644005Y-86424910D01*
X92644005Y-86424910D02*
X92599705Y-86526143D01*
X92599705Y-86526143D02*
X92478311Y-86434959D01*
X92478311Y-86434959D02*
X92322142Y-86404683D01*
X92322142Y-86404683D02*
X92310281Y-86404565D01*
X92310281Y-86404565D02*
X92154999Y-86430072D01*
X92154999Y-86430072D02*
X92026920Y-86513432D01*
X92026920Y-86513432D02*
X92020200Y-86520564D01*
X92020200Y-86520564D02*
X91940460Y-86659615D01*
X91940460Y-86659615D02*
X91914296Y-86818837D01*
X91914296Y-86818837D02*
X91913881Y-86844444D01*
X91913881Y-86844444D02*
X91913881Y-87510087D01*
X91913881Y-87510087D02*
X92154412Y-87510087D01*
X89791929Y-84138393D02*
X89911210Y-84138393D01*
X89911210Y-84138393D02*
X89911210Y-83934779D01*
X89911210Y-83934779D02*
X89791929Y-83934779D01*
X89791929Y-83934779D02*
X89791929Y-83713937D01*
X89791929Y-83713937D02*
X89551399Y-83620580D01*
X89551399Y-83620580D02*
X89551399Y-83934779D01*
X89551399Y-83934779D02*
X89268538Y-83934779D01*
X89268538Y-83934779D02*
X89268538Y-84138393D01*
X89268538Y-84138393D02*
X89551399Y-84138393D01*
X89551399Y-84138393D02*
X89551399Y-84613712D01*
X89551399Y-84613712D02*
X89524798Y-84765202D01*
X89524798Y-84765202D02*
X89516615Y-84778277D01*
X89516615Y-84778277D02*
X89395530Y-84826350D01*
X89395530Y-84826350D02*
X89248214Y-84785680D01*
X89248214Y-84785680D02*
X89234082Y-84776800D01*
X89234082Y-84776800D02*
X89234082Y-85009783D01*
X89234082Y-85009783D02*
X89382746Y-85037320D01*
X89382746Y-85037320D02*
X89472644Y-85040301D01*
X89472644Y-85040301D02*
X89622985Y-85011235D01*
X89622985Y-85011235D02*
X89708909Y-84948584D01*
X89708909Y-84948584D02*
X89778259Y-84812294D01*
X89778259Y-84812294D02*
X89791929Y-84687544D01*
X89791929Y-84687544D02*
X89791929Y-84138393D01*
X89848534Y-86964873D02*
X89833211Y-87121859D01*
X89833211Y-87121859D02*
X89762083Y-87264479D01*
X89762083Y-87264479D02*
X89618341Y-87323349D01*
X89618341Y-87323349D02*
X89603246Y-87323700D01*
X89603246Y-87323700D02*
X89460656Y-87271232D01*
X89460656Y-87271232D02*
X89424735Y-87230507D01*
X89424735Y-87230507D02*
X89368277Y-87082996D01*
X89368277Y-87082996D02*
X89359106Y-86964873D01*
X89359106Y-86964873D02*
X89374364Y-86810229D01*
X89374364Y-86810229D02*
X89445174Y-86669682D01*
X89445174Y-86669682D02*
X89588225Y-86611642D01*
X89588225Y-86611642D02*
X89603246Y-86611297D01*
X89603246Y-86611297D02*
X89746088Y-86663763D01*
X89746088Y-86663763D02*
X89782249Y-86704490D01*
X89782249Y-86704490D02*
X89839241Y-86849924D01*
X89839241Y-86849924D02*
X89848534Y-86964873D01*
X88858684Y-83514261D02*
X88759912Y-83557248D01*
X88759912Y-83557248D02*
X88719222Y-83661106D01*
X88719222Y-83661106D02*
X88759912Y-83764964D01*
X88759912Y-83764964D02*
X88858684Y-83808115D01*
X88858684Y-83808115D02*
X88957128Y-83764964D01*
X88957128Y-83764964D02*
X88998146Y-83661106D01*
X88998146Y-83661106D02*
X88957128Y-83557248D01*
X88957128Y-83557248D02*
X88858684Y-83514261D01*
X86834683Y-87044941D02*
X87570385Y-87044941D01*
X87485724Y-87246586D02*
X87345958Y-87312925D01*
X87345958Y-87312925D02*
X87276039Y-87318614D01*
X87276039Y-87318614D02*
X87123589Y-87293167D01*
X87123589Y-87293167D02*
X87025992Y-87228374D01*
X87025992Y-87228374D02*
X86932799Y-87421980D01*
X86932799Y-87421980D02*
X87067847Y-87496071D01*
X87067847Y-87496071D02*
X87221696Y-87526609D01*
X87221696Y-87526609D02*
X87311807Y-87530432D01*
X87311807Y-87530432D02*
X87462177Y-87513222D01*
X87462177Y-87513222D02*
X87609813Y-87448546D01*
X87609813Y-87448546D02*
X87684580Y-87384899D01*
X87684580Y-87384899D02*
X87767964Y-87259746D01*
X87767964Y-87259746D02*
X87812864Y-87102165D01*
X87812864Y-87102165D02*
X87821417Y-86979147D01*
X87821417Y-86979147D02*
X87806784Y-86828386D01*
X87806784Y-86828386D02*
X87756788Y-86684534D01*
X87756788Y-86684534D02*
X87671126Y-86563715D01*
X87671126Y-86563715D02*
X87549717Y-86466781D01*
X87549717Y-86466781D02*
X87399132Y-86412192D01*
X87399132Y-86412192D02*
X87309838Y-86404565D01*
X87309838Y-86404565D02*
X87154206Y-86424413D01*
X87154206Y-86424413D02*
X87013534Y-86490630D01*
X87013534Y-86490630D02*
X86949863Y-86545503D01*
X86949863Y-86545503D02*
X86862163Y-86672625D01*
X86862163Y-86672625D02*
X86819111Y-86825189D01*
X86819111Y-86825189D02*
X86814338Y-86904166D01*
X86814338Y-86904166D02*
X86834683Y-87044941D01*
D10*
X91340000Y-84040000D02*
X91300000Y-84130000D01*
X91300000Y-84130000D02*
X91260000Y-84240000D01*
X91260000Y-84240000D02*
X91260000Y-84430000D01*
%TO.C,C1*%
X111260000Y-86634420D02*
X111260000Y-86915580D01*
X110240000Y-86634420D02*
X110240000Y-86915580D01*
%TO.C,C4*%
X75921580Y-83362000D02*
X75640420Y-83362000D01*
X75921580Y-82342000D02*
X75640420Y-82342000D01*
%TO.C,C5*%
X78840420Y-82342000D02*
X79121580Y-82342000D01*
X78840420Y-83362000D02*
X79121580Y-83362000D01*
%TO.C,C9*%
X79520580Y-93240000D02*
X79239420Y-93240000D01*
X79520580Y-94260000D02*
X79239420Y-94260000D01*
%TO.C,C11*%
X79540580Y-96130001D02*
X79259420Y-96130001D01*
X79540580Y-95110001D02*
X79259420Y-95110001D01*
%TO.C,TP6*%
X101330000Y-88490000D02*
G75*
G03*
X101330000Y-88490000I-700000J0D01*
G01*
%TO.C,TP7*%
X102390000Y-84920000D02*
G75*
G03*
X102390000Y-84920000I-700000J0D01*
G01*
%TO.C,U3*%
D13*
X77801904Y-87742380D02*
X77801904Y-88551904D01*
X77754285Y-88647142D01*
X77706666Y-88694761D01*
X77611428Y-88742380D01*
X77420952Y-88742380D01*
X77325714Y-88694761D01*
X77278095Y-88647142D01*
X77230476Y-88551904D01*
X77230476Y-87742380D01*
X76849523Y-87742380D02*
X76230476Y-87742380D01*
X76563809Y-88123333D01*
X76420952Y-88123333D01*
X76325714Y-88170952D01*
X76278095Y-88218571D01*
X76230476Y-88313809D01*
X76230476Y-88551904D01*
X76278095Y-88647142D01*
X76325714Y-88694761D01*
X76420952Y-88742380D01*
X76706666Y-88742380D01*
X76801904Y-88694761D01*
X76849523Y-88647142D01*
%TO.C,F1*%
D14*
X71816666Y-82814285D02*
X71983333Y-82814285D01*
X71983333Y-83076190D02*
X71983333Y-82576190D01*
X71745238Y-82576190D01*
X71292857Y-83076190D02*
X71578571Y-83076190D01*
X71435714Y-83076190D02*
X71435714Y-82576190D01*
X71483333Y-82647619D01*
X71530952Y-82695238D01*
X71578571Y-82719047D01*
%TO.C,R1*%
D15*
X102891666Y-91363095D02*
X102975000Y-91244047D01*
X103034523Y-91363095D02*
X103034523Y-91113095D01*
X102939285Y-91113095D01*
X102915476Y-91125000D01*
X102903571Y-91136904D01*
X102891666Y-91160714D01*
X102891666Y-91196428D01*
X102903571Y-91220238D01*
X102915476Y-91232142D01*
X102939285Y-91244047D01*
X103034523Y-91244047D01*
X102653571Y-91363095D02*
X102796428Y-91363095D01*
X102725000Y-91363095D02*
X102725000Y-91113095D01*
X102748809Y-91148809D01*
X102772619Y-91172619D01*
X102796428Y-91184523D01*
%TO.C,U2*%
D13*
X107641904Y-88322380D02*
X107641904Y-89131904D01*
X107594285Y-89227142D01*
X107546666Y-89274761D01*
X107451428Y-89322380D01*
X107260952Y-89322380D01*
X107165714Y-89274761D01*
X107118095Y-89227142D01*
X107070476Y-89131904D01*
X107070476Y-88322380D01*
X106641904Y-88417619D02*
X106594285Y-88370000D01*
X106499047Y-88322380D01*
X106260952Y-88322380D01*
X106165714Y-88370000D01*
X106118095Y-88417619D01*
X106070476Y-88512857D01*
X106070476Y-88608095D01*
X106118095Y-88750952D01*
X106689523Y-89322380D01*
X106070476Y-89322380D01*
%TO.C,C1*%
D15*
X110766666Y-86864285D02*
X110778571Y-86876190D01*
X110814285Y-86888095D01*
X110838095Y-86888095D01*
X110873809Y-86876190D01*
X110897619Y-86852380D01*
X110909523Y-86828571D01*
X110921428Y-86780952D01*
X110921428Y-86745238D01*
X110909523Y-86697619D01*
X110897619Y-86673809D01*
X110873809Y-86650000D01*
X110838095Y-86638095D01*
X110814285Y-86638095D01*
X110778571Y-86650000D01*
X110766666Y-86661904D01*
X110528571Y-86888095D02*
X110671428Y-86888095D01*
X110600000Y-86888095D02*
X110600000Y-86638095D01*
X110623809Y-86673809D01*
X110647619Y-86697619D01*
X110671428Y-86709523D01*
%TO.C,C4*%
X75770285Y-82880333D02*
X75782190Y-82868428D01*
X75794095Y-82832714D01*
X75794095Y-82808904D01*
X75782190Y-82773190D01*
X75758380Y-82749380D01*
X75734571Y-82737476D01*
X75686952Y-82725571D01*
X75651238Y-82725571D01*
X75603619Y-82737476D01*
X75579809Y-82749380D01*
X75556000Y-82773190D01*
X75544095Y-82808904D01*
X75544095Y-82832714D01*
X75556000Y-82868428D01*
X75567904Y-82880333D01*
X75627428Y-83094619D02*
X75794095Y-83094619D01*
X75532190Y-83035095D02*
X75710761Y-82975571D01*
X75710761Y-83130333D01*
%TO.C,C5*%
X78990285Y-82790333D02*
X79002190Y-82778428D01*
X79014095Y-82742714D01*
X79014095Y-82718904D01*
X79002190Y-82683190D01*
X78978380Y-82659380D01*
X78954571Y-82647476D01*
X78906952Y-82635571D01*
X78871238Y-82635571D01*
X78823619Y-82647476D01*
X78799809Y-82659380D01*
X78776000Y-82683190D01*
X78764095Y-82718904D01*
X78764095Y-82742714D01*
X78776000Y-82778428D01*
X78787904Y-82790333D01*
X78764095Y-83016523D02*
X78764095Y-82897476D01*
X78883142Y-82885571D01*
X78871238Y-82897476D01*
X78859333Y-82921285D01*
X78859333Y-82980809D01*
X78871238Y-83004619D01*
X78883142Y-83016523D01*
X78906952Y-83028428D01*
X78966476Y-83028428D01*
X78990285Y-83016523D01*
X79002190Y-83004619D01*
X79014095Y-82980809D01*
X79014095Y-82921285D01*
X79002190Y-82897476D01*
X78990285Y-82885571D01*
%TO.C,C9*%
X79479285Y-93678333D02*
X79491190Y-93666428D01*
X79503095Y-93630714D01*
X79503095Y-93606904D01*
X79491190Y-93571190D01*
X79467380Y-93547380D01*
X79443571Y-93535476D01*
X79395952Y-93523571D01*
X79360238Y-93523571D01*
X79312619Y-93535476D01*
X79288809Y-93547380D01*
X79265000Y-93571190D01*
X79253095Y-93606904D01*
X79253095Y-93630714D01*
X79265000Y-93666428D01*
X79276904Y-93678333D01*
X79503095Y-93797380D02*
X79503095Y-93845000D01*
X79491190Y-93868809D01*
X79479285Y-93880714D01*
X79443571Y-93904523D01*
X79395952Y-93916428D01*
X79300714Y-93916428D01*
X79276904Y-93904523D01*
X79265000Y-93892619D01*
X79253095Y-93868809D01*
X79253095Y-93821190D01*
X79265000Y-93797380D01*
X79276904Y-93785476D01*
X79300714Y-93773571D01*
X79360238Y-93773571D01*
X79384047Y-93785476D01*
X79395952Y-93797380D01*
X79407857Y-93821190D01*
X79407857Y-93868809D01*
X79395952Y-93892619D01*
X79384047Y-93904523D01*
X79360238Y-93916428D01*
%TO.C,C11*%
X79489285Y-95429286D02*
X79501190Y-95417381D01*
X79513095Y-95381667D01*
X79513095Y-95357858D01*
X79501190Y-95322143D01*
X79477380Y-95298334D01*
X79453571Y-95286429D01*
X79405952Y-95274524D01*
X79370238Y-95274524D01*
X79322619Y-95286429D01*
X79298809Y-95298334D01*
X79275000Y-95322143D01*
X79263095Y-95357858D01*
X79263095Y-95381667D01*
X79275000Y-95417381D01*
X79286904Y-95429286D01*
X79513095Y-95667381D02*
X79513095Y-95524524D01*
X79513095Y-95595953D02*
X79263095Y-95595953D01*
X79298809Y-95572143D01*
X79322619Y-95548334D01*
X79334523Y-95524524D01*
X79513095Y-95905477D02*
X79513095Y-95762620D01*
X79513095Y-95834048D02*
X79263095Y-95834048D01*
X79298809Y-95810239D01*
X79322619Y-95786429D01*
X79334523Y-95762620D01*
%TD*%
M02*
