%TF.GenerationSoftware,KiCad,Pcbnew,(5.1.8-0-10_14)*%
%TF.CreationDate,2021-04-16T18:19:52+02:00*%
%TF.ProjectId,SimpleCANAdapter,53696d70-6c65-4434-914e-416461707465,rev?*%
%TF.SameCoordinates,Original*%
%TF.FileFunction,Paste,Top*%
%TF.FilePolarity,Positive*%
%FSLAX46Y46*%
G04 Gerber Fmt 4.6, Leading zero omitted, Abs format (unit mm)*
G04 Created by KiCad (PCBNEW (5.1.8-0-10_14)) date 2021-04-16 18:19:52*
%MOMM*%
%LPD*%
G01*
G04 APERTURE LIST*
%ADD10R,1.350000X0.400000*%
%ADD11R,1.900000X1.500000*%
%ADD12R,1.900000X1.200000*%
%ADD13R,1.200000X0.600000*%
%ADD14R,1.200000X0.350000*%
%ADD15R,1.800000X1.100000*%
%ADD16R,0.650000X1.060000*%
%ADD17R,0.800000X0.600000*%
G04 APERTURE END LIST*
D10*
%TO.C,J2*%
X71750000Y-87500000D03*
X71750000Y-88150000D03*
X71750000Y-88800000D03*
X71750000Y-89450000D03*
X71750000Y-90100000D03*
D11*
X69050000Y-87800000D03*
X69050000Y-89800000D03*
D12*
X69050000Y-85900000D03*
X69050000Y-91700000D03*
%TD*%
D13*
%TO.C,U5*%
X79230000Y-93445000D03*
X79230000Y-92175000D03*
X79230000Y-90905000D03*
X79230000Y-89635000D03*
X79230000Y-88365000D03*
X79230000Y-87095000D03*
X79230000Y-85825000D03*
X79230000Y-84555000D03*
X84830000Y-84555000D03*
X84830000Y-85825000D03*
X84830000Y-87095000D03*
X84830000Y-88365000D03*
X84830000Y-89635000D03*
X84830000Y-90905000D03*
X84830000Y-92175000D03*
X84830000Y-93445000D03*
%TD*%
%TO.C,D1*%
G36*
G01*
X74937500Y-95556250D02*
X74937500Y-95043750D01*
G75*
G02*
X75156250Y-94825000I218750J0D01*
G01*
X75593750Y-94825000D01*
G75*
G02*
X75812500Y-95043750I0J-218750D01*
G01*
X75812500Y-95556250D01*
G75*
G02*
X75593750Y-95775000I-218750J0D01*
G01*
X75156250Y-95775000D01*
G75*
G02*
X74937500Y-95556250I0J218750D01*
G01*
G37*
G36*
G01*
X76512500Y-95556250D02*
X76512500Y-95043750D01*
G75*
G02*
X76731250Y-94825000I218750J0D01*
G01*
X77168750Y-94825000D01*
G75*
G02*
X77387500Y-95043750I0J-218750D01*
G01*
X77387500Y-95556250D01*
G75*
G02*
X77168750Y-95775000I-218750J0D01*
G01*
X76731250Y-95775000D01*
G75*
G02*
X76512500Y-95556250I0J218750D01*
G01*
G37*
%TD*%
%TO.C,D2*%
G36*
G01*
X93687500Y-95505750D02*
X93687500Y-96018250D01*
G75*
G02*
X93468750Y-96237000I-218750J0D01*
G01*
X93031250Y-96237000D01*
G75*
G02*
X92812500Y-96018250I0J218750D01*
G01*
X92812500Y-95505750D01*
G75*
G02*
X93031250Y-95287000I218750J0D01*
G01*
X93468750Y-95287000D01*
G75*
G02*
X93687500Y-95505750I0J-218750D01*
G01*
G37*
G36*
G01*
X95262500Y-95505750D02*
X95262500Y-96018250D01*
G75*
G02*
X95043750Y-96237000I-218750J0D01*
G01*
X94606250Y-96237000D01*
G75*
G02*
X94387500Y-96018250I0J218750D01*
G01*
X94387500Y-95505750D01*
G75*
G02*
X94606250Y-95287000I218750J0D01*
G01*
X95043750Y-95287000D01*
G75*
G02*
X95262500Y-95505750I0J-218750D01*
G01*
G37*
%TD*%
D14*
%TO.C,J1*%
X111200000Y-90150000D03*
X111200000Y-88900000D03*
X111200000Y-87650000D03*
D15*
X114100000Y-92550000D03*
X114100000Y-85250000D03*
%TD*%
%TO.C,R2*%
G36*
G01*
X114135000Y-83225000D02*
X114135000Y-82675000D01*
G75*
G02*
X114335000Y-82475000I200000J0D01*
G01*
X114735000Y-82475000D01*
G75*
G02*
X114935000Y-82675000I0J-200000D01*
G01*
X114935000Y-83225000D01*
G75*
G02*
X114735000Y-83425000I-200000J0D01*
G01*
X114335000Y-83425000D01*
G75*
G02*
X114135000Y-83225000I0J200000D01*
G01*
G37*
G36*
G01*
X112485000Y-83225000D02*
X112485000Y-82675000D01*
G75*
G02*
X112685000Y-82475000I200000J0D01*
G01*
X113085000Y-82475000D01*
G75*
G02*
X113285000Y-82675000I0J-200000D01*
G01*
X113285000Y-83225000D01*
G75*
G02*
X113085000Y-83425000I-200000J0D01*
G01*
X112685000Y-83425000D01*
G75*
G02*
X112485000Y-83225000I0J200000D01*
G01*
G37*
%TD*%
%TO.C,R3*%
G36*
G01*
X113325000Y-96275000D02*
X112775000Y-96275000D01*
G75*
G02*
X112575000Y-96075000I0J200000D01*
G01*
X112575000Y-95675000D01*
G75*
G02*
X112775000Y-95475000I200000J0D01*
G01*
X113325000Y-95475000D01*
G75*
G02*
X113525000Y-95675000I0J-200000D01*
G01*
X113525000Y-96075000D01*
G75*
G02*
X113325000Y-96275000I-200000J0D01*
G01*
G37*
G36*
G01*
X113325000Y-94625000D02*
X112775000Y-94625000D01*
G75*
G02*
X112575000Y-94425000I0J200000D01*
G01*
X112575000Y-94025000D01*
G75*
G02*
X112775000Y-93825000I200000J0D01*
G01*
X113325000Y-93825000D01*
G75*
G02*
X113525000Y-94025000I0J-200000D01*
G01*
X113525000Y-94425000D01*
G75*
G02*
X113325000Y-94625000I-200000J0D01*
G01*
G37*
%TD*%
%TO.C,R4*%
G36*
G01*
X94326000Y-82811000D02*
X94326000Y-82261000D01*
G75*
G02*
X94526000Y-82061000I200000J0D01*
G01*
X94926000Y-82061000D01*
G75*
G02*
X95126000Y-82261000I0J-200000D01*
G01*
X95126000Y-82811000D01*
G75*
G02*
X94926000Y-83011000I-200000J0D01*
G01*
X94526000Y-83011000D01*
G75*
G02*
X94326000Y-82811000I0J200000D01*
G01*
G37*
G36*
G01*
X92676000Y-82811000D02*
X92676000Y-82261000D01*
G75*
G02*
X92876000Y-82061000I200000J0D01*
G01*
X93276000Y-82061000D01*
G75*
G02*
X93476000Y-82261000I0J-200000D01*
G01*
X93476000Y-82811000D01*
G75*
G02*
X93276000Y-83011000I-200000J0D01*
G01*
X92876000Y-83011000D01*
G75*
G02*
X92676000Y-82811000I0J200000D01*
G01*
G37*
%TD*%
%TO.C,R5*%
G36*
G01*
X72500000Y-95065000D02*
X72500000Y-95615000D01*
G75*
G02*
X72300000Y-95815000I-200000J0D01*
G01*
X71900000Y-95815000D01*
G75*
G02*
X71700000Y-95615000I0J200000D01*
G01*
X71700000Y-95065000D01*
G75*
G02*
X71900000Y-94865000I200000J0D01*
G01*
X72300000Y-94865000D01*
G75*
G02*
X72500000Y-95065000I0J-200000D01*
G01*
G37*
G36*
G01*
X74150000Y-95065000D02*
X74150000Y-95615000D01*
G75*
G02*
X73950000Y-95815000I-200000J0D01*
G01*
X73550000Y-95815000D01*
G75*
G02*
X73350000Y-95615000I0J200000D01*
G01*
X73350000Y-95065000D01*
G75*
G02*
X73550000Y-94865000I200000J0D01*
G01*
X73950000Y-94865000D01*
G75*
G02*
X74150000Y-95065000I0J-200000D01*
G01*
G37*
%TD*%
%TO.C,R6*%
G36*
G01*
X91875000Y-95525000D02*
X91875000Y-96075000D01*
G75*
G02*
X91675000Y-96275000I-200000J0D01*
G01*
X91275000Y-96275000D01*
G75*
G02*
X91075000Y-96075000I0J200000D01*
G01*
X91075000Y-95525000D01*
G75*
G02*
X91275000Y-95325000I200000J0D01*
G01*
X91675000Y-95325000D01*
G75*
G02*
X91875000Y-95525000I0J-200000D01*
G01*
G37*
G36*
G01*
X90225000Y-95525000D02*
X90225000Y-96075000D01*
G75*
G02*
X90025000Y-96275000I-200000J0D01*
G01*
X89625000Y-96275000D01*
G75*
G02*
X89425000Y-96075000I0J200000D01*
G01*
X89425000Y-95525000D01*
G75*
G02*
X89625000Y-95325000I200000J0D01*
G01*
X90025000Y-95325000D01*
G75*
G02*
X90225000Y-95525000I0J-200000D01*
G01*
G37*
%TD*%
D16*
%TO.C,U4*%
X75700000Y-89600000D03*
X76650000Y-89600000D03*
X74750000Y-89600000D03*
X74750000Y-87400000D03*
X75700000Y-87400000D03*
X76650000Y-87400000D03*
%TD*%
%TO.C,C7*%
G36*
G01*
X111000000Y-95350000D02*
X111500000Y-95350000D01*
G75*
G02*
X111725000Y-95575000I0J-225000D01*
G01*
X111725000Y-96025000D01*
G75*
G02*
X111500000Y-96250000I-225000J0D01*
G01*
X111000000Y-96250000D01*
G75*
G02*
X110775000Y-96025000I0J225000D01*
G01*
X110775000Y-95575000D01*
G75*
G02*
X111000000Y-95350000I225000J0D01*
G01*
G37*
G36*
G01*
X111000000Y-93800000D02*
X111500000Y-93800000D01*
G75*
G02*
X111725000Y-94025000I0J-225000D01*
G01*
X111725000Y-94475000D01*
G75*
G02*
X111500000Y-94700000I-225000J0D01*
G01*
X111000000Y-94700000D01*
G75*
G02*
X110775000Y-94475000I0J225000D01*
G01*
X110775000Y-94025000D01*
G75*
G02*
X111000000Y-93800000I225000J0D01*
G01*
G37*
%TD*%
%TO.C,C15*%
G36*
G01*
X73700000Y-84350000D02*
X74200000Y-84350000D01*
G75*
G02*
X74425000Y-84575000I0J-225000D01*
G01*
X74425000Y-85025000D01*
G75*
G02*
X74200000Y-85250000I-225000J0D01*
G01*
X73700000Y-85250000D01*
G75*
G02*
X73475000Y-85025000I0J225000D01*
G01*
X73475000Y-84575000D01*
G75*
G02*
X73700000Y-84350000I225000J0D01*
G01*
G37*
G36*
G01*
X73700000Y-82800000D02*
X74200000Y-82800000D01*
G75*
G02*
X74425000Y-83025000I0J-225000D01*
G01*
X74425000Y-83475000D01*
G75*
G02*
X74200000Y-83700000I-225000J0D01*
G01*
X73700000Y-83700000D01*
G75*
G02*
X73475000Y-83475000I0J225000D01*
G01*
X73475000Y-83025000D01*
G75*
G02*
X73700000Y-82800000I225000J0D01*
G01*
G37*
%TD*%
%TO.C,C16*%
G36*
G01*
X77540000Y-93690000D02*
X77040000Y-93690000D01*
G75*
G02*
X76815000Y-93465000I0J225000D01*
G01*
X76815000Y-93015000D01*
G75*
G02*
X77040000Y-92790000I225000J0D01*
G01*
X77540000Y-92790000D01*
G75*
G02*
X77765000Y-93015000I0J-225000D01*
G01*
X77765000Y-93465000D01*
G75*
G02*
X77540000Y-93690000I-225000J0D01*
G01*
G37*
G36*
G01*
X77540000Y-92140000D02*
X77040000Y-92140000D01*
G75*
G02*
X76815000Y-91915000I0J225000D01*
G01*
X76815000Y-91465000D01*
G75*
G02*
X77040000Y-91240000I225000J0D01*
G01*
X77540000Y-91240000D01*
G75*
G02*
X77765000Y-91465000I0J-225000D01*
G01*
X77765000Y-91915000D01*
G75*
G02*
X77540000Y-92140000I-225000J0D01*
G01*
G37*
%TD*%
%TO.C,C17*%
G36*
G01*
X74140000Y-92115000D02*
X73640000Y-92115000D01*
G75*
G02*
X73415000Y-91890000I0J225000D01*
G01*
X73415000Y-91440000D01*
G75*
G02*
X73640000Y-91215000I225000J0D01*
G01*
X74140000Y-91215000D01*
G75*
G02*
X74365000Y-91440000I0J-225000D01*
G01*
X74365000Y-91890000D01*
G75*
G02*
X74140000Y-92115000I-225000J0D01*
G01*
G37*
G36*
G01*
X74140000Y-93665000D02*
X73640000Y-93665000D01*
G75*
G02*
X73415000Y-93440000I0J225000D01*
G01*
X73415000Y-92990000D01*
G75*
G02*
X73640000Y-92765000I225000J0D01*
G01*
X74140000Y-92765000D01*
G75*
G02*
X74365000Y-92990000I0J-225000D01*
G01*
X74365000Y-93440000D01*
G75*
G02*
X74140000Y-93665000I-225000J0D01*
G01*
G37*
%TD*%
%TO.C,C18*%
G36*
G01*
X76100000Y-84325000D02*
X76600000Y-84325000D01*
G75*
G02*
X76825000Y-84550000I0J-225000D01*
G01*
X76825000Y-85000000D01*
G75*
G02*
X76600000Y-85225000I-225000J0D01*
G01*
X76100000Y-85225000D01*
G75*
G02*
X75875000Y-85000000I0J225000D01*
G01*
X75875000Y-84550000D01*
G75*
G02*
X76100000Y-84325000I225000J0D01*
G01*
G37*
G36*
G01*
X76100000Y-82775000D02*
X76600000Y-82775000D01*
G75*
G02*
X76825000Y-83000000I0J-225000D01*
G01*
X76825000Y-83450000D01*
G75*
G02*
X76600000Y-83675000I-225000J0D01*
G01*
X76100000Y-83675000D01*
G75*
G02*
X75875000Y-83450000I0J225000D01*
G01*
X75875000Y-83000000D01*
G75*
G02*
X76100000Y-82775000I225000J0D01*
G01*
G37*
%TD*%
%TO.C,C19*%
G36*
G01*
X75840000Y-93690000D02*
X75340000Y-93690000D01*
G75*
G02*
X75115000Y-93465000I0J225000D01*
G01*
X75115000Y-93015000D01*
G75*
G02*
X75340000Y-92790000I225000J0D01*
G01*
X75840000Y-92790000D01*
G75*
G02*
X76065000Y-93015000I0J-225000D01*
G01*
X76065000Y-93465000D01*
G75*
G02*
X75840000Y-93690000I-225000J0D01*
G01*
G37*
G36*
G01*
X75840000Y-92140000D02*
X75340000Y-92140000D01*
G75*
G02*
X75115000Y-91915000I0J225000D01*
G01*
X75115000Y-91465000D01*
G75*
G02*
X75340000Y-91240000I225000J0D01*
G01*
X75840000Y-91240000D01*
G75*
G02*
X76065000Y-91465000I0J-225000D01*
G01*
X76065000Y-91915000D01*
G75*
G02*
X75840000Y-92140000I-225000J0D01*
G01*
G37*
%TD*%
%TO.C,D3*%
G36*
G01*
X83310000Y-96106250D02*
X83310000Y-95593750D01*
G75*
G02*
X83528750Y-95375000I218750J0D01*
G01*
X83966250Y-95375000D01*
G75*
G02*
X84185000Y-95593750I0J-218750D01*
G01*
X84185000Y-96106250D01*
G75*
G02*
X83966250Y-96325000I-218750J0D01*
G01*
X83528750Y-96325000D01*
G75*
G02*
X83310000Y-96106250I0J218750D01*
G01*
G37*
G36*
G01*
X81735000Y-96106250D02*
X81735000Y-95593750D01*
G75*
G02*
X81953750Y-95375000I218750J0D01*
G01*
X82391250Y-95375000D01*
G75*
G02*
X82610000Y-95593750I0J-218750D01*
G01*
X82610000Y-96106250D01*
G75*
G02*
X82391250Y-96325000I-218750J0D01*
G01*
X81953750Y-96325000D01*
G75*
G02*
X81735000Y-96106250I0J218750D01*
G01*
G37*
%TD*%
%TO.C,D4*%
G36*
G01*
X86497500Y-82393750D02*
X86497500Y-82906250D01*
G75*
G02*
X86278750Y-83125000I-218750J0D01*
G01*
X85841250Y-83125000D01*
G75*
G02*
X85622500Y-82906250I0J218750D01*
G01*
X85622500Y-82393750D01*
G75*
G02*
X85841250Y-82175000I218750J0D01*
G01*
X86278750Y-82175000D01*
G75*
G02*
X86497500Y-82393750I0J-218750D01*
G01*
G37*
G36*
G01*
X84922500Y-82393750D02*
X84922500Y-82906250D01*
G75*
G02*
X84703750Y-83125000I-218750J0D01*
G01*
X84266250Y-83125000D01*
G75*
G02*
X84047500Y-82906250I0J218750D01*
G01*
X84047500Y-82393750D01*
G75*
G02*
X84266250Y-82175000I218750J0D01*
G01*
X84703750Y-82175000D01*
G75*
G02*
X84922500Y-82393750I0J-218750D01*
G01*
G37*
%TD*%
%TO.C,R7*%
G36*
G01*
X85015000Y-96125000D02*
X85015000Y-95575000D01*
G75*
G02*
X85215000Y-95375000I200000J0D01*
G01*
X85615000Y-95375000D01*
G75*
G02*
X85815000Y-95575000I0J-200000D01*
G01*
X85815000Y-96125000D01*
G75*
G02*
X85615000Y-96325000I-200000J0D01*
G01*
X85215000Y-96325000D01*
G75*
G02*
X85015000Y-96125000I0J200000D01*
G01*
G37*
G36*
G01*
X86665000Y-96125000D02*
X86665000Y-95575000D01*
G75*
G02*
X86865000Y-95375000I200000J0D01*
G01*
X87265000Y-95375000D01*
G75*
G02*
X87465000Y-95575000I0J-200000D01*
G01*
X87465000Y-96125000D01*
G75*
G02*
X87265000Y-96325000I-200000J0D01*
G01*
X86865000Y-96325000D01*
G75*
G02*
X86665000Y-96125000I0J200000D01*
G01*
G37*
%TD*%
%TO.C,R8*%
G36*
G01*
X81685000Y-82385000D02*
X81685000Y-82935000D01*
G75*
G02*
X81485000Y-83135000I-200000J0D01*
G01*
X81085000Y-83135000D01*
G75*
G02*
X80885000Y-82935000I0J200000D01*
G01*
X80885000Y-82385000D01*
G75*
G02*
X81085000Y-82185000I200000J0D01*
G01*
X81485000Y-82185000D01*
G75*
G02*
X81685000Y-82385000I0J-200000D01*
G01*
G37*
G36*
G01*
X83335000Y-82385000D02*
X83335000Y-82935000D01*
G75*
G02*
X83135000Y-83135000I-200000J0D01*
G01*
X82735000Y-83135000D01*
G75*
G02*
X82535000Y-82935000I0J200000D01*
G01*
X82535000Y-82385000D01*
G75*
G02*
X82735000Y-82185000I200000J0D01*
G01*
X83135000Y-82185000D01*
G75*
G02*
X83335000Y-82385000I0J-200000D01*
G01*
G37*
%TD*%
%TO.C,C2*%
G36*
G01*
X100720000Y-85730000D02*
X101220000Y-85730000D01*
G75*
G02*
X101445000Y-85955000I0J-225000D01*
G01*
X101445000Y-86405000D01*
G75*
G02*
X101220000Y-86630000I-225000J0D01*
G01*
X100720000Y-86630000D01*
G75*
G02*
X100495000Y-86405000I0J225000D01*
G01*
X100495000Y-85955000D01*
G75*
G02*
X100720000Y-85730000I225000J0D01*
G01*
G37*
G36*
G01*
X100720000Y-87280000D02*
X101220000Y-87280000D01*
G75*
G02*
X101445000Y-87505000I0J-225000D01*
G01*
X101445000Y-87955000D01*
G75*
G02*
X101220000Y-88180000I-225000J0D01*
G01*
X100720000Y-88180000D01*
G75*
G02*
X100495000Y-87955000I0J225000D01*
G01*
X100495000Y-87505000D01*
G75*
G02*
X100720000Y-87280000I225000J0D01*
G01*
G37*
%TD*%
%TO.C,C3*%
G36*
G01*
X88340000Y-87935000D02*
X88840000Y-87935000D01*
G75*
G02*
X89065000Y-88160000I0J-225000D01*
G01*
X89065000Y-88610000D01*
G75*
G02*
X88840000Y-88835000I-225000J0D01*
G01*
X88340000Y-88835000D01*
G75*
G02*
X88115000Y-88610000I0J225000D01*
G01*
X88115000Y-88160000D01*
G75*
G02*
X88340000Y-87935000I225000J0D01*
G01*
G37*
G36*
G01*
X88340000Y-86385000D02*
X88840000Y-86385000D01*
G75*
G02*
X89065000Y-86610000I0J-225000D01*
G01*
X89065000Y-87060000D01*
G75*
G02*
X88840000Y-87285000I-225000J0D01*
G01*
X88340000Y-87285000D01*
G75*
G02*
X88115000Y-87060000I0J225000D01*
G01*
X88115000Y-86610000D01*
G75*
G02*
X88340000Y-86385000I225000J0D01*
G01*
G37*
%TD*%
%TO.C,C6*%
G36*
G01*
X97205000Y-95490000D02*
X97205000Y-95990000D01*
G75*
G02*
X96980000Y-96215000I-225000J0D01*
G01*
X96530000Y-96215000D01*
G75*
G02*
X96305000Y-95990000I0J225000D01*
G01*
X96305000Y-95490000D01*
G75*
G02*
X96530000Y-95265000I225000J0D01*
G01*
X96980000Y-95265000D01*
G75*
G02*
X97205000Y-95490000I0J-225000D01*
G01*
G37*
G36*
G01*
X98755000Y-95490000D02*
X98755000Y-95990000D01*
G75*
G02*
X98530000Y-96215000I-225000J0D01*
G01*
X98080000Y-96215000D01*
G75*
G02*
X97855000Y-95990000I0J225000D01*
G01*
X97855000Y-95490000D01*
G75*
G02*
X98080000Y-95265000I225000J0D01*
G01*
X98530000Y-95265000D01*
G75*
G02*
X98755000Y-95490000I0J-225000D01*
G01*
G37*
%TD*%
%TO.C,C8*%
G36*
G01*
X90395000Y-82880000D02*
X90395000Y-82380000D01*
G75*
G02*
X90620000Y-82155000I225000J0D01*
G01*
X91070000Y-82155000D01*
G75*
G02*
X91295000Y-82380000I0J-225000D01*
G01*
X91295000Y-82880000D01*
G75*
G02*
X91070000Y-83105000I-225000J0D01*
G01*
X90620000Y-83105000D01*
G75*
G02*
X90395000Y-82880000I0J225000D01*
G01*
G37*
G36*
G01*
X88845000Y-82880000D02*
X88845000Y-82380000D01*
G75*
G02*
X89070000Y-82155000I225000J0D01*
G01*
X89520000Y-82155000D01*
G75*
G02*
X89745000Y-82380000I0J-225000D01*
G01*
X89745000Y-82880000D01*
G75*
G02*
X89520000Y-83105000I-225000J0D01*
G01*
X89070000Y-83105000D01*
G75*
G02*
X88845000Y-82880000I0J225000D01*
G01*
G37*
%TD*%
%TO.C,C10*%
G36*
G01*
X88870000Y-92155000D02*
X88370000Y-92155000D01*
G75*
G02*
X88145000Y-91930000I0J225000D01*
G01*
X88145000Y-91480000D01*
G75*
G02*
X88370000Y-91255000I225000J0D01*
G01*
X88870000Y-91255000D01*
G75*
G02*
X89095000Y-91480000I0J-225000D01*
G01*
X89095000Y-91930000D01*
G75*
G02*
X88870000Y-92155000I-225000J0D01*
G01*
G37*
G36*
G01*
X88870000Y-90605000D02*
X88370000Y-90605000D01*
G75*
G02*
X88145000Y-90380000I0J225000D01*
G01*
X88145000Y-89930000D01*
G75*
G02*
X88370000Y-89705000I225000J0D01*
G01*
X88870000Y-89705000D01*
G75*
G02*
X89095000Y-89930000I0J-225000D01*
G01*
X89095000Y-90380000D01*
G75*
G02*
X88870000Y-90605000I-225000J0D01*
G01*
G37*
%TD*%
%TO.C,U1*%
G36*
G01*
X89680000Y-86585000D02*
X89680000Y-86435000D01*
G75*
G02*
X89755000Y-86360000I75000J0D01*
G01*
X91080000Y-86360000D01*
G75*
G02*
X91155000Y-86435000I0J-75000D01*
G01*
X91155000Y-86585000D01*
G75*
G02*
X91080000Y-86660000I-75000J0D01*
G01*
X89755000Y-86660000D01*
G75*
G02*
X89680000Y-86585000I0J75000D01*
G01*
G37*
G36*
G01*
X89680000Y-87085000D02*
X89680000Y-86935000D01*
G75*
G02*
X89755000Y-86860000I75000J0D01*
G01*
X91080000Y-86860000D01*
G75*
G02*
X91155000Y-86935000I0J-75000D01*
G01*
X91155000Y-87085000D01*
G75*
G02*
X91080000Y-87160000I-75000J0D01*
G01*
X89755000Y-87160000D01*
G75*
G02*
X89680000Y-87085000I0J75000D01*
G01*
G37*
G36*
G01*
X89680000Y-87585000D02*
X89680000Y-87435000D01*
G75*
G02*
X89755000Y-87360000I75000J0D01*
G01*
X91080000Y-87360000D01*
G75*
G02*
X91155000Y-87435000I0J-75000D01*
G01*
X91155000Y-87585000D01*
G75*
G02*
X91080000Y-87660000I-75000J0D01*
G01*
X89755000Y-87660000D01*
G75*
G02*
X89680000Y-87585000I0J75000D01*
G01*
G37*
G36*
G01*
X89680000Y-88085000D02*
X89680000Y-87935000D01*
G75*
G02*
X89755000Y-87860000I75000J0D01*
G01*
X91080000Y-87860000D01*
G75*
G02*
X91155000Y-87935000I0J-75000D01*
G01*
X91155000Y-88085000D01*
G75*
G02*
X91080000Y-88160000I-75000J0D01*
G01*
X89755000Y-88160000D01*
G75*
G02*
X89680000Y-88085000I0J75000D01*
G01*
G37*
G36*
G01*
X89680000Y-88585000D02*
X89680000Y-88435000D01*
G75*
G02*
X89755000Y-88360000I75000J0D01*
G01*
X91080000Y-88360000D01*
G75*
G02*
X91155000Y-88435000I0J-75000D01*
G01*
X91155000Y-88585000D01*
G75*
G02*
X91080000Y-88660000I-75000J0D01*
G01*
X89755000Y-88660000D01*
G75*
G02*
X89680000Y-88585000I0J75000D01*
G01*
G37*
G36*
G01*
X89680000Y-89085000D02*
X89680000Y-88935000D01*
G75*
G02*
X89755000Y-88860000I75000J0D01*
G01*
X91080000Y-88860000D01*
G75*
G02*
X91155000Y-88935000I0J-75000D01*
G01*
X91155000Y-89085000D01*
G75*
G02*
X91080000Y-89160000I-75000J0D01*
G01*
X89755000Y-89160000D01*
G75*
G02*
X89680000Y-89085000I0J75000D01*
G01*
G37*
G36*
G01*
X89680000Y-89585000D02*
X89680000Y-89435000D01*
G75*
G02*
X89755000Y-89360000I75000J0D01*
G01*
X91080000Y-89360000D01*
G75*
G02*
X91155000Y-89435000I0J-75000D01*
G01*
X91155000Y-89585000D01*
G75*
G02*
X91080000Y-89660000I-75000J0D01*
G01*
X89755000Y-89660000D01*
G75*
G02*
X89680000Y-89585000I0J75000D01*
G01*
G37*
G36*
G01*
X89680000Y-90085000D02*
X89680000Y-89935000D01*
G75*
G02*
X89755000Y-89860000I75000J0D01*
G01*
X91080000Y-89860000D01*
G75*
G02*
X91155000Y-89935000I0J-75000D01*
G01*
X91155000Y-90085000D01*
G75*
G02*
X91080000Y-90160000I-75000J0D01*
G01*
X89755000Y-90160000D01*
G75*
G02*
X89680000Y-90085000I0J75000D01*
G01*
G37*
G36*
G01*
X89680000Y-90585000D02*
X89680000Y-90435000D01*
G75*
G02*
X89755000Y-90360000I75000J0D01*
G01*
X91080000Y-90360000D01*
G75*
G02*
X91155000Y-90435000I0J-75000D01*
G01*
X91155000Y-90585000D01*
G75*
G02*
X91080000Y-90660000I-75000J0D01*
G01*
X89755000Y-90660000D01*
G75*
G02*
X89680000Y-90585000I0J75000D01*
G01*
G37*
G36*
G01*
X89680000Y-91085000D02*
X89680000Y-90935000D01*
G75*
G02*
X89755000Y-90860000I75000J0D01*
G01*
X91080000Y-90860000D01*
G75*
G02*
X91155000Y-90935000I0J-75000D01*
G01*
X91155000Y-91085000D01*
G75*
G02*
X91080000Y-91160000I-75000J0D01*
G01*
X89755000Y-91160000D01*
G75*
G02*
X89680000Y-91085000I0J75000D01*
G01*
G37*
G36*
G01*
X89680000Y-91585000D02*
X89680000Y-91435000D01*
G75*
G02*
X89755000Y-91360000I75000J0D01*
G01*
X91080000Y-91360000D01*
G75*
G02*
X91155000Y-91435000I0J-75000D01*
G01*
X91155000Y-91585000D01*
G75*
G02*
X91080000Y-91660000I-75000J0D01*
G01*
X89755000Y-91660000D01*
G75*
G02*
X89680000Y-91585000I0J75000D01*
G01*
G37*
G36*
G01*
X89680000Y-92085000D02*
X89680000Y-91935000D01*
G75*
G02*
X89755000Y-91860000I75000J0D01*
G01*
X91080000Y-91860000D01*
G75*
G02*
X91155000Y-91935000I0J-75000D01*
G01*
X91155000Y-92085000D01*
G75*
G02*
X91080000Y-92160000I-75000J0D01*
G01*
X89755000Y-92160000D01*
G75*
G02*
X89680000Y-92085000I0J75000D01*
G01*
G37*
G36*
G01*
X91680000Y-94085000D02*
X91680000Y-92760000D01*
G75*
G02*
X91755000Y-92685000I75000J0D01*
G01*
X91905000Y-92685000D01*
G75*
G02*
X91980000Y-92760000I0J-75000D01*
G01*
X91980000Y-94085000D01*
G75*
G02*
X91905000Y-94160000I-75000J0D01*
G01*
X91755000Y-94160000D01*
G75*
G02*
X91680000Y-94085000I0J75000D01*
G01*
G37*
G36*
G01*
X92180000Y-94085000D02*
X92180000Y-92760000D01*
G75*
G02*
X92255000Y-92685000I75000J0D01*
G01*
X92405000Y-92685000D01*
G75*
G02*
X92480000Y-92760000I0J-75000D01*
G01*
X92480000Y-94085000D01*
G75*
G02*
X92405000Y-94160000I-75000J0D01*
G01*
X92255000Y-94160000D01*
G75*
G02*
X92180000Y-94085000I0J75000D01*
G01*
G37*
G36*
G01*
X92680000Y-94085000D02*
X92680000Y-92760000D01*
G75*
G02*
X92755000Y-92685000I75000J0D01*
G01*
X92905000Y-92685000D01*
G75*
G02*
X92980000Y-92760000I0J-75000D01*
G01*
X92980000Y-94085000D01*
G75*
G02*
X92905000Y-94160000I-75000J0D01*
G01*
X92755000Y-94160000D01*
G75*
G02*
X92680000Y-94085000I0J75000D01*
G01*
G37*
G36*
G01*
X93180000Y-94085000D02*
X93180000Y-92760000D01*
G75*
G02*
X93255000Y-92685000I75000J0D01*
G01*
X93405000Y-92685000D01*
G75*
G02*
X93480000Y-92760000I0J-75000D01*
G01*
X93480000Y-94085000D01*
G75*
G02*
X93405000Y-94160000I-75000J0D01*
G01*
X93255000Y-94160000D01*
G75*
G02*
X93180000Y-94085000I0J75000D01*
G01*
G37*
G36*
G01*
X93680000Y-94085000D02*
X93680000Y-92760000D01*
G75*
G02*
X93755000Y-92685000I75000J0D01*
G01*
X93905000Y-92685000D01*
G75*
G02*
X93980000Y-92760000I0J-75000D01*
G01*
X93980000Y-94085000D01*
G75*
G02*
X93905000Y-94160000I-75000J0D01*
G01*
X93755000Y-94160000D01*
G75*
G02*
X93680000Y-94085000I0J75000D01*
G01*
G37*
G36*
G01*
X94180000Y-94085000D02*
X94180000Y-92760000D01*
G75*
G02*
X94255000Y-92685000I75000J0D01*
G01*
X94405000Y-92685000D01*
G75*
G02*
X94480000Y-92760000I0J-75000D01*
G01*
X94480000Y-94085000D01*
G75*
G02*
X94405000Y-94160000I-75000J0D01*
G01*
X94255000Y-94160000D01*
G75*
G02*
X94180000Y-94085000I0J75000D01*
G01*
G37*
G36*
G01*
X94680000Y-94085000D02*
X94680000Y-92760000D01*
G75*
G02*
X94755000Y-92685000I75000J0D01*
G01*
X94905000Y-92685000D01*
G75*
G02*
X94980000Y-92760000I0J-75000D01*
G01*
X94980000Y-94085000D01*
G75*
G02*
X94905000Y-94160000I-75000J0D01*
G01*
X94755000Y-94160000D01*
G75*
G02*
X94680000Y-94085000I0J75000D01*
G01*
G37*
G36*
G01*
X95180000Y-94085000D02*
X95180000Y-92760000D01*
G75*
G02*
X95255000Y-92685000I75000J0D01*
G01*
X95405000Y-92685000D01*
G75*
G02*
X95480000Y-92760000I0J-75000D01*
G01*
X95480000Y-94085000D01*
G75*
G02*
X95405000Y-94160000I-75000J0D01*
G01*
X95255000Y-94160000D01*
G75*
G02*
X95180000Y-94085000I0J75000D01*
G01*
G37*
G36*
G01*
X95680000Y-94085000D02*
X95680000Y-92760000D01*
G75*
G02*
X95755000Y-92685000I75000J0D01*
G01*
X95905000Y-92685000D01*
G75*
G02*
X95980000Y-92760000I0J-75000D01*
G01*
X95980000Y-94085000D01*
G75*
G02*
X95905000Y-94160000I-75000J0D01*
G01*
X95755000Y-94160000D01*
G75*
G02*
X95680000Y-94085000I0J75000D01*
G01*
G37*
G36*
G01*
X96180000Y-94085000D02*
X96180000Y-92760000D01*
G75*
G02*
X96255000Y-92685000I75000J0D01*
G01*
X96405000Y-92685000D01*
G75*
G02*
X96480000Y-92760000I0J-75000D01*
G01*
X96480000Y-94085000D01*
G75*
G02*
X96405000Y-94160000I-75000J0D01*
G01*
X96255000Y-94160000D01*
G75*
G02*
X96180000Y-94085000I0J75000D01*
G01*
G37*
G36*
G01*
X96680000Y-94085000D02*
X96680000Y-92760000D01*
G75*
G02*
X96755000Y-92685000I75000J0D01*
G01*
X96905000Y-92685000D01*
G75*
G02*
X96980000Y-92760000I0J-75000D01*
G01*
X96980000Y-94085000D01*
G75*
G02*
X96905000Y-94160000I-75000J0D01*
G01*
X96755000Y-94160000D01*
G75*
G02*
X96680000Y-94085000I0J75000D01*
G01*
G37*
G36*
G01*
X97180000Y-94085000D02*
X97180000Y-92760000D01*
G75*
G02*
X97255000Y-92685000I75000J0D01*
G01*
X97405000Y-92685000D01*
G75*
G02*
X97480000Y-92760000I0J-75000D01*
G01*
X97480000Y-94085000D01*
G75*
G02*
X97405000Y-94160000I-75000J0D01*
G01*
X97255000Y-94160000D01*
G75*
G02*
X97180000Y-94085000I0J75000D01*
G01*
G37*
G36*
G01*
X98005000Y-92085000D02*
X98005000Y-91935000D01*
G75*
G02*
X98080000Y-91860000I75000J0D01*
G01*
X99405000Y-91860000D01*
G75*
G02*
X99480000Y-91935000I0J-75000D01*
G01*
X99480000Y-92085000D01*
G75*
G02*
X99405000Y-92160000I-75000J0D01*
G01*
X98080000Y-92160000D01*
G75*
G02*
X98005000Y-92085000I0J75000D01*
G01*
G37*
G36*
G01*
X98005000Y-91585000D02*
X98005000Y-91435000D01*
G75*
G02*
X98080000Y-91360000I75000J0D01*
G01*
X99405000Y-91360000D01*
G75*
G02*
X99480000Y-91435000I0J-75000D01*
G01*
X99480000Y-91585000D01*
G75*
G02*
X99405000Y-91660000I-75000J0D01*
G01*
X98080000Y-91660000D01*
G75*
G02*
X98005000Y-91585000I0J75000D01*
G01*
G37*
G36*
G01*
X98005000Y-91085000D02*
X98005000Y-90935000D01*
G75*
G02*
X98080000Y-90860000I75000J0D01*
G01*
X99405000Y-90860000D01*
G75*
G02*
X99480000Y-90935000I0J-75000D01*
G01*
X99480000Y-91085000D01*
G75*
G02*
X99405000Y-91160000I-75000J0D01*
G01*
X98080000Y-91160000D01*
G75*
G02*
X98005000Y-91085000I0J75000D01*
G01*
G37*
G36*
G01*
X98005000Y-90585000D02*
X98005000Y-90435000D01*
G75*
G02*
X98080000Y-90360000I75000J0D01*
G01*
X99405000Y-90360000D01*
G75*
G02*
X99480000Y-90435000I0J-75000D01*
G01*
X99480000Y-90585000D01*
G75*
G02*
X99405000Y-90660000I-75000J0D01*
G01*
X98080000Y-90660000D01*
G75*
G02*
X98005000Y-90585000I0J75000D01*
G01*
G37*
G36*
G01*
X98005000Y-90085000D02*
X98005000Y-89935000D01*
G75*
G02*
X98080000Y-89860000I75000J0D01*
G01*
X99405000Y-89860000D01*
G75*
G02*
X99480000Y-89935000I0J-75000D01*
G01*
X99480000Y-90085000D01*
G75*
G02*
X99405000Y-90160000I-75000J0D01*
G01*
X98080000Y-90160000D01*
G75*
G02*
X98005000Y-90085000I0J75000D01*
G01*
G37*
G36*
G01*
X98005000Y-89585000D02*
X98005000Y-89435000D01*
G75*
G02*
X98080000Y-89360000I75000J0D01*
G01*
X99405000Y-89360000D01*
G75*
G02*
X99480000Y-89435000I0J-75000D01*
G01*
X99480000Y-89585000D01*
G75*
G02*
X99405000Y-89660000I-75000J0D01*
G01*
X98080000Y-89660000D01*
G75*
G02*
X98005000Y-89585000I0J75000D01*
G01*
G37*
G36*
G01*
X98005000Y-89085000D02*
X98005000Y-88935000D01*
G75*
G02*
X98080000Y-88860000I75000J0D01*
G01*
X99405000Y-88860000D01*
G75*
G02*
X99480000Y-88935000I0J-75000D01*
G01*
X99480000Y-89085000D01*
G75*
G02*
X99405000Y-89160000I-75000J0D01*
G01*
X98080000Y-89160000D01*
G75*
G02*
X98005000Y-89085000I0J75000D01*
G01*
G37*
G36*
G01*
X98005000Y-88585000D02*
X98005000Y-88435000D01*
G75*
G02*
X98080000Y-88360000I75000J0D01*
G01*
X99405000Y-88360000D01*
G75*
G02*
X99480000Y-88435000I0J-75000D01*
G01*
X99480000Y-88585000D01*
G75*
G02*
X99405000Y-88660000I-75000J0D01*
G01*
X98080000Y-88660000D01*
G75*
G02*
X98005000Y-88585000I0J75000D01*
G01*
G37*
G36*
G01*
X98005000Y-88085000D02*
X98005000Y-87935000D01*
G75*
G02*
X98080000Y-87860000I75000J0D01*
G01*
X99405000Y-87860000D01*
G75*
G02*
X99480000Y-87935000I0J-75000D01*
G01*
X99480000Y-88085000D01*
G75*
G02*
X99405000Y-88160000I-75000J0D01*
G01*
X98080000Y-88160000D01*
G75*
G02*
X98005000Y-88085000I0J75000D01*
G01*
G37*
G36*
G01*
X98005000Y-87585000D02*
X98005000Y-87435000D01*
G75*
G02*
X98080000Y-87360000I75000J0D01*
G01*
X99405000Y-87360000D01*
G75*
G02*
X99480000Y-87435000I0J-75000D01*
G01*
X99480000Y-87585000D01*
G75*
G02*
X99405000Y-87660000I-75000J0D01*
G01*
X98080000Y-87660000D01*
G75*
G02*
X98005000Y-87585000I0J75000D01*
G01*
G37*
G36*
G01*
X98005000Y-87085000D02*
X98005000Y-86935000D01*
G75*
G02*
X98080000Y-86860000I75000J0D01*
G01*
X99405000Y-86860000D01*
G75*
G02*
X99480000Y-86935000I0J-75000D01*
G01*
X99480000Y-87085000D01*
G75*
G02*
X99405000Y-87160000I-75000J0D01*
G01*
X98080000Y-87160000D01*
G75*
G02*
X98005000Y-87085000I0J75000D01*
G01*
G37*
G36*
G01*
X98005000Y-86585000D02*
X98005000Y-86435000D01*
G75*
G02*
X98080000Y-86360000I75000J0D01*
G01*
X99405000Y-86360000D01*
G75*
G02*
X99480000Y-86435000I0J-75000D01*
G01*
X99480000Y-86585000D01*
G75*
G02*
X99405000Y-86660000I-75000J0D01*
G01*
X98080000Y-86660000D01*
G75*
G02*
X98005000Y-86585000I0J75000D01*
G01*
G37*
G36*
G01*
X97180000Y-85760000D02*
X97180000Y-84435000D01*
G75*
G02*
X97255000Y-84360000I75000J0D01*
G01*
X97405000Y-84360000D01*
G75*
G02*
X97480000Y-84435000I0J-75000D01*
G01*
X97480000Y-85760000D01*
G75*
G02*
X97405000Y-85835000I-75000J0D01*
G01*
X97255000Y-85835000D01*
G75*
G02*
X97180000Y-85760000I0J75000D01*
G01*
G37*
G36*
G01*
X96680000Y-85760000D02*
X96680000Y-84435000D01*
G75*
G02*
X96755000Y-84360000I75000J0D01*
G01*
X96905000Y-84360000D01*
G75*
G02*
X96980000Y-84435000I0J-75000D01*
G01*
X96980000Y-85760000D01*
G75*
G02*
X96905000Y-85835000I-75000J0D01*
G01*
X96755000Y-85835000D01*
G75*
G02*
X96680000Y-85760000I0J75000D01*
G01*
G37*
G36*
G01*
X96180000Y-85760000D02*
X96180000Y-84435000D01*
G75*
G02*
X96255000Y-84360000I75000J0D01*
G01*
X96405000Y-84360000D01*
G75*
G02*
X96480000Y-84435000I0J-75000D01*
G01*
X96480000Y-85760000D01*
G75*
G02*
X96405000Y-85835000I-75000J0D01*
G01*
X96255000Y-85835000D01*
G75*
G02*
X96180000Y-85760000I0J75000D01*
G01*
G37*
G36*
G01*
X95680000Y-85760000D02*
X95680000Y-84435000D01*
G75*
G02*
X95755000Y-84360000I75000J0D01*
G01*
X95905000Y-84360000D01*
G75*
G02*
X95980000Y-84435000I0J-75000D01*
G01*
X95980000Y-85760000D01*
G75*
G02*
X95905000Y-85835000I-75000J0D01*
G01*
X95755000Y-85835000D01*
G75*
G02*
X95680000Y-85760000I0J75000D01*
G01*
G37*
G36*
G01*
X95180000Y-85760000D02*
X95180000Y-84435000D01*
G75*
G02*
X95255000Y-84360000I75000J0D01*
G01*
X95405000Y-84360000D01*
G75*
G02*
X95480000Y-84435000I0J-75000D01*
G01*
X95480000Y-85760000D01*
G75*
G02*
X95405000Y-85835000I-75000J0D01*
G01*
X95255000Y-85835000D01*
G75*
G02*
X95180000Y-85760000I0J75000D01*
G01*
G37*
G36*
G01*
X94680000Y-85760000D02*
X94680000Y-84435000D01*
G75*
G02*
X94755000Y-84360000I75000J0D01*
G01*
X94905000Y-84360000D01*
G75*
G02*
X94980000Y-84435000I0J-75000D01*
G01*
X94980000Y-85760000D01*
G75*
G02*
X94905000Y-85835000I-75000J0D01*
G01*
X94755000Y-85835000D01*
G75*
G02*
X94680000Y-85760000I0J75000D01*
G01*
G37*
G36*
G01*
X94180000Y-85760000D02*
X94180000Y-84435000D01*
G75*
G02*
X94255000Y-84360000I75000J0D01*
G01*
X94405000Y-84360000D01*
G75*
G02*
X94480000Y-84435000I0J-75000D01*
G01*
X94480000Y-85760000D01*
G75*
G02*
X94405000Y-85835000I-75000J0D01*
G01*
X94255000Y-85835000D01*
G75*
G02*
X94180000Y-85760000I0J75000D01*
G01*
G37*
G36*
G01*
X93680000Y-85760000D02*
X93680000Y-84435000D01*
G75*
G02*
X93755000Y-84360000I75000J0D01*
G01*
X93905000Y-84360000D01*
G75*
G02*
X93980000Y-84435000I0J-75000D01*
G01*
X93980000Y-85760000D01*
G75*
G02*
X93905000Y-85835000I-75000J0D01*
G01*
X93755000Y-85835000D01*
G75*
G02*
X93680000Y-85760000I0J75000D01*
G01*
G37*
G36*
G01*
X93180000Y-85760000D02*
X93180000Y-84435000D01*
G75*
G02*
X93255000Y-84360000I75000J0D01*
G01*
X93405000Y-84360000D01*
G75*
G02*
X93480000Y-84435000I0J-75000D01*
G01*
X93480000Y-85760000D01*
G75*
G02*
X93405000Y-85835000I-75000J0D01*
G01*
X93255000Y-85835000D01*
G75*
G02*
X93180000Y-85760000I0J75000D01*
G01*
G37*
G36*
G01*
X92680000Y-85760000D02*
X92680000Y-84435000D01*
G75*
G02*
X92755000Y-84360000I75000J0D01*
G01*
X92905000Y-84360000D01*
G75*
G02*
X92980000Y-84435000I0J-75000D01*
G01*
X92980000Y-85760000D01*
G75*
G02*
X92905000Y-85835000I-75000J0D01*
G01*
X92755000Y-85835000D01*
G75*
G02*
X92680000Y-85760000I0J75000D01*
G01*
G37*
G36*
G01*
X92180000Y-85760000D02*
X92180000Y-84435000D01*
G75*
G02*
X92255000Y-84360000I75000J0D01*
G01*
X92405000Y-84360000D01*
G75*
G02*
X92480000Y-84435000I0J-75000D01*
G01*
X92480000Y-85760000D01*
G75*
G02*
X92405000Y-85835000I-75000J0D01*
G01*
X92255000Y-85835000D01*
G75*
G02*
X92180000Y-85760000I0J75000D01*
G01*
G37*
G36*
G01*
X91680000Y-85760000D02*
X91680000Y-84435000D01*
G75*
G02*
X91755000Y-84360000I75000J0D01*
G01*
X91905000Y-84360000D01*
G75*
G02*
X91980000Y-84435000I0J-75000D01*
G01*
X91980000Y-85760000D01*
G75*
G02*
X91905000Y-85835000I-75000J0D01*
G01*
X91755000Y-85835000D01*
G75*
G02*
X91680000Y-85760000I0J75000D01*
G01*
G37*
%TD*%
%TO.C,C12*%
G36*
G01*
X86800000Y-86375000D02*
X87300000Y-86375000D01*
G75*
G02*
X87525000Y-86600000I0J-225000D01*
G01*
X87525000Y-87050000D01*
G75*
G02*
X87300000Y-87275000I-225000J0D01*
G01*
X86800000Y-87275000D01*
G75*
G02*
X86575000Y-87050000I0J225000D01*
G01*
X86575000Y-86600000D01*
G75*
G02*
X86800000Y-86375000I225000J0D01*
G01*
G37*
G36*
G01*
X86800000Y-87925000D02*
X87300000Y-87925000D01*
G75*
G02*
X87525000Y-88150000I0J-225000D01*
G01*
X87525000Y-88600000D01*
G75*
G02*
X87300000Y-88825000I-225000J0D01*
G01*
X86800000Y-88825000D01*
G75*
G02*
X86575000Y-88600000I0J225000D01*
G01*
X86575000Y-88150000D01*
G75*
G02*
X86800000Y-87925000I225000J0D01*
G01*
G37*
%TD*%
%TO.C,C13*%
G36*
G01*
X87330000Y-90605000D02*
X86830000Y-90605000D01*
G75*
G02*
X86605000Y-90380000I0J225000D01*
G01*
X86605000Y-89930000D01*
G75*
G02*
X86830000Y-89705000I225000J0D01*
G01*
X87330000Y-89705000D01*
G75*
G02*
X87555000Y-89930000I0J-225000D01*
G01*
X87555000Y-90380000D01*
G75*
G02*
X87330000Y-90605000I-225000J0D01*
G01*
G37*
G36*
G01*
X87330000Y-92155000D02*
X86830000Y-92155000D01*
G75*
G02*
X86605000Y-91930000I0J225000D01*
G01*
X86605000Y-91480000D01*
G75*
G02*
X86830000Y-91255000I225000J0D01*
G01*
X87330000Y-91255000D01*
G75*
G02*
X87555000Y-91480000I0J-225000D01*
G01*
X87555000Y-91930000D01*
G75*
G02*
X87330000Y-92155000I-225000J0D01*
G01*
G37*
%TD*%
%TO.C,R9*%
G36*
G01*
X111125000Y-82385000D02*
X111125000Y-82935000D01*
G75*
G02*
X110925000Y-83135000I-200000J0D01*
G01*
X110525000Y-83135000D01*
G75*
G02*
X110325000Y-82935000I0J200000D01*
G01*
X110325000Y-82385000D01*
G75*
G02*
X110525000Y-82185000I200000J0D01*
G01*
X110925000Y-82185000D01*
G75*
G02*
X111125000Y-82385000I0J-200000D01*
G01*
G37*
G36*
G01*
X109475000Y-82385000D02*
X109475000Y-82935000D01*
G75*
G02*
X109275000Y-83135000I-200000J0D01*
G01*
X108875000Y-83135000D01*
G75*
G02*
X108675000Y-82935000I0J200000D01*
G01*
X108675000Y-82385000D01*
G75*
G02*
X108875000Y-82185000I200000J0D01*
G01*
X109275000Y-82185000D01*
G75*
G02*
X109475000Y-82385000I0J-200000D01*
G01*
G37*
%TD*%
D17*
%TO.C,SW1*%
X101308960Y-94980000D03*
X108511040Y-94980000D03*
%TD*%
M02*
