%TF.GenerationSoftware,KiCad,Pcbnew,(5.1.8-0-10_14)*%
%TF.CreationDate,2021-04-16T18:19:52+02:00*%
%TF.ProjectId,SimpleCANAdapter,53696d70-6c65-4434-914e-416461707465,rev?*%
%TF.SameCoordinates,Original*%
%TF.FileFunction,Copper,L1,Top*%
%TF.FilePolarity,Positive*%
%FSLAX46Y46*%
G04 Gerber Fmt 4.6, Leading zero omitted, Abs format (unit mm)*
G04 Created by KiCad (PCBNEW (5.1.8-0-10_14)) date 2021-04-16 18:19:52*
%MOMM*%
%LPD*%
G01*
G04 APERTURE LIST*
%TA.AperFunction,SMDPad,CuDef*%
%ADD10C,1.000000*%
%TD*%
%TA.AperFunction,ComponentPad*%
%ADD11C,1.450000*%
%TD*%
%TA.AperFunction,SMDPad,CuDef*%
%ADD12R,1.350000X0.400000*%
%TD*%
%TA.AperFunction,SMDPad,CuDef*%
%ADD13R,1.900000X1.500000*%
%TD*%
%TA.AperFunction,SMDPad,CuDef*%
%ADD14R,1.900000X1.200000*%
%TD*%
%TA.AperFunction,ComponentPad*%
%ADD15O,1.900000X0.950000*%
%TD*%
%TA.AperFunction,SMDPad,CuDef*%
%ADD16R,1.200000X0.600000*%
%TD*%
%TA.AperFunction,SMDPad,CuDef*%
%ADD17R,1.200000X0.350000*%
%TD*%
%TA.AperFunction,SMDPad,CuDef*%
%ADD18R,1.800000X1.100000*%
%TD*%
%TA.AperFunction,SMDPad,CuDef*%
%ADD19R,0.650000X1.060000*%
%TD*%
%TA.AperFunction,ComponentPad*%
%ADD20R,1.350000X1.350000*%
%TD*%
%TA.AperFunction,ComponentPad*%
%ADD21O,1.350000X1.350000*%
%TD*%
%TA.AperFunction,SMDPad,CuDef*%
%ADD22R,0.800000X0.600000*%
%TD*%
%TA.AperFunction,ViaPad*%
%ADD23C,0.500000*%
%TD*%
%TA.AperFunction,ViaPad*%
%ADD24C,0.800000*%
%TD*%
%TA.AperFunction,Conductor*%
%ADD25C,0.200000*%
%TD*%
%TA.AperFunction,Conductor*%
%ADD26C,0.250000*%
%TD*%
%TA.AperFunction,Conductor*%
%ADD27C,0.500000*%
%TD*%
%TA.AperFunction,Conductor*%
%ADD28C,0.300000*%
%TD*%
G04 APERTURE END LIST*
D10*
%TO.P,TP8,1*%
%TO.N,USART_RX*%
X87760000Y-84320000D03*
%TD*%
%TO.P,TP3,1*%
%TO.N,PIN3*%
X89750000Y-84650000D03*
%TD*%
%TO.P,TP2,1*%
%TO.N,PIN2*%
X89950000Y-94000000D03*
%TD*%
D11*
%TO.P,J2,SH1*%
%TO.N,N/C*%
X71750000Y-86300000D03*
%TO.P,J2,SH2*%
X71750000Y-91300000D03*
D12*
%TO.P,J2,1*%
%TO.N,Net-(F1-Pad2)*%
X71750000Y-87500000D03*
%TO.P,J2,2*%
%TO.N,Net-(J2-Pad2)*%
X71750000Y-88150000D03*
%TO.P,J2,3*%
%TO.N,Net-(J2-Pad3)*%
X71750000Y-88800000D03*
%TO.P,J2,4*%
%TO.N,N/C*%
X71750000Y-89450000D03*
%TO.P,J2,5*%
%TO.N,GNDREF*%
X71750000Y-90100000D03*
D13*
%TO.P,J2,SH5*%
%TO.N,N/C*%
X69050000Y-87800000D03*
%TO.P,J2,SH6*%
X69050000Y-89800000D03*
D14*
%TO.P,J2,SH4*%
X69050000Y-85900000D03*
%TO.P,J2,SH7*%
X69050000Y-91700000D03*
D15*
%TO.P,J2,SH3*%
X69050000Y-85300000D03*
%TO.P,J2,SH8*%
X69050000Y-92300000D03*
%TD*%
D16*
%TO.P,U5,16*%
%TO.N,+5V*%
X79230000Y-93445000D03*
%TO.P,U5,15*%
%TO.N,N/C*%
X79230000Y-92175000D03*
%TO.P,U5,14*%
X79230000Y-90905000D03*
%TO.P,U5,13*%
%TO.N,Net-(C18-Pad2)*%
X79230000Y-89635000D03*
%TO.P,U5,12*%
%TO.N,N/C*%
X79230000Y-88365000D03*
%TO.P,U5,11*%
X79230000Y-87095000D03*
%TO.P,U5,10*%
X79230000Y-85825000D03*
%TO.P,U5,9*%
X79230000Y-84555000D03*
%TO.P,U5,8*%
X84830000Y-84555000D03*
%TO.P,U5,7*%
X84830000Y-85825000D03*
%TO.P,U5,6*%
%TO.N,Net-(U4-Pad3)*%
X84830000Y-87095000D03*
%TO.P,U5,5*%
%TO.N,Net-(U4-Pad4)*%
X84830000Y-88365000D03*
%TO.P,U5,4*%
%TO.N,Net-(C15-Pad1)*%
X84830000Y-89635000D03*
%TO.P,U5,3*%
%TO.N,USART_TX*%
X84830000Y-90905000D03*
%TO.P,U5,2*%
%TO.N,USART_RX*%
X84830000Y-92175000D03*
%TO.P,U5,1*%
%TO.N,GNDREF*%
X84830000Y-93445000D03*
%TD*%
%TO.P,D1,1*%
%TO.N,Net-(D1-Pad1)*%
%TA.AperFunction,SMDPad,CuDef*%
G36*
G01*
X74937500Y-95556250D02*
X74937500Y-95043750D01*
G75*
G02*
X75156250Y-94825000I218750J0D01*
G01*
X75593750Y-94825000D01*
G75*
G02*
X75812500Y-95043750I0J-218750D01*
G01*
X75812500Y-95556250D01*
G75*
G02*
X75593750Y-95775000I-218750J0D01*
G01*
X75156250Y-95775000D01*
G75*
G02*
X74937500Y-95556250I0J218750D01*
G01*
G37*
%TD.AperFunction*%
%TO.P,D1,2*%
%TO.N,+3V3*%
%TA.AperFunction,SMDPad,CuDef*%
G36*
G01*
X76512500Y-95556250D02*
X76512500Y-95043750D01*
G75*
G02*
X76731250Y-94825000I218750J0D01*
G01*
X77168750Y-94825000D01*
G75*
G02*
X77387500Y-95043750I0J-218750D01*
G01*
X77387500Y-95556250D01*
G75*
G02*
X77168750Y-95775000I-218750J0D01*
G01*
X76731250Y-95775000D01*
G75*
G02*
X76512500Y-95556250I0J218750D01*
G01*
G37*
%TD.AperFunction*%
%TD*%
%TO.P,D2,2*%
%TO.N,BLUE_LED*%
%TA.AperFunction,SMDPad,CuDef*%
G36*
G01*
X93687500Y-95505750D02*
X93687500Y-96018250D01*
G75*
G02*
X93468750Y-96237000I-218750J0D01*
G01*
X93031250Y-96237000D01*
G75*
G02*
X92812500Y-96018250I0J218750D01*
G01*
X92812500Y-95505750D01*
G75*
G02*
X93031250Y-95287000I218750J0D01*
G01*
X93468750Y-95287000D01*
G75*
G02*
X93687500Y-95505750I0J-218750D01*
G01*
G37*
%TD.AperFunction*%
%TO.P,D2,1*%
%TO.N,Net-(D2-Pad1)*%
%TA.AperFunction,SMDPad,CuDef*%
G36*
G01*
X95262500Y-95505750D02*
X95262500Y-96018250D01*
G75*
G02*
X95043750Y-96237000I-218750J0D01*
G01*
X94606250Y-96237000D01*
G75*
G02*
X94387500Y-96018250I0J218750D01*
G01*
X94387500Y-95505750D01*
G75*
G02*
X94606250Y-95287000I218750J0D01*
G01*
X95043750Y-95287000D01*
G75*
G02*
X95262500Y-95505750I0J-218750D01*
G01*
G37*
%TD.AperFunction*%
%TD*%
D17*
%TO.P,J1,1*%
%TO.N,CAN_H*%
X111200000Y-90150000D03*
%TO.P,J1,2*%
%TO.N,CAN_L*%
X111200000Y-88900000D03*
%TO.P,J1,3*%
%TO.N,GNDREF*%
X111200000Y-87650000D03*
D18*
%TO.P,J1,*%
%TO.N,*%
X114100000Y-92550000D03*
X114100000Y-85250000D03*
%TD*%
%TO.P,R2,2*%
%TO.N,Net-(R2-Pad2)*%
%TA.AperFunction,SMDPad,CuDef*%
G36*
G01*
X114135000Y-83225000D02*
X114135000Y-82675000D01*
G75*
G02*
X114335000Y-82475000I200000J0D01*
G01*
X114735000Y-82475000D01*
G75*
G02*
X114935000Y-82675000I0J-200000D01*
G01*
X114935000Y-83225000D01*
G75*
G02*
X114735000Y-83425000I-200000J0D01*
G01*
X114335000Y-83425000D01*
G75*
G02*
X114135000Y-83225000I0J200000D01*
G01*
G37*
%TD.AperFunction*%
%TO.P,R2,1*%
%TO.N,CAN_H*%
%TA.AperFunction,SMDPad,CuDef*%
G36*
G01*
X112485000Y-83225000D02*
X112485000Y-82675000D01*
G75*
G02*
X112685000Y-82475000I200000J0D01*
G01*
X113085000Y-82475000D01*
G75*
G02*
X113285000Y-82675000I0J-200000D01*
G01*
X113285000Y-83225000D01*
G75*
G02*
X113085000Y-83425000I-200000J0D01*
G01*
X112685000Y-83425000D01*
G75*
G02*
X112485000Y-83225000I0J200000D01*
G01*
G37*
%TD.AperFunction*%
%TD*%
%TO.P,R3,1*%
%TO.N,+3V3*%
%TA.AperFunction,SMDPad,CuDef*%
G36*
G01*
X113325000Y-96275000D02*
X112775000Y-96275000D01*
G75*
G02*
X112575000Y-96075000I0J200000D01*
G01*
X112575000Y-95675000D01*
G75*
G02*
X112775000Y-95475000I200000J0D01*
G01*
X113325000Y-95475000D01*
G75*
G02*
X113525000Y-95675000I0J-200000D01*
G01*
X113525000Y-96075000D01*
G75*
G02*
X113325000Y-96275000I-200000J0D01*
G01*
G37*
%TD.AperFunction*%
%TO.P,R3,2*%
%TO.N,RESET*%
%TA.AperFunction,SMDPad,CuDef*%
G36*
G01*
X113325000Y-94625000D02*
X112775000Y-94625000D01*
G75*
G02*
X112575000Y-94425000I0J200000D01*
G01*
X112575000Y-94025000D01*
G75*
G02*
X112775000Y-93825000I200000J0D01*
G01*
X113325000Y-93825000D01*
G75*
G02*
X113525000Y-94025000I0J-200000D01*
G01*
X113525000Y-94425000D01*
G75*
G02*
X113325000Y-94625000I-200000J0D01*
G01*
G37*
%TD.AperFunction*%
%TD*%
%TO.P,R4,2*%
%TO.N,BOOT0*%
%TA.AperFunction,SMDPad,CuDef*%
G36*
G01*
X94326000Y-82811000D02*
X94326000Y-82261000D01*
G75*
G02*
X94526000Y-82061000I200000J0D01*
G01*
X94926000Y-82061000D01*
G75*
G02*
X95126000Y-82261000I0J-200000D01*
G01*
X95126000Y-82811000D01*
G75*
G02*
X94926000Y-83011000I-200000J0D01*
G01*
X94526000Y-83011000D01*
G75*
G02*
X94326000Y-82811000I0J200000D01*
G01*
G37*
%TD.AperFunction*%
%TO.P,R4,1*%
%TO.N,GNDREF*%
%TA.AperFunction,SMDPad,CuDef*%
G36*
G01*
X92676000Y-82811000D02*
X92676000Y-82261000D01*
G75*
G02*
X92876000Y-82061000I200000J0D01*
G01*
X93276000Y-82061000D01*
G75*
G02*
X93476000Y-82261000I0J-200000D01*
G01*
X93476000Y-82811000D01*
G75*
G02*
X93276000Y-83011000I-200000J0D01*
G01*
X92876000Y-83011000D01*
G75*
G02*
X92676000Y-82811000I0J200000D01*
G01*
G37*
%TD.AperFunction*%
%TD*%
%TO.P,R5,2*%
%TO.N,GNDREF*%
%TA.AperFunction,SMDPad,CuDef*%
G36*
G01*
X72500000Y-95065000D02*
X72500000Y-95615000D01*
G75*
G02*
X72300000Y-95815000I-200000J0D01*
G01*
X71900000Y-95815000D01*
G75*
G02*
X71700000Y-95615000I0J200000D01*
G01*
X71700000Y-95065000D01*
G75*
G02*
X71900000Y-94865000I200000J0D01*
G01*
X72300000Y-94865000D01*
G75*
G02*
X72500000Y-95065000I0J-200000D01*
G01*
G37*
%TD.AperFunction*%
%TO.P,R5,1*%
%TO.N,Net-(D1-Pad1)*%
%TA.AperFunction,SMDPad,CuDef*%
G36*
G01*
X74150000Y-95065000D02*
X74150000Y-95615000D01*
G75*
G02*
X73950000Y-95815000I-200000J0D01*
G01*
X73550000Y-95815000D01*
G75*
G02*
X73350000Y-95615000I0J200000D01*
G01*
X73350000Y-95065000D01*
G75*
G02*
X73550000Y-94865000I200000J0D01*
G01*
X73950000Y-94865000D01*
G75*
G02*
X74150000Y-95065000I0J-200000D01*
G01*
G37*
%TD.AperFunction*%
%TD*%
%TO.P,R6,1*%
%TO.N,Net-(D2-Pad1)*%
%TA.AperFunction,SMDPad,CuDef*%
G36*
G01*
X91875000Y-95525000D02*
X91875000Y-96075000D01*
G75*
G02*
X91675000Y-96275000I-200000J0D01*
G01*
X91275000Y-96275000D01*
G75*
G02*
X91075000Y-96075000I0J200000D01*
G01*
X91075000Y-95525000D01*
G75*
G02*
X91275000Y-95325000I200000J0D01*
G01*
X91675000Y-95325000D01*
G75*
G02*
X91875000Y-95525000I0J-200000D01*
G01*
G37*
%TD.AperFunction*%
%TO.P,R6,2*%
%TO.N,GNDREF*%
%TA.AperFunction,SMDPad,CuDef*%
G36*
G01*
X90225000Y-95525000D02*
X90225000Y-96075000D01*
G75*
G02*
X90025000Y-96275000I-200000J0D01*
G01*
X89625000Y-96275000D01*
G75*
G02*
X89425000Y-96075000I0J200000D01*
G01*
X89425000Y-95525000D01*
G75*
G02*
X89625000Y-95325000I200000J0D01*
G01*
X90025000Y-95325000D01*
G75*
G02*
X90225000Y-95525000I0J-200000D01*
G01*
G37*
%TD.AperFunction*%
%TD*%
D19*
%TO.P,U4,5*%
%TO.N,+5V*%
X75700000Y-89600000D03*
%TO.P,U4,6*%
%TO.N,Net-(J2-Pad3)*%
X76650000Y-89600000D03*
%TO.P,U4,4*%
%TO.N,Net-(U4-Pad4)*%
X74750000Y-89600000D03*
%TO.P,U4,3*%
%TO.N,Net-(U4-Pad3)*%
X74750000Y-87400000D03*
%TO.P,U4,2*%
%TO.N,GNDREF*%
X75700000Y-87400000D03*
%TO.P,U4,1*%
%TO.N,Net-(J2-Pad2)*%
X76650000Y-87400000D03*
%TD*%
%TO.P,C7,2*%
%TO.N,GNDREF*%
%TA.AperFunction,SMDPad,CuDef*%
G36*
G01*
X111000000Y-95350000D02*
X111500000Y-95350000D01*
G75*
G02*
X111725000Y-95575000I0J-225000D01*
G01*
X111725000Y-96025000D01*
G75*
G02*
X111500000Y-96250000I-225000J0D01*
G01*
X111000000Y-96250000D01*
G75*
G02*
X110775000Y-96025000I0J225000D01*
G01*
X110775000Y-95575000D01*
G75*
G02*
X111000000Y-95350000I225000J0D01*
G01*
G37*
%TD.AperFunction*%
%TO.P,C7,1*%
%TO.N,RESET*%
%TA.AperFunction,SMDPad,CuDef*%
G36*
G01*
X111000000Y-93800000D02*
X111500000Y-93800000D01*
G75*
G02*
X111725000Y-94025000I0J-225000D01*
G01*
X111725000Y-94475000D01*
G75*
G02*
X111500000Y-94700000I-225000J0D01*
G01*
X111000000Y-94700000D01*
G75*
G02*
X110775000Y-94475000I0J225000D01*
G01*
X110775000Y-94025000D01*
G75*
G02*
X111000000Y-93800000I225000J0D01*
G01*
G37*
%TD.AperFunction*%
%TD*%
%TO.P,C15,2*%
%TO.N,GNDREF*%
%TA.AperFunction,SMDPad,CuDef*%
G36*
G01*
X73700000Y-84350000D02*
X74200000Y-84350000D01*
G75*
G02*
X74425000Y-84575000I0J-225000D01*
G01*
X74425000Y-85025000D01*
G75*
G02*
X74200000Y-85250000I-225000J0D01*
G01*
X73700000Y-85250000D01*
G75*
G02*
X73475000Y-85025000I0J225000D01*
G01*
X73475000Y-84575000D01*
G75*
G02*
X73700000Y-84350000I225000J0D01*
G01*
G37*
%TD.AperFunction*%
%TO.P,C15,1*%
%TO.N,Net-(C15-Pad1)*%
%TA.AperFunction,SMDPad,CuDef*%
G36*
G01*
X73700000Y-82800000D02*
X74200000Y-82800000D01*
G75*
G02*
X74425000Y-83025000I0J-225000D01*
G01*
X74425000Y-83475000D01*
G75*
G02*
X74200000Y-83700000I-225000J0D01*
G01*
X73700000Y-83700000D01*
G75*
G02*
X73475000Y-83475000I0J225000D01*
G01*
X73475000Y-83025000D01*
G75*
G02*
X73700000Y-82800000I225000J0D01*
G01*
G37*
%TD.AperFunction*%
%TD*%
%TO.P,C16,1*%
%TO.N,+5V*%
%TA.AperFunction,SMDPad,CuDef*%
G36*
G01*
X77540000Y-93690000D02*
X77040000Y-93690000D01*
G75*
G02*
X76815000Y-93465000I0J225000D01*
G01*
X76815000Y-93015000D01*
G75*
G02*
X77040000Y-92790000I225000J0D01*
G01*
X77540000Y-92790000D01*
G75*
G02*
X77765000Y-93015000I0J-225000D01*
G01*
X77765000Y-93465000D01*
G75*
G02*
X77540000Y-93690000I-225000J0D01*
G01*
G37*
%TD.AperFunction*%
%TO.P,C16,2*%
%TO.N,GNDREF*%
%TA.AperFunction,SMDPad,CuDef*%
G36*
G01*
X77540000Y-92140000D02*
X77040000Y-92140000D01*
G75*
G02*
X76815000Y-91915000I0J225000D01*
G01*
X76815000Y-91465000D01*
G75*
G02*
X77040000Y-91240000I225000J0D01*
G01*
X77540000Y-91240000D01*
G75*
G02*
X77765000Y-91465000I0J-225000D01*
G01*
X77765000Y-91915000D01*
G75*
G02*
X77540000Y-92140000I-225000J0D01*
G01*
G37*
%TD.AperFunction*%
%TD*%
%TO.P,C17,2*%
%TO.N,GNDREF*%
%TA.AperFunction,SMDPad,CuDef*%
G36*
G01*
X74140000Y-92115000D02*
X73640000Y-92115000D01*
G75*
G02*
X73415000Y-91890000I0J225000D01*
G01*
X73415000Y-91440000D01*
G75*
G02*
X73640000Y-91215000I225000J0D01*
G01*
X74140000Y-91215000D01*
G75*
G02*
X74365000Y-91440000I0J-225000D01*
G01*
X74365000Y-91890000D01*
G75*
G02*
X74140000Y-92115000I-225000J0D01*
G01*
G37*
%TD.AperFunction*%
%TO.P,C17,1*%
%TO.N,+5V*%
%TA.AperFunction,SMDPad,CuDef*%
G36*
G01*
X74140000Y-93665000D02*
X73640000Y-93665000D01*
G75*
G02*
X73415000Y-93440000I0J225000D01*
G01*
X73415000Y-92990000D01*
G75*
G02*
X73640000Y-92765000I225000J0D01*
G01*
X74140000Y-92765000D01*
G75*
G02*
X74365000Y-92990000I0J-225000D01*
G01*
X74365000Y-93440000D01*
G75*
G02*
X74140000Y-93665000I-225000J0D01*
G01*
G37*
%TD.AperFunction*%
%TD*%
%TO.P,C18,2*%
%TO.N,Net-(C18-Pad2)*%
%TA.AperFunction,SMDPad,CuDef*%
G36*
G01*
X76100000Y-84325000D02*
X76600000Y-84325000D01*
G75*
G02*
X76825000Y-84550000I0J-225000D01*
G01*
X76825000Y-85000000D01*
G75*
G02*
X76600000Y-85225000I-225000J0D01*
G01*
X76100000Y-85225000D01*
G75*
G02*
X75875000Y-85000000I0J225000D01*
G01*
X75875000Y-84550000D01*
G75*
G02*
X76100000Y-84325000I225000J0D01*
G01*
G37*
%TD.AperFunction*%
%TO.P,C18,1*%
%TO.N,RESET*%
%TA.AperFunction,SMDPad,CuDef*%
G36*
G01*
X76100000Y-82775000D02*
X76600000Y-82775000D01*
G75*
G02*
X76825000Y-83000000I0J-225000D01*
G01*
X76825000Y-83450000D01*
G75*
G02*
X76600000Y-83675000I-225000J0D01*
G01*
X76100000Y-83675000D01*
G75*
G02*
X75875000Y-83450000I0J225000D01*
G01*
X75875000Y-83000000D01*
G75*
G02*
X76100000Y-82775000I225000J0D01*
G01*
G37*
%TD.AperFunction*%
%TD*%
%TO.P,C19,1*%
%TO.N,+5V*%
%TA.AperFunction,SMDPad,CuDef*%
G36*
G01*
X75840000Y-93690000D02*
X75340000Y-93690000D01*
G75*
G02*
X75115000Y-93465000I0J225000D01*
G01*
X75115000Y-93015000D01*
G75*
G02*
X75340000Y-92790000I225000J0D01*
G01*
X75840000Y-92790000D01*
G75*
G02*
X76065000Y-93015000I0J-225000D01*
G01*
X76065000Y-93465000D01*
G75*
G02*
X75840000Y-93690000I-225000J0D01*
G01*
G37*
%TD.AperFunction*%
%TO.P,C19,2*%
%TO.N,GNDREF*%
%TA.AperFunction,SMDPad,CuDef*%
G36*
G01*
X75840000Y-92140000D02*
X75340000Y-92140000D01*
G75*
G02*
X75115000Y-91915000I0J225000D01*
G01*
X75115000Y-91465000D01*
G75*
G02*
X75340000Y-91240000I225000J0D01*
G01*
X75840000Y-91240000D01*
G75*
G02*
X76065000Y-91465000I0J-225000D01*
G01*
X76065000Y-91915000D01*
G75*
G02*
X75840000Y-92140000I-225000J0D01*
G01*
G37*
%TD.AperFunction*%
%TD*%
D10*
%TO.P,TP1,1*%
%TO.N,PIN1*%
X96550000Y-82500000D03*
%TD*%
%TO.P,TP4,1*%
%TO.N,PIN4*%
X101260000Y-91080000D03*
%TD*%
%TO.P,D3,2*%
%TO.N,USART_TX*%
%TA.AperFunction,SMDPad,CuDef*%
G36*
G01*
X83310000Y-96106250D02*
X83310000Y-95593750D01*
G75*
G02*
X83528750Y-95375000I218750J0D01*
G01*
X83966250Y-95375000D01*
G75*
G02*
X84185000Y-95593750I0J-218750D01*
G01*
X84185000Y-96106250D01*
G75*
G02*
X83966250Y-96325000I-218750J0D01*
G01*
X83528750Y-96325000D01*
G75*
G02*
X83310000Y-96106250I0J218750D01*
G01*
G37*
%TD.AperFunction*%
%TO.P,D3,1*%
%TO.N,Net-(D3-Pad1)*%
%TA.AperFunction,SMDPad,CuDef*%
G36*
G01*
X81735000Y-96106250D02*
X81735000Y-95593750D01*
G75*
G02*
X81953750Y-95375000I218750J0D01*
G01*
X82391250Y-95375000D01*
G75*
G02*
X82610000Y-95593750I0J-218750D01*
G01*
X82610000Y-96106250D01*
G75*
G02*
X82391250Y-96325000I-218750J0D01*
G01*
X81953750Y-96325000D01*
G75*
G02*
X81735000Y-96106250I0J218750D01*
G01*
G37*
%TD.AperFunction*%
%TD*%
%TO.P,D4,1*%
%TO.N,Net-(D4-Pad1)*%
%TA.AperFunction,SMDPad,CuDef*%
G36*
G01*
X86497500Y-82393750D02*
X86497500Y-82906250D01*
G75*
G02*
X86278750Y-83125000I-218750J0D01*
G01*
X85841250Y-83125000D01*
G75*
G02*
X85622500Y-82906250I0J218750D01*
G01*
X85622500Y-82393750D01*
G75*
G02*
X85841250Y-82175000I218750J0D01*
G01*
X86278750Y-82175000D01*
G75*
G02*
X86497500Y-82393750I0J-218750D01*
G01*
G37*
%TD.AperFunction*%
%TO.P,D4,2*%
%TO.N,USART_RX*%
%TA.AperFunction,SMDPad,CuDef*%
G36*
G01*
X84922500Y-82393750D02*
X84922500Y-82906250D01*
G75*
G02*
X84703750Y-83125000I-218750J0D01*
G01*
X84266250Y-83125000D01*
G75*
G02*
X84047500Y-82906250I0J218750D01*
G01*
X84047500Y-82393750D01*
G75*
G02*
X84266250Y-82175000I218750J0D01*
G01*
X84703750Y-82175000D01*
G75*
G02*
X84922500Y-82393750I0J-218750D01*
G01*
G37*
%TD.AperFunction*%
%TD*%
%TO.P,R7,1*%
%TO.N,Net-(D3-Pad1)*%
%TA.AperFunction,SMDPad,CuDef*%
G36*
G01*
X85015000Y-96125000D02*
X85015000Y-95575000D01*
G75*
G02*
X85215000Y-95375000I200000J0D01*
G01*
X85615000Y-95375000D01*
G75*
G02*
X85815000Y-95575000I0J-200000D01*
G01*
X85815000Y-96125000D01*
G75*
G02*
X85615000Y-96325000I-200000J0D01*
G01*
X85215000Y-96325000D01*
G75*
G02*
X85015000Y-96125000I0J200000D01*
G01*
G37*
%TD.AperFunction*%
%TO.P,R7,2*%
%TO.N,GNDREF*%
%TA.AperFunction,SMDPad,CuDef*%
G36*
G01*
X86665000Y-96125000D02*
X86665000Y-95575000D01*
G75*
G02*
X86865000Y-95375000I200000J0D01*
G01*
X87265000Y-95375000D01*
G75*
G02*
X87465000Y-95575000I0J-200000D01*
G01*
X87465000Y-96125000D01*
G75*
G02*
X87265000Y-96325000I-200000J0D01*
G01*
X86865000Y-96325000D01*
G75*
G02*
X86665000Y-96125000I0J200000D01*
G01*
G37*
%TD.AperFunction*%
%TD*%
%TO.P,R8,2*%
%TO.N,GNDREF*%
%TA.AperFunction,SMDPad,CuDef*%
G36*
G01*
X81685000Y-82385000D02*
X81685000Y-82935000D01*
G75*
G02*
X81485000Y-83135000I-200000J0D01*
G01*
X81085000Y-83135000D01*
G75*
G02*
X80885000Y-82935000I0J200000D01*
G01*
X80885000Y-82385000D01*
G75*
G02*
X81085000Y-82185000I200000J0D01*
G01*
X81485000Y-82185000D01*
G75*
G02*
X81685000Y-82385000I0J-200000D01*
G01*
G37*
%TD.AperFunction*%
%TO.P,R8,1*%
%TO.N,Net-(D4-Pad1)*%
%TA.AperFunction,SMDPad,CuDef*%
G36*
G01*
X83335000Y-82385000D02*
X83335000Y-82935000D01*
G75*
G02*
X83135000Y-83135000I-200000J0D01*
G01*
X82735000Y-83135000D01*
G75*
G02*
X82535000Y-82935000I0J200000D01*
G01*
X82535000Y-82385000D01*
G75*
G02*
X82735000Y-82185000I200000J0D01*
G01*
X83135000Y-82185000D01*
G75*
G02*
X83335000Y-82385000I0J-200000D01*
G01*
G37*
%TD.AperFunction*%
%TD*%
%TO.P,C2,1*%
%TO.N,+3V3*%
%TA.AperFunction,SMDPad,CuDef*%
G36*
G01*
X100720000Y-85730000D02*
X101220000Y-85730000D01*
G75*
G02*
X101445000Y-85955000I0J-225000D01*
G01*
X101445000Y-86405000D01*
G75*
G02*
X101220000Y-86630000I-225000J0D01*
G01*
X100720000Y-86630000D01*
G75*
G02*
X100495000Y-86405000I0J225000D01*
G01*
X100495000Y-85955000D01*
G75*
G02*
X100720000Y-85730000I225000J0D01*
G01*
G37*
%TD.AperFunction*%
%TO.P,C2,2*%
%TO.N,GNDREF*%
%TA.AperFunction,SMDPad,CuDef*%
G36*
G01*
X100720000Y-87280000D02*
X101220000Y-87280000D01*
G75*
G02*
X101445000Y-87505000I0J-225000D01*
G01*
X101445000Y-87955000D01*
G75*
G02*
X101220000Y-88180000I-225000J0D01*
G01*
X100720000Y-88180000D01*
G75*
G02*
X100495000Y-87955000I0J225000D01*
G01*
X100495000Y-87505000D01*
G75*
G02*
X100720000Y-87280000I225000J0D01*
G01*
G37*
%TD.AperFunction*%
%TD*%
%TO.P,C3,2*%
%TO.N,GNDREF*%
%TA.AperFunction,SMDPad,CuDef*%
G36*
G01*
X88340000Y-87935000D02*
X88840000Y-87935000D01*
G75*
G02*
X89065000Y-88160000I0J-225000D01*
G01*
X89065000Y-88610000D01*
G75*
G02*
X88840000Y-88835000I-225000J0D01*
G01*
X88340000Y-88835000D01*
G75*
G02*
X88115000Y-88610000I0J225000D01*
G01*
X88115000Y-88160000D01*
G75*
G02*
X88340000Y-87935000I225000J0D01*
G01*
G37*
%TD.AperFunction*%
%TO.P,C3,1*%
%TO.N,+3V3*%
%TA.AperFunction,SMDPad,CuDef*%
G36*
G01*
X88340000Y-86385000D02*
X88840000Y-86385000D01*
G75*
G02*
X89065000Y-86610000I0J-225000D01*
G01*
X89065000Y-87060000D01*
G75*
G02*
X88840000Y-87285000I-225000J0D01*
G01*
X88340000Y-87285000D01*
G75*
G02*
X88115000Y-87060000I0J225000D01*
G01*
X88115000Y-86610000D01*
G75*
G02*
X88340000Y-86385000I225000J0D01*
G01*
G37*
%TD.AperFunction*%
%TD*%
%TO.P,C6,2*%
%TO.N,GNDREF*%
%TA.AperFunction,SMDPad,CuDef*%
G36*
G01*
X97205000Y-95490000D02*
X97205000Y-95990000D01*
G75*
G02*
X96980000Y-96215000I-225000J0D01*
G01*
X96530000Y-96215000D01*
G75*
G02*
X96305000Y-95990000I0J225000D01*
G01*
X96305000Y-95490000D01*
G75*
G02*
X96530000Y-95265000I225000J0D01*
G01*
X96980000Y-95265000D01*
G75*
G02*
X97205000Y-95490000I0J-225000D01*
G01*
G37*
%TD.AperFunction*%
%TO.P,C6,1*%
%TO.N,+3V3*%
%TA.AperFunction,SMDPad,CuDef*%
G36*
G01*
X98755000Y-95490000D02*
X98755000Y-95990000D01*
G75*
G02*
X98530000Y-96215000I-225000J0D01*
G01*
X98080000Y-96215000D01*
G75*
G02*
X97855000Y-95990000I0J225000D01*
G01*
X97855000Y-95490000D01*
G75*
G02*
X98080000Y-95265000I225000J0D01*
G01*
X98530000Y-95265000D01*
G75*
G02*
X98755000Y-95490000I0J-225000D01*
G01*
G37*
%TD.AperFunction*%
%TD*%
%TO.P,C8,2*%
%TO.N,GNDREF*%
%TA.AperFunction,SMDPad,CuDef*%
G36*
G01*
X90395000Y-82880000D02*
X90395000Y-82380000D01*
G75*
G02*
X90620000Y-82155000I225000J0D01*
G01*
X91070000Y-82155000D01*
G75*
G02*
X91295000Y-82380000I0J-225000D01*
G01*
X91295000Y-82880000D01*
G75*
G02*
X91070000Y-83105000I-225000J0D01*
G01*
X90620000Y-83105000D01*
G75*
G02*
X90395000Y-82880000I0J225000D01*
G01*
G37*
%TD.AperFunction*%
%TO.P,C8,1*%
%TO.N,+3V3*%
%TA.AperFunction,SMDPad,CuDef*%
G36*
G01*
X88845000Y-82880000D02*
X88845000Y-82380000D01*
G75*
G02*
X89070000Y-82155000I225000J0D01*
G01*
X89520000Y-82155000D01*
G75*
G02*
X89745000Y-82380000I0J-225000D01*
G01*
X89745000Y-82880000D01*
G75*
G02*
X89520000Y-83105000I-225000J0D01*
G01*
X89070000Y-83105000D01*
G75*
G02*
X88845000Y-82880000I0J225000D01*
G01*
G37*
%TD.AperFunction*%
%TD*%
%TO.P,C10,1*%
%TO.N,+3V3*%
%TA.AperFunction,SMDPad,CuDef*%
G36*
G01*
X88870000Y-92155000D02*
X88370000Y-92155000D01*
G75*
G02*
X88145000Y-91930000I0J225000D01*
G01*
X88145000Y-91480000D01*
G75*
G02*
X88370000Y-91255000I225000J0D01*
G01*
X88870000Y-91255000D01*
G75*
G02*
X89095000Y-91480000I0J-225000D01*
G01*
X89095000Y-91930000D01*
G75*
G02*
X88870000Y-92155000I-225000J0D01*
G01*
G37*
%TD.AperFunction*%
%TO.P,C10,2*%
%TO.N,GNDREF*%
%TA.AperFunction,SMDPad,CuDef*%
G36*
G01*
X88870000Y-90605000D02*
X88370000Y-90605000D01*
G75*
G02*
X88145000Y-90380000I0J225000D01*
G01*
X88145000Y-89930000D01*
G75*
G02*
X88370000Y-89705000I225000J0D01*
G01*
X88870000Y-89705000D01*
G75*
G02*
X89095000Y-89930000I0J-225000D01*
G01*
X89095000Y-90380000D01*
G75*
G02*
X88870000Y-90605000I-225000J0D01*
G01*
G37*
%TD.AperFunction*%
%TD*%
%TO.P,U1,1*%
%TO.N,+3V3*%
%TA.AperFunction,SMDPad,CuDef*%
G36*
G01*
X89680000Y-86585000D02*
X89680000Y-86435000D01*
G75*
G02*
X89755000Y-86360000I75000J0D01*
G01*
X91080000Y-86360000D01*
G75*
G02*
X91155000Y-86435000I0J-75000D01*
G01*
X91155000Y-86585000D01*
G75*
G02*
X91080000Y-86660000I-75000J0D01*
G01*
X89755000Y-86660000D01*
G75*
G02*
X89680000Y-86585000I0J75000D01*
G01*
G37*
%TD.AperFunction*%
%TO.P,U1,2*%
%TO.N,BLUE_LED*%
%TA.AperFunction,SMDPad,CuDef*%
G36*
G01*
X89680000Y-87085000D02*
X89680000Y-86935000D01*
G75*
G02*
X89755000Y-86860000I75000J0D01*
G01*
X91080000Y-86860000D01*
G75*
G02*
X91155000Y-86935000I0J-75000D01*
G01*
X91155000Y-87085000D01*
G75*
G02*
X91080000Y-87160000I-75000J0D01*
G01*
X89755000Y-87160000D01*
G75*
G02*
X89680000Y-87085000I0J75000D01*
G01*
G37*
%TD.AperFunction*%
%TO.P,U1,3*%
%TO.N,N/C*%
%TA.AperFunction,SMDPad,CuDef*%
G36*
G01*
X89680000Y-87585000D02*
X89680000Y-87435000D01*
G75*
G02*
X89755000Y-87360000I75000J0D01*
G01*
X91080000Y-87360000D01*
G75*
G02*
X91155000Y-87435000I0J-75000D01*
G01*
X91155000Y-87585000D01*
G75*
G02*
X91080000Y-87660000I-75000J0D01*
G01*
X89755000Y-87660000D01*
G75*
G02*
X89680000Y-87585000I0J75000D01*
G01*
G37*
%TD.AperFunction*%
%TO.P,U1,4*%
%TA.AperFunction,SMDPad,CuDef*%
G36*
G01*
X89680000Y-88085000D02*
X89680000Y-87935000D01*
G75*
G02*
X89755000Y-87860000I75000J0D01*
G01*
X91080000Y-87860000D01*
G75*
G02*
X91155000Y-87935000I0J-75000D01*
G01*
X91155000Y-88085000D01*
G75*
G02*
X91080000Y-88160000I-75000J0D01*
G01*
X89755000Y-88160000D01*
G75*
G02*
X89680000Y-88085000I0J75000D01*
G01*
G37*
%TD.AperFunction*%
%TO.P,U1,5*%
%TA.AperFunction,SMDPad,CuDef*%
G36*
G01*
X89680000Y-88585000D02*
X89680000Y-88435000D01*
G75*
G02*
X89755000Y-88360000I75000J0D01*
G01*
X91080000Y-88360000D01*
G75*
G02*
X91155000Y-88435000I0J-75000D01*
G01*
X91155000Y-88585000D01*
G75*
G02*
X91080000Y-88660000I-75000J0D01*
G01*
X89755000Y-88660000D01*
G75*
G02*
X89680000Y-88585000I0J75000D01*
G01*
G37*
%TD.AperFunction*%
%TO.P,U1,6*%
%TA.AperFunction,SMDPad,CuDef*%
G36*
G01*
X89680000Y-89085000D02*
X89680000Y-88935000D01*
G75*
G02*
X89755000Y-88860000I75000J0D01*
G01*
X91080000Y-88860000D01*
G75*
G02*
X91155000Y-88935000I0J-75000D01*
G01*
X91155000Y-89085000D01*
G75*
G02*
X91080000Y-89160000I-75000J0D01*
G01*
X89755000Y-89160000D01*
G75*
G02*
X89680000Y-89085000I0J75000D01*
G01*
G37*
%TD.AperFunction*%
%TO.P,U1,7*%
%TO.N,RESET*%
%TA.AperFunction,SMDPad,CuDef*%
G36*
G01*
X89680000Y-89585000D02*
X89680000Y-89435000D01*
G75*
G02*
X89755000Y-89360000I75000J0D01*
G01*
X91080000Y-89360000D01*
G75*
G02*
X91155000Y-89435000I0J-75000D01*
G01*
X91155000Y-89585000D01*
G75*
G02*
X91080000Y-89660000I-75000J0D01*
G01*
X89755000Y-89660000D01*
G75*
G02*
X89680000Y-89585000I0J75000D01*
G01*
G37*
%TD.AperFunction*%
%TO.P,U1,8*%
%TO.N,GNDREF*%
%TA.AperFunction,SMDPad,CuDef*%
G36*
G01*
X89680000Y-90085000D02*
X89680000Y-89935000D01*
G75*
G02*
X89755000Y-89860000I75000J0D01*
G01*
X91080000Y-89860000D01*
G75*
G02*
X91155000Y-89935000I0J-75000D01*
G01*
X91155000Y-90085000D01*
G75*
G02*
X91080000Y-90160000I-75000J0D01*
G01*
X89755000Y-90160000D01*
G75*
G02*
X89680000Y-90085000I0J75000D01*
G01*
G37*
%TD.AperFunction*%
%TO.P,U1,9*%
%TO.N,+3V3*%
%TA.AperFunction,SMDPad,CuDef*%
G36*
G01*
X89680000Y-90585000D02*
X89680000Y-90435000D01*
G75*
G02*
X89755000Y-90360000I75000J0D01*
G01*
X91080000Y-90360000D01*
G75*
G02*
X91155000Y-90435000I0J-75000D01*
G01*
X91155000Y-90585000D01*
G75*
G02*
X91080000Y-90660000I-75000J0D01*
G01*
X89755000Y-90660000D01*
G75*
G02*
X89680000Y-90585000I0J75000D01*
G01*
G37*
%TD.AperFunction*%
%TO.P,U1,10*%
%TO.N,PIN3*%
%TA.AperFunction,SMDPad,CuDef*%
G36*
G01*
X89680000Y-91085000D02*
X89680000Y-90935000D01*
G75*
G02*
X89755000Y-90860000I75000J0D01*
G01*
X91080000Y-90860000D01*
G75*
G02*
X91155000Y-90935000I0J-75000D01*
G01*
X91155000Y-91085000D01*
G75*
G02*
X91080000Y-91160000I-75000J0D01*
G01*
X89755000Y-91160000D01*
G75*
G02*
X89680000Y-91085000I0J75000D01*
G01*
G37*
%TD.AperFunction*%
%TO.P,U1,11*%
%TO.N,N/C*%
%TA.AperFunction,SMDPad,CuDef*%
G36*
G01*
X89680000Y-91585000D02*
X89680000Y-91435000D01*
G75*
G02*
X89755000Y-91360000I75000J0D01*
G01*
X91080000Y-91360000D01*
G75*
G02*
X91155000Y-91435000I0J-75000D01*
G01*
X91155000Y-91585000D01*
G75*
G02*
X91080000Y-91660000I-75000J0D01*
G01*
X89755000Y-91660000D01*
G75*
G02*
X89680000Y-91585000I0J75000D01*
G01*
G37*
%TD.AperFunction*%
%TO.P,U1,12*%
%TA.AperFunction,SMDPad,CuDef*%
G36*
G01*
X89680000Y-92085000D02*
X89680000Y-91935000D01*
G75*
G02*
X89755000Y-91860000I75000J0D01*
G01*
X91080000Y-91860000D01*
G75*
G02*
X91155000Y-91935000I0J-75000D01*
G01*
X91155000Y-92085000D01*
G75*
G02*
X91080000Y-92160000I-75000J0D01*
G01*
X89755000Y-92160000D01*
G75*
G02*
X89680000Y-92085000I0J75000D01*
G01*
G37*
%TD.AperFunction*%
%TO.P,U1,13*%
%TO.N,PIN2*%
%TA.AperFunction,SMDPad,CuDef*%
G36*
G01*
X91680000Y-94085000D02*
X91680000Y-92760000D01*
G75*
G02*
X91755000Y-92685000I75000J0D01*
G01*
X91905000Y-92685000D01*
G75*
G02*
X91980000Y-92760000I0J-75000D01*
G01*
X91980000Y-94085000D01*
G75*
G02*
X91905000Y-94160000I-75000J0D01*
G01*
X91755000Y-94160000D01*
G75*
G02*
X91680000Y-94085000I0J75000D01*
G01*
G37*
%TD.AperFunction*%
%TO.P,U1,14*%
%TO.N,N/C*%
%TA.AperFunction,SMDPad,CuDef*%
G36*
G01*
X92180000Y-94085000D02*
X92180000Y-92760000D01*
G75*
G02*
X92255000Y-92685000I75000J0D01*
G01*
X92405000Y-92685000D01*
G75*
G02*
X92480000Y-92760000I0J-75000D01*
G01*
X92480000Y-94085000D01*
G75*
G02*
X92405000Y-94160000I-75000J0D01*
G01*
X92255000Y-94160000D01*
G75*
G02*
X92180000Y-94085000I0J75000D01*
G01*
G37*
%TD.AperFunction*%
%TO.P,U1,15*%
%TA.AperFunction,SMDPad,CuDef*%
G36*
G01*
X92680000Y-94085000D02*
X92680000Y-92760000D01*
G75*
G02*
X92755000Y-92685000I75000J0D01*
G01*
X92905000Y-92685000D01*
G75*
G02*
X92980000Y-92760000I0J-75000D01*
G01*
X92980000Y-94085000D01*
G75*
G02*
X92905000Y-94160000I-75000J0D01*
G01*
X92755000Y-94160000D01*
G75*
G02*
X92680000Y-94085000I0J75000D01*
G01*
G37*
%TD.AperFunction*%
%TO.P,U1,16*%
%TA.AperFunction,SMDPad,CuDef*%
G36*
G01*
X93180000Y-94085000D02*
X93180000Y-92760000D01*
G75*
G02*
X93255000Y-92685000I75000J0D01*
G01*
X93405000Y-92685000D01*
G75*
G02*
X93480000Y-92760000I0J-75000D01*
G01*
X93480000Y-94085000D01*
G75*
G02*
X93405000Y-94160000I-75000J0D01*
G01*
X93255000Y-94160000D01*
G75*
G02*
X93180000Y-94085000I0J75000D01*
G01*
G37*
%TD.AperFunction*%
%TO.P,U1,17*%
%TA.AperFunction,SMDPad,CuDef*%
G36*
G01*
X93680000Y-94085000D02*
X93680000Y-92760000D01*
G75*
G02*
X93755000Y-92685000I75000J0D01*
G01*
X93905000Y-92685000D01*
G75*
G02*
X93980000Y-92760000I0J-75000D01*
G01*
X93980000Y-94085000D01*
G75*
G02*
X93905000Y-94160000I-75000J0D01*
G01*
X93755000Y-94160000D01*
G75*
G02*
X93680000Y-94085000I0J75000D01*
G01*
G37*
%TD.AperFunction*%
%TO.P,U1,18*%
%TA.AperFunction,SMDPad,CuDef*%
G36*
G01*
X94180000Y-94085000D02*
X94180000Y-92760000D01*
G75*
G02*
X94255000Y-92685000I75000J0D01*
G01*
X94405000Y-92685000D01*
G75*
G02*
X94480000Y-92760000I0J-75000D01*
G01*
X94480000Y-94085000D01*
G75*
G02*
X94405000Y-94160000I-75000J0D01*
G01*
X94255000Y-94160000D01*
G75*
G02*
X94180000Y-94085000I0J75000D01*
G01*
G37*
%TD.AperFunction*%
%TO.P,U1,19*%
%TA.AperFunction,SMDPad,CuDef*%
G36*
G01*
X94680000Y-94085000D02*
X94680000Y-92760000D01*
G75*
G02*
X94755000Y-92685000I75000J0D01*
G01*
X94905000Y-92685000D01*
G75*
G02*
X94980000Y-92760000I0J-75000D01*
G01*
X94980000Y-94085000D01*
G75*
G02*
X94905000Y-94160000I-75000J0D01*
G01*
X94755000Y-94160000D01*
G75*
G02*
X94680000Y-94085000I0J75000D01*
G01*
G37*
%TD.AperFunction*%
%TO.P,U1,20*%
%TA.AperFunction,SMDPad,CuDef*%
G36*
G01*
X95180000Y-94085000D02*
X95180000Y-92760000D01*
G75*
G02*
X95255000Y-92685000I75000J0D01*
G01*
X95405000Y-92685000D01*
G75*
G02*
X95480000Y-92760000I0J-75000D01*
G01*
X95480000Y-94085000D01*
G75*
G02*
X95405000Y-94160000I-75000J0D01*
G01*
X95255000Y-94160000D01*
G75*
G02*
X95180000Y-94085000I0J75000D01*
G01*
G37*
%TD.AperFunction*%
%TO.P,U1,21*%
%TO.N,USART_TX*%
%TA.AperFunction,SMDPad,CuDef*%
G36*
G01*
X95680000Y-94085000D02*
X95680000Y-92760000D01*
G75*
G02*
X95755000Y-92685000I75000J0D01*
G01*
X95905000Y-92685000D01*
G75*
G02*
X95980000Y-92760000I0J-75000D01*
G01*
X95980000Y-94085000D01*
G75*
G02*
X95905000Y-94160000I-75000J0D01*
G01*
X95755000Y-94160000D01*
G75*
G02*
X95680000Y-94085000I0J75000D01*
G01*
G37*
%TD.AperFunction*%
%TO.P,U1,22*%
%TO.N,USART_RX*%
%TA.AperFunction,SMDPad,CuDef*%
G36*
G01*
X96180000Y-94085000D02*
X96180000Y-92760000D01*
G75*
G02*
X96255000Y-92685000I75000J0D01*
G01*
X96405000Y-92685000D01*
G75*
G02*
X96480000Y-92760000I0J-75000D01*
G01*
X96480000Y-94085000D01*
G75*
G02*
X96405000Y-94160000I-75000J0D01*
G01*
X96255000Y-94160000D01*
G75*
G02*
X96180000Y-94085000I0J75000D01*
G01*
G37*
%TD.AperFunction*%
%TO.P,U1,23*%
%TO.N,GNDREF*%
%TA.AperFunction,SMDPad,CuDef*%
G36*
G01*
X96680000Y-94085000D02*
X96680000Y-92760000D01*
G75*
G02*
X96755000Y-92685000I75000J0D01*
G01*
X96905000Y-92685000D01*
G75*
G02*
X96980000Y-92760000I0J-75000D01*
G01*
X96980000Y-94085000D01*
G75*
G02*
X96905000Y-94160000I-75000J0D01*
G01*
X96755000Y-94160000D01*
G75*
G02*
X96680000Y-94085000I0J75000D01*
G01*
G37*
%TD.AperFunction*%
%TO.P,U1,24*%
%TO.N,+3V3*%
%TA.AperFunction,SMDPad,CuDef*%
G36*
G01*
X97180000Y-94085000D02*
X97180000Y-92760000D01*
G75*
G02*
X97255000Y-92685000I75000J0D01*
G01*
X97405000Y-92685000D01*
G75*
G02*
X97480000Y-92760000I0J-75000D01*
G01*
X97480000Y-94085000D01*
G75*
G02*
X97405000Y-94160000I-75000J0D01*
G01*
X97255000Y-94160000D01*
G75*
G02*
X97180000Y-94085000I0J75000D01*
G01*
G37*
%TD.AperFunction*%
%TO.P,U1,25*%
%TO.N,PIN5*%
%TA.AperFunction,SMDPad,CuDef*%
G36*
G01*
X98005000Y-92085000D02*
X98005000Y-91935000D01*
G75*
G02*
X98080000Y-91860000I75000J0D01*
G01*
X99405000Y-91860000D01*
G75*
G02*
X99480000Y-91935000I0J-75000D01*
G01*
X99480000Y-92085000D01*
G75*
G02*
X99405000Y-92160000I-75000J0D01*
G01*
X98080000Y-92160000D01*
G75*
G02*
X98005000Y-92085000I0J75000D01*
G01*
G37*
%TD.AperFunction*%
%TO.P,U1,26*%
%TO.N,N/C*%
%TA.AperFunction,SMDPad,CuDef*%
G36*
G01*
X98005000Y-91585000D02*
X98005000Y-91435000D01*
G75*
G02*
X98080000Y-91360000I75000J0D01*
G01*
X99405000Y-91360000D01*
G75*
G02*
X99480000Y-91435000I0J-75000D01*
G01*
X99480000Y-91585000D01*
G75*
G02*
X99405000Y-91660000I-75000J0D01*
G01*
X98080000Y-91660000D01*
G75*
G02*
X98005000Y-91585000I0J75000D01*
G01*
G37*
%TD.AperFunction*%
%TO.P,U1,27*%
%TA.AperFunction,SMDPad,CuDef*%
G36*
G01*
X98005000Y-91085000D02*
X98005000Y-90935000D01*
G75*
G02*
X98080000Y-90860000I75000J0D01*
G01*
X99405000Y-90860000D01*
G75*
G02*
X99480000Y-90935000I0J-75000D01*
G01*
X99480000Y-91085000D01*
G75*
G02*
X99405000Y-91160000I-75000J0D01*
G01*
X98080000Y-91160000D01*
G75*
G02*
X98005000Y-91085000I0J75000D01*
G01*
G37*
%TD.AperFunction*%
%TO.P,U1,28*%
%TA.AperFunction,SMDPad,CuDef*%
G36*
G01*
X98005000Y-90585000D02*
X98005000Y-90435000D01*
G75*
G02*
X98080000Y-90360000I75000J0D01*
G01*
X99405000Y-90360000D01*
G75*
G02*
X99480000Y-90435000I0J-75000D01*
G01*
X99480000Y-90585000D01*
G75*
G02*
X99405000Y-90660000I-75000J0D01*
G01*
X98080000Y-90660000D01*
G75*
G02*
X98005000Y-90585000I0J75000D01*
G01*
G37*
%TD.AperFunction*%
%TO.P,U1,29*%
%TO.N,PIN4*%
%TA.AperFunction,SMDPad,CuDef*%
G36*
G01*
X98005000Y-90085000D02*
X98005000Y-89935000D01*
G75*
G02*
X98080000Y-89860000I75000J0D01*
G01*
X99405000Y-89860000D01*
G75*
G02*
X99480000Y-89935000I0J-75000D01*
G01*
X99480000Y-90085000D01*
G75*
G02*
X99405000Y-90160000I-75000J0D01*
G01*
X98080000Y-90160000D01*
G75*
G02*
X98005000Y-90085000I0J75000D01*
G01*
G37*
%TD.AperFunction*%
%TO.P,U1,30*%
%TO.N,N/C*%
%TA.AperFunction,SMDPad,CuDef*%
G36*
G01*
X98005000Y-89585000D02*
X98005000Y-89435000D01*
G75*
G02*
X98080000Y-89360000I75000J0D01*
G01*
X99405000Y-89360000D01*
G75*
G02*
X99480000Y-89435000I0J-75000D01*
G01*
X99480000Y-89585000D01*
G75*
G02*
X99405000Y-89660000I-75000J0D01*
G01*
X98080000Y-89660000D01*
G75*
G02*
X98005000Y-89585000I0J75000D01*
G01*
G37*
%TD.AperFunction*%
%TO.P,U1,31*%
%TA.AperFunction,SMDPad,CuDef*%
G36*
G01*
X98005000Y-89085000D02*
X98005000Y-88935000D01*
G75*
G02*
X98080000Y-88860000I75000J0D01*
G01*
X99405000Y-88860000D01*
G75*
G02*
X99480000Y-88935000I0J-75000D01*
G01*
X99480000Y-89085000D01*
G75*
G02*
X99405000Y-89160000I-75000J0D01*
G01*
X98080000Y-89160000D01*
G75*
G02*
X98005000Y-89085000I0J75000D01*
G01*
G37*
%TD.AperFunction*%
%TO.P,U1,32*%
%TA.AperFunction,SMDPad,CuDef*%
G36*
G01*
X98005000Y-88585000D02*
X98005000Y-88435000D01*
G75*
G02*
X98080000Y-88360000I75000J0D01*
G01*
X99405000Y-88360000D01*
G75*
G02*
X99480000Y-88435000I0J-75000D01*
G01*
X99480000Y-88585000D01*
G75*
G02*
X99405000Y-88660000I-75000J0D01*
G01*
X98080000Y-88660000D01*
G75*
G02*
X98005000Y-88585000I0J75000D01*
G01*
G37*
%TD.AperFunction*%
%TO.P,U1,33*%
%TA.AperFunction,SMDPad,CuDef*%
G36*
G01*
X98005000Y-88085000D02*
X98005000Y-87935000D01*
G75*
G02*
X98080000Y-87860000I75000J0D01*
G01*
X99405000Y-87860000D01*
G75*
G02*
X99480000Y-87935000I0J-75000D01*
G01*
X99480000Y-88085000D01*
G75*
G02*
X99405000Y-88160000I-75000J0D01*
G01*
X98080000Y-88160000D01*
G75*
G02*
X98005000Y-88085000I0J75000D01*
G01*
G37*
%TD.AperFunction*%
%TO.P,U1,34*%
%TO.N,SWDIO*%
%TA.AperFunction,SMDPad,CuDef*%
G36*
G01*
X98005000Y-87585000D02*
X98005000Y-87435000D01*
G75*
G02*
X98080000Y-87360000I75000J0D01*
G01*
X99405000Y-87360000D01*
G75*
G02*
X99480000Y-87435000I0J-75000D01*
G01*
X99480000Y-87585000D01*
G75*
G02*
X99405000Y-87660000I-75000J0D01*
G01*
X98080000Y-87660000D01*
G75*
G02*
X98005000Y-87585000I0J75000D01*
G01*
G37*
%TD.AperFunction*%
%TO.P,U1,35*%
%TO.N,GNDREF*%
%TA.AperFunction,SMDPad,CuDef*%
G36*
G01*
X98005000Y-87085000D02*
X98005000Y-86935000D01*
G75*
G02*
X98080000Y-86860000I75000J0D01*
G01*
X99405000Y-86860000D01*
G75*
G02*
X99480000Y-86935000I0J-75000D01*
G01*
X99480000Y-87085000D01*
G75*
G02*
X99405000Y-87160000I-75000J0D01*
G01*
X98080000Y-87160000D01*
G75*
G02*
X98005000Y-87085000I0J75000D01*
G01*
G37*
%TD.AperFunction*%
%TO.P,U1,36*%
%TO.N,+3V3*%
%TA.AperFunction,SMDPad,CuDef*%
G36*
G01*
X98005000Y-86585000D02*
X98005000Y-86435000D01*
G75*
G02*
X98080000Y-86360000I75000J0D01*
G01*
X99405000Y-86360000D01*
G75*
G02*
X99480000Y-86435000I0J-75000D01*
G01*
X99480000Y-86585000D01*
G75*
G02*
X99405000Y-86660000I-75000J0D01*
G01*
X98080000Y-86660000D01*
G75*
G02*
X98005000Y-86585000I0J75000D01*
G01*
G37*
%TD.AperFunction*%
%TO.P,U1,37*%
%TO.N,SWCLK*%
%TA.AperFunction,SMDPad,CuDef*%
G36*
G01*
X97180000Y-85760000D02*
X97180000Y-84435000D01*
G75*
G02*
X97255000Y-84360000I75000J0D01*
G01*
X97405000Y-84360000D01*
G75*
G02*
X97480000Y-84435000I0J-75000D01*
G01*
X97480000Y-85760000D01*
G75*
G02*
X97405000Y-85835000I-75000J0D01*
G01*
X97255000Y-85835000D01*
G75*
G02*
X97180000Y-85760000I0J75000D01*
G01*
G37*
%TD.AperFunction*%
%TO.P,U1,38*%
%TO.N,N/C*%
%TA.AperFunction,SMDPad,CuDef*%
G36*
G01*
X96680000Y-85760000D02*
X96680000Y-84435000D01*
G75*
G02*
X96755000Y-84360000I75000J0D01*
G01*
X96905000Y-84360000D01*
G75*
G02*
X96980000Y-84435000I0J-75000D01*
G01*
X96980000Y-85760000D01*
G75*
G02*
X96905000Y-85835000I-75000J0D01*
G01*
X96755000Y-85835000D01*
G75*
G02*
X96680000Y-85760000I0J75000D01*
G01*
G37*
%TD.AperFunction*%
%TO.P,U1,39*%
%TA.AperFunction,SMDPad,CuDef*%
G36*
G01*
X96180000Y-85760000D02*
X96180000Y-84435000D01*
G75*
G02*
X96255000Y-84360000I75000J0D01*
G01*
X96405000Y-84360000D01*
G75*
G02*
X96480000Y-84435000I0J-75000D01*
G01*
X96480000Y-85760000D01*
G75*
G02*
X96405000Y-85835000I-75000J0D01*
G01*
X96255000Y-85835000D01*
G75*
G02*
X96180000Y-85760000I0J75000D01*
G01*
G37*
%TD.AperFunction*%
%TO.P,U1,40*%
%TO.N,PIN1*%
%TA.AperFunction,SMDPad,CuDef*%
G36*
G01*
X95680000Y-85760000D02*
X95680000Y-84435000D01*
G75*
G02*
X95755000Y-84360000I75000J0D01*
G01*
X95905000Y-84360000D01*
G75*
G02*
X95980000Y-84435000I0J-75000D01*
G01*
X95980000Y-85760000D01*
G75*
G02*
X95905000Y-85835000I-75000J0D01*
G01*
X95755000Y-85835000D01*
G75*
G02*
X95680000Y-85760000I0J75000D01*
G01*
G37*
%TD.AperFunction*%
%TO.P,U1,41*%
%TO.N,N/C*%
%TA.AperFunction,SMDPad,CuDef*%
G36*
G01*
X95180000Y-85760000D02*
X95180000Y-84435000D01*
G75*
G02*
X95255000Y-84360000I75000J0D01*
G01*
X95405000Y-84360000D01*
G75*
G02*
X95480000Y-84435000I0J-75000D01*
G01*
X95480000Y-85760000D01*
G75*
G02*
X95405000Y-85835000I-75000J0D01*
G01*
X95255000Y-85835000D01*
G75*
G02*
X95180000Y-85760000I0J75000D01*
G01*
G37*
%TD.AperFunction*%
%TO.P,U1,42*%
%TA.AperFunction,SMDPad,CuDef*%
G36*
G01*
X94680000Y-85760000D02*
X94680000Y-84435000D01*
G75*
G02*
X94755000Y-84360000I75000J0D01*
G01*
X94905000Y-84360000D01*
G75*
G02*
X94980000Y-84435000I0J-75000D01*
G01*
X94980000Y-85760000D01*
G75*
G02*
X94905000Y-85835000I-75000J0D01*
G01*
X94755000Y-85835000D01*
G75*
G02*
X94680000Y-85760000I0J75000D01*
G01*
G37*
%TD.AperFunction*%
%TO.P,U1,43*%
%TA.AperFunction,SMDPad,CuDef*%
G36*
G01*
X94180000Y-85760000D02*
X94180000Y-84435000D01*
G75*
G02*
X94255000Y-84360000I75000J0D01*
G01*
X94405000Y-84360000D01*
G75*
G02*
X94480000Y-84435000I0J-75000D01*
G01*
X94480000Y-85760000D01*
G75*
G02*
X94405000Y-85835000I-75000J0D01*
G01*
X94255000Y-85835000D01*
G75*
G02*
X94180000Y-85760000I0J75000D01*
G01*
G37*
%TD.AperFunction*%
%TO.P,U1,44*%
%TO.N,BOOT0*%
%TA.AperFunction,SMDPad,CuDef*%
G36*
G01*
X93680000Y-85760000D02*
X93680000Y-84435000D01*
G75*
G02*
X93755000Y-84360000I75000J0D01*
G01*
X93905000Y-84360000D01*
G75*
G02*
X93980000Y-84435000I0J-75000D01*
G01*
X93980000Y-85760000D01*
G75*
G02*
X93905000Y-85835000I-75000J0D01*
G01*
X93755000Y-85835000D01*
G75*
G02*
X93680000Y-85760000I0J75000D01*
G01*
G37*
%TD.AperFunction*%
%TO.P,U1,45*%
%TO.N,CAN_RX*%
%TA.AperFunction,SMDPad,CuDef*%
G36*
G01*
X93180000Y-85760000D02*
X93180000Y-84435000D01*
G75*
G02*
X93255000Y-84360000I75000J0D01*
G01*
X93405000Y-84360000D01*
G75*
G02*
X93480000Y-84435000I0J-75000D01*
G01*
X93480000Y-85760000D01*
G75*
G02*
X93405000Y-85835000I-75000J0D01*
G01*
X93255000Y-85835000D01*
G75*
G02*
X93180000Y-85760000I0J75000D01*
G01*
G37*
%TD.AperFunction*%
%TO.P,U1,46*%
%TO.N,CAN_TX*%
%TA.AperFunction,SMDPad,CuDef*%
G36*
G01*
X92680000Y-85760000D02*
X92680000Y-84435000D01*
G75*
G02*
X92755000Y-84360000I75000J0D01*
G01*
X92905000Y-84360000D01*
G75*
G02*
X92980000Y-84435000I0J-75000D01*
G01*
X92980000Y-85760000D01*
G75*
G02*
X92905000Y-85835000I-75000J0D01*
G01*
X92755000Y-85835000D01*
G75*
G02*
X92680000Y-85760000I0J75000D01*
G01*
G37*
%TD.AperFunction*%
%TO.P,U1,47*%
%TO.N,GNDREF*%
%TA.AperFunction,SMDPad,CuDef*%
G36*
G01*
X92180000Y-85760000D02*
X92180000Y-84435000D01*
G75*
G02*
X92255000Y-84360000I75000J0D01*
G01*
X92405000Y-84360000D01*
G75*
G02*
X92480000Y-84435000I0J-75000D01*
G01*
X92480000Y-85760000D01*
G75*
G02*
X92405000Y-85835000I-75000J0D01*
G01*
X92255000Y-85835000D01*
G75*
G02*
X92180000Y-85760000I0J75000D01*
G01*
G37*
%TD.AperFunction*%
%TO.P,U1,48*%
%TO.N,+3V3*%
%TA.AperFunction,SMDPad,CuDef*%
G36*
G01*
X91680000Y-85760000D02*
X91680000Y-84435000D01*
G75*
G02*
X91755000Y-84360000I75000J0D01*
G01*
X91905000Y-84360000D01*
G75*
G02*
X91980000Y-84435000I0J-75000D01*
G01*
X91980000Y-85760000D01*
G75*
G02*
X91905000Y-85835000I-75000J0D01*
G01*
X91755000Y-85835000D01*
G75*
G02*
X91680000Y-85760000I0J75000D01*
G01*
G37*
%TD.AperFunction*%
%TD*%
%TO.P,C12,1*%
%TO.N,+3V3*%
%TA.AperFunction,SMDPad,CuDef*%
G36*
G01*
X86800000Y-86375000D02*
X87300000Y-86375000D01*
G75*
G02*
X87525000Y-86600000I0J-225000D01*
G01*
X87525000Y-87050000D01*
G75*
G02*
X87300000Y-87275000I-225000J0D01*
G01*
X86800000Y-87275000D01*
G75*
G02*
X86575000Y-87050000I0J225000D01*
G01*
X86575000Y-86600000D01*
G75*
G02*
X86800000Y-86375000I225000J0D01*
G01*
G37*
%TD.AperFunction*%
%TO.P,C12,2*%
%TO.N,GNDREF*%
%TA.AperFunction,SMDPad,CuDef*%
G36*
G01*
X86800000Y-87925000D02*
X87300000Y-87925000D01*
G75*
G02*
X87525000Y-88150000I0J-225000D01*
G01*
X87525000Y-88600000D01*
G75*
G02*
X87300000Y-88825000I-225000J0D01*
G01*
X86800000Y-88825000D01*
G75*
G02*
X86575000Y-88600000I0J225000D01*
G01*
X86575000Y-88150000D01*
G75*
G02*
X86800000Y-87925000I225000J0D01*
G01*
G37*
%TD.AperFunction*%
%TD*%
%TO.P,C13,2*%
%TO.N,GNDREF*%
%TA.AperFunction,SMDPad,CuDef*%
G36*
G01*
X87330000Y-90605000D02*
X86830000Y-90605000D01*
G75*
G02*
X86605000Y-90380000I0J225000D01*
G01*
X86605000Y-89930000D01*
G75*
G02*
X86830000Y-89705000I225000J0D01*
G01*
X87330000Y-89705000D01*
G75*
G02*
X87555000Y-89930000I0J-225000D01*
G01*
X87555000Y-90380000D01*
G75*
G02*
X87330000Y-90605000I-225000J0D01*
G01*
G37*
%TD.AperFunction*%
%TO.P,C13,1*%
%TO.N,+3V3*%
%TA.AperFunction,SMDPad,CuDef*%
G36*
G01*
X87330000Y-92155000D02*
X86830000Y-92155000D01*
G75*
G02*
X86605000Y-91930000I0J225000D01*
G01*
X86605000Y-91480000D01*
G75*
G02*
X86830000Y-91255000I225000J0D01*
G01*
X87330000Y-91255000D01*
G75*
G02*
X87555000Y-91480000I0J-225000D01*
G01*
X87555000Y-91930000D01*
G75*
G02*
X87330000Y-92155000I-225000J0D01*
G01*
G37*
%TD.AperFunction*%
%TD*%
%TO.P,TP5,1*%
%TO.N,PIN5*%
X99760000Y-93470000D03*
%TD*%
D20*
%TO.P,J3,1*%
%TO.N,+3V3*%
X105390000Y-82960000D03*
D21*
%TO.P,J3,2*%
%TO.N,SWDIO*%
X103390000Y-82960000D03*
%TO.P,J3,3*%
%TO.N,SWCLK*%
X101390000Y-82960000D03*
%TO.P,J3,4*%
%TO.N,GNDREF*%
X99390000Y-82960000D03*
%TD*%
%TO.P,R9,1*%
%TO.N,Net-(R2-Pad2)*%
%TA.AperFunction,SMDPad,CuDef*%
G36*
G01*
X111125000Y-82385000D02*
X111125000Y-82935000D01*
G75*
G02*
X110925000Y-83135000I-200000J0D01*
G01*
X110525000Y-83135000D01*
G75*
G02*
X110325000Y-82935000I0J200000D01*
G01*
X110325000Y-82385000D01*
G75*
G02*
X110525000Y-82185000I200000J0D01*
G01*
X110925000Y-82185000D01*
G75*
G02*
X111125000Y-82385000I0J-200000D01*
G01*
G37*
%TD.AperFunction*%
%TO.P,R9,2*%
%TO.N,CAN_L*%
%TA.AperFunction,SMDPad,CuDef*%
G36*
G01*
X109475000Y-82385000D02*
X109475000Y-82935000D01*
G75*
G02*
X109275000Y-83135000I-200000J0D01*
G01*
X108875000Y-83135000D01*
G75*
G02*
X108675000Y-82935000I0J200000D01*
G01*
X108675000Y-82385000D01*
G75*
G02*
X108875000Y-82185000I200000J0D01*
G01*
X109275000Y-82185000D01*
G75*
G02*
X109475000Y-82385000I0J-200000D01*
G01*
G37*
%TD.AperFunction*%
%TD*%
D22*
%TO.P,SW1,2*%
%TO.N,GNDREF*%
X101308960Y-94980000D03*
%TO.P,SW1,1*%
%TO.N,RESET*%
X108511040Y-94980000D03*
%TD*%
D10*
%TO.P,TP9,1*%
%TO.N,USART_TX*%
X87060000Y-93820000D03*
%TD*%
D23*
%TO.N,GNDREF*%
X110150000Y-95000000D03*
X95840000Y-95760000D03*
X72600000Y-84400000D03*
X112240000Y-87640000D03*
X73080000Y-92450000D03*
X74680000Y-92390000D03*
X73740000Y-86020000D03*
X76080000Y-86440000D03*
X79780000Y-81890000D03*
X75010002Y-83760000D03*
X88960000Y-95430000D03*
X86350000Y-84500000D03*
X102900000Y-92820000D03*
X78110000Y-94750000D03*
X79250000Y-94570000D03*
X106270000Y-87929996D03*
X71170000Y-95250000D03*
X102030000Y-87710000D03*
X91650000Y-81860000D03*
X92335991Y-82535991D03*
X100560000Y-94970000D03*
D24*
X86570000Y-87800000D03*
X86090000Y-90110000D03*
X87960000Y-90820000D03*
D23*
X83814990Y-93445000D03*
D24*
X87990000Y-87800000D03*
D23*
X81290000Y-81770000D03*
X88133616Y-96050740D03*
X109850000Y-86800000D03*
D24*
X70560000Y-90040000D03*
%TO.N,+3V3*%
X82160000Y-92500000D03*
D23*
X87600000Y-82550000D03*
X113950000Y-95850000D03*
D24*
X82070000Y-91380000D03*
D23*
X110740000Y-85140000D03*
X99277993Y-95802007D03*
X81320000Y-93750000D03*
X80999992Y-95660008D03*
X102110000Y-86150000D03*
D24*
X87070000Y-85690000D03*
X88550000Y-85750000D03*
X87110000Y-92620000D03*
X88610000Y-92800000D03*
X80660000Y-87000000D03*
D23*
%TO.N,+5V*%
X73890000Y-94140000D03*
X75590000Y-94190000D03*
X77290000Y-94180000D03*
X74110000Y-81950000D03*
X76330000Y-81880000D03*
X77090000Y-88480000D03*
X77480000Y-81830000D03*
D24*
%TO.N,BLUE_LED*%
X93250000Y-95762000D03*
X92100000Y-87860000D03*
D23*
%TO.N,Net-(F1-Pad2)*%
X70570000Y-87320000D03*
%TO.N,CAN_H*%
X106420000Y-89860000D03*
%TO.N,CAN_L*%
X107620000Y-88904990D03*
D24*
%TO.N,CAN_TX*%
X93403692Y-86697842D03*
%TO.N,CAN_RX*%
X96270000Y-88430000D03*
D23*
%TO.N,USART_RX*%
X83360000Y-86080000D03*
D24*
X92599990Y-91594620D03*
D23*
X85730000Y-92810000D03*
%TO.N,Net-(U4-Pad3)*%
X83826063Y-87093939D03*
X77610000Y-87040000D03*
%TO.N,Net-(U4-Pad4)*%
X83250000Y-88640000D03*
X80780000Y-89840000D03*
%TO.N,PIN3*%
X92160000Y-90640000D03*
X92615000Y-88915000D03*
%TD*%
D25*
%TO.N,GNDREF*%
X111250000Y-95800000D02*
X111250000Y-95250000D01*
X111250000Y-95250000D02*
X111000000Y-95000000D01*
X110200000Y-95000000D02*
X110150000Y-95050000D01*
X111000000Y-95000000D02*
X110200000Y-95000000D01*
D26*
X72600000Y-84400000D02*
X73000000Y-84800000D01*
X73000000Y-84800000D02*
X73950000Y-84800000D01*
X77290000Y-91690000D02*
X77110000Y-91690000D01*
X75410000Y-91690000D02*
X74750000Y-92350000D01*
X75590000Y-91690000D02*
X75410000Y-91690000D01*
D27*
X73875000Y-91665000D02*
X73100000Y-92440000D01*
X73890000Y-91665000D02*
X73875000Y-91665000D01*
D25*
X73090000Y-92440000D02*
X73080000Y-92450000D01*
X73100000Y-92440000D02*
X73090000Y-92440000D01*
X74720000Y-92350000D02*
X74680000Y-92390000D01*
X74750000Y-92350000D02*
X74720000Y-92350000D01*
D26*
X95882000Y-95802000D02*
X95840000Y-95760000D01*
D27*
X112230001Y-87650000D02*
X112240001Y-87640000D01*
X111200000Y-87650000D02*
X112230001Y-87650000D01*
D25*
X89803000Y-95802000D02*
X89332000Y-95802000D01*
X89332000Y-95802000D02*
X88960000Y-95430000D01*
D26*
X72100000Y-95250000D02*
X71170000Y-95250000D01*
D25*
X102010000Y-87730000D02*
X102030000Y-87710000D01*
X100970000Y-87730000D02*
X102010000Y-87730000D01*
X95860000Y-95740000D02*
X95840000Y-95760000D01*
X96755000Y-95740000D02*
X95860000Y-95740000D01*
X88250000Y-90155000D02*
X88395000Y-90010000D01*
X91000000Y-81860000D02*
X91650000Y-81860000D01*
X90845000Y-82015000D02*
X91000000Y-81860000D01*
X90845000Y-82630000D02*
X90845000Y-82015000D01*
D26*
X93076000Y-82536000D02*
X92336000Y-82536000D01*
X92336000Y-82536000D02*
X92335991Y-82535991D01*
D25*
X101298960Y-94970000D02*
X101308960Y-94980000D01*
X100560000Y-94970000D02*
X101298960Y-94970000D01*
X87050000Y-88280000D02*
X86570000Y-87800000D01*
X87050000Y-88375000D02*
X87050000Y-88280000D01*
X88590000Y-88385000D02*
X88590000Y-88150000D01*
X86135000Y-90155000D02*
X86090000Y-90110000D01*
X87080000Y-90155000D02*
X86135000Y-90155000D01*
X88620000Y-90160000D02*
X87960000Y-90820000D01*
X88620000Y-90155000D02*
X88620000Y-90160000D01*
X87080000Y-90155000D02*
X88620000Y-90155000D01*
D26*
X84800000Y-93445000D02*
X83814990Y-93445000D01*
D25*
X88575000Y-88385000D02*
X87990000Y-87800000D01*
X88590000Y-88385000D02*
X88575000Y-88385000D01*
D27*
X75700000Y-86820000D02*
X76080000Y-86440000D01*
X75700000Y-87400000D02*
X75700000Y-86820000D01*
D28*
X77265000Y-91665000D02*
X77290000Y-91690000D01*
X73890000Y-91665000D02*
X77265000Y-91665000D01*
D25*
X81285000Y-81775000D02*
X81290000Y-81770000D01*
X81285000Y-82660000D02*
X81285000Y-81775000D01*
X87932876Y-95850000D02*
X88133616Y-96050740D01*
X87065000Y-95850000D02*
X87932876Y-95850000D01*
D28*
X98742500Y-87010000D02*
X99474988Y-87010000D01*
X99510346Y-87010000D02*
X100102494Y-87602148D01*
X100102494Y-87602148D02*
X100102494Y-87637506D01*
X98742500Y-87010000D02*
X99510346Y-87010000D01*
D25*
X99474988Y-87010000D02*
X100102494Y-87637506D01*
D28*
X100877506Y-87637506D02*
X100970000Y-87730000D01*
X100102494Y-87637506D02*
X100877506Y-87637506D01*
X92330000Y-85097500D02*
X92330000Y-83300000D01*
X92330000Y-83300000D02*
X91710000Y-82680000D01*
D25*
X91660000Y-82630000D02*
X91710000Y-82680000D01*
D28*
X90845000Y-82630000D02*
X91660000Y-82630000D01*
X88765000Y-90010000D02*
X88620000Y-90155000D01*
X90417500Y-90010000D02*
X88765000Y-90010000D01*
X96830000Y-95665000D02*
X96755000Y-95740000D01*
X96830000Y-93422500D02*
X96830000Y-95665000D01*
D27*
X70620000Y-90100000D02*
X70560000Y-90040000D01*
X71750000Y-90100000D02*
X70620000Y-90100000D01*
D25*
%TO.N,+3V3*%
X113925000Y-95875000D02*
X113950000Y-95850000D01*
X113050000Y-95875000D02*
X113925000Y-95875000D01*
D26*
X99277986Y-95802000D02*
X99277993Y-95802007D01*
D25*
X80999992Y-96000008D02*
X80999992Y-95660008D01*
X80540000Y-96460000D02*
X80999992Y-96000008D01*
X77690000Y-96460000D02*
X80540000Y-96460000D01*
X76950000Y-95720000D02*
X77690000Y-96460000D01*
X76950000Y-95300000D02*
X76950000Y-95720000D01*
X88585000Y-86510000D02*
X88280000Y-86815000D01*
X102080000Y-86180000D02*
X102110000Y-86150000D01*
X100970000Y-86180000D02*
X102080000Y-86180000D01*
X99215986Y-95740000D02*
X99277993Y-95802007D01*
X98305000Y-95740000D02*
X99215986Y-95740000D01*
X88250000Y-91705000D02*
X88705000Y-91705000D01*
X89680000Y-90510000D02*
X90417500Y-90510000D01*
X88705000Y-91705000D02*
X88705000Y-91485000D01*
X89215000Y-82550000D02*
X89295000Y-82630000D01*
X87600000Y-82550000D02*
X89215000Y-82550000D01*
X87080000Y-91705000D02*
X88620000Y-91705000D01*
X87080000Y-92780000D02*
X87110000Y-92810000D01*
X87080000Y-91705000D02*
X87080000Y-92780000D01*
X88620000Y-91705000D02*
X88620000Y-92790000D01*
X88620000Y-92790000D02*
X88610000Y-92800000D01*
D28*
X88915000Y-86510000D02*
X88590000Y-86835000D01*
X90417500Y-86510000D02*
X88915000Y-86510000D01*
X88590000Y-85790000D02*
X88550000Y-85750000D01*
X88590000Y-86835000D02*
X88590000Y-85790000D01*
X87050000Y-85710000D02*
X87070000Y-85690000D01*
X87050000Y-86825000D02*
X87050000Y-85710000D01*
X98742500Y-86510000D02*
X99760000Y-86510000D01*
X99760000Y-86510000D02*
X100090000Y-86180000D01*
X100090000Y-86180000D02*
X100970000Y-86180000D01*
X91830000Y-85097500D02*
X91830000Y-84300000D01*
X91830000Y-84300000D02*
X91040000Y-83510000D01*
X91040000Y-83510000D02*
X89560000Y-83510000D01*
X89295000Y-83245000D02*
X89560000Y-83510000D01*
X89295000Y-82630000D02*
X89295000Y-83245000D01*
X88580000Y-86825000D02*
X88590000Y-86835000D01*
X87050000Y-86825000D02*
X88580000Y-86825000D01*
X90417500Y-90510000D02*
X89420000Y-90510000D01*
X88620000Y-91372478D02*
X88620000Y-91705000D01*
X89420000Y-90572478D02*
X88620000Y-91372478D01*
X89420000Y-90510000D02*
X89420000Y-90572478D01*
X98305000Y-94995000D02*
X98305000Y-95740000D01*
X98000000Y-94690000D02*
X98305000Y-94995000D01*
X97560000Y-94690000D02*
X98000000Y-94690000D01*
X97330000Y-94460000D02*
X97560000Y-94690000D01*
X97330000Y-93422500D02*
X97330000Y-94460000D01*
D26*
%TO.N,+5V*%
X79185000Y-93460000D02*
X79200000Y-93445000D01*
X78230000Y-93460000D02*
X79185000Y-93460000D01*
D27*
X73890000Y-93215000D02*
X73890000Y-94140000D01*
X75590000Y-93240000D02*
X75590000Y-94190000D01*
X77290000Y-94180000D02*
X77280000Y-94190000D01*
X77290000Y-93240000D02*
X77290000Y-94180000D01*
X75565000Y-93215000D02*
X75590000Y-93240000D01*
X73890000Y-93215000D02*
X75565000Y-93215000D01*
X75590000Y-93240000D02*
X77290000Y-93240000D01*
X77290000Y-93240000D02*
X78010000Y-93240000D01*
X78010000Y-93240000D02*
X78230000Y-93460000D01*
X79215000Y-93460000D02*
X79230000Y-93445000D01*
X78230000Y-93460000D02*
X79215000Y-93460000D01*
X73890000Y-94140000D02*
X73870000Y-94160000D01*
D28*
X77170001Y-90430001D02*
X77550000Y-90050002D01*
X77550000Y-90050002D02*
X77550000Y-88940000D01*
X75980001Y-90430001D02*
X77170001Y-90430001D01*
X75700000Y-90150000D02*
X75980001Y-90430001D01*
X75700000Y-89600000D02*
X75700000Y-90150000D01*
X77550000Y-88940000D02*
X77090000Y-88480000D01*
D25*
%TO.N,RESET*%
X113025000Y-94250000D02*
X113050000Y-94225000D01*
X113050000Y-94225000D02*
X113050000Y-94350000D01*
X113050000Y-94350000D02*
X112450000Y-94950000D01*
X111950000Y-94950000D02*
X111250000Y-94250000D01*
X112450000Y-94950000D02*
X111950000Y-94950000D01*
X110140000Y-93150000D02*
X108511040Y-94778960D01*
X111000000Y-93150000D02*
X110140000Y-93150000D01*
X108511040Y-94778960D02*
X108511040Y-94980000D01*
X111250000Y-93400000D02*
X111000000Y-93150000D01*
X111250000Y-94250000D02*
X111250000Y-93400000D01*
X107261040Y-96230000D02*
X108511040Y-94980000D01*
X101090000Y-96230000D02*
X107261040Y-96230000D01*
X98005000Y-93145000D02*
X101090000Y-96230000D01*
X98005000Y-92784998D02*
X98005000Y-93145000D01*
X94730002Y-89510000D02*
X98005000Y-92784998D01*
X90417500Y-89510000D02*
X94730002Y-89510000D01*
X82587501Y-87267501D02*
X83070000Y-87750000D01*
X89135000Y-89315000D02*
X89340000Y-89520000D01*
X86345000Y-89315000D02*
X89135000Y-89315000D01*
X85890000Y-88860000D02*
X86345000Y-89315000D01*
X90407500Y-89520000D02*
X90417500Y-89510000D01*
X89340000Y-89520000D02*
X90407500Y-89520000D01*
X85890000Y-88120000D02*
X85890000Y-88860000D01*
X83070000Y-87750000D02*
X85520000Y-87750000D01*
X82587501Y-86562499D02*
X82587501Y-87267501D01*
X85520000Y-87750000D02*
X85890000Y-88120000D01*
X79250002Y-83225000D02*
X82587501Y-86562499D01*
X76350000Y-83225000D02*
X79250002Y-83225000D01*
%TO.N,Net-(C15-Pad1)*%
X75624990Y-83374990D02*
X75624990Y-83646758D01*
X75500000Y-83250000D02*
X75624990Y-83374990D01*
X73950000Y-83250000D02*
X75500000Y-83250000D01*
X75953242Y-83925010D02*
X76008231Y-83979999D01*
X75903242Y-83925010D02*
X75953242Y-83925010D01*
X75624990Y-83646758D02*
X75903242Y-83925010D01*
X84800000Y-89635000D02*
X83265000Y-89635000D01*
D26*
X83265000Y-89635000D02*
X84830000Y-89635000D01*
X81882500Y-88252500D02*
X83265000Y-89635000D01*
X78409999Y-85130001D02*
X80140001Y-85130001D01*
X76008231Y-83979999D02*
X77259997Y-83979999D01*
X77259997Y-83979999D02*
X78409999Y-85130001D01*
X80140001Y-85130001D02*
X81882500Y-86872500D01*
X81882500Y-86872500D02*
X81882500Y-88252500D01*
D25*
%TO.N,Net-(C18-Pad2)*%
X78130000Y-88565000D02*
X79200000Y-89635000D01*
X78130000Y-86250000D02*
X78130000Y-88565000D01*
X76655000Y-84775000D02*
X78130000Y-86250000D01*
X76350000Y-84775000D02*
X76655000Y-84775000D01*
D26*
%TO.N,Net-(D1-Pad1)*%
X75325000Y-95250000D02*
X75375000Y-95300000D01*
X73750000Y-95250000D02*
X75325000Y-95250000D01*
D25*
%TO.N,Net-(D2-Pad1)*%
X94150000Y-96600000D02*
X94825000Y-95925000D01*
X92050000Y-96600000D02*
X94150000Y-96600000D01*
X94825000Y-95925000D02*
X94825000Y-95762000D01*
X91453000Y-96003000D02*
X92050000Y-96600000D01*
X91453000Y-95802000D02*
X91453000Y-96003000D01*
%TO.N,BLUE_LED*%
X93250000Y-95762000D02*
X93340000Y-95672000D01*
X91250000Y-87010000D02*
X92100000Y-87860000D01*
X90417500Y-87010000D02*
X91250000Y-87010000D01*
D27*
%TO.N,Net-(F1-Pad2)*%
X71750000Y-87500000D02*
X70750000Y-87500000D01*
X70570000Y-87320000D02*
X70750000Y-87500000D01*
D26*
%TO.N,CAN_H*%
X112560000Y-90150000D02*
X111200000Y-90150000D01*
X113500000Y-89210000D02*
X112560000Y-90150000D01*
X113500000Y-86650000D02*
X113500000Y-89210000D01*
X112660000Y-85810000D02*
X113500000Y-86650000D01*
X112660000Y-84450000D02*
X112660000Y-85810000D01*
X112885000Y-82950000D02*
X112885000Y-83305000D01*
D25*
X112660000Y-83175000D02*
X112885000Y-82950000D01*
X112660000Y-84450000D02*
X112660000Y-83175000D01*
D26*
X110480000Y-89430000D02*
X106850000Y-89430000D01*
X111200000Y-90150000D02*
X110480000Y-89430000D01*
X106850000Y-89430000D02*
X106420000Y-89860000D01*
D25*
%TO.N,CAN_L*%
X107624990Y-88900000D02*
X107620000Y-88904990D01*
X111200000Y-88900000D02*
X107624990Y-88900000D01*
X107640000Y-84095000D02*
X107640000Y-88884990D01*
X107640000Y-88884990D02*
X107620000Y-88904990D01*
X109075000Y-82660000D02*
X107640000Y-84095000D01*
%TO.N,Net-(J2-Pad3)*%
X71750000Y-88800000D02*
X72150000Y-88800000D01*
X76650000Y-88870000D02*
X76650000Y-89600000D01*
X76480000Y-88700000D02*
X76650000Y-88870000D01*
X71850000Y-88700000D02*
X76480000Y-88700000D01*
X71750000Y-88800000D02*
X71850000Y-88700000D01*
%TO.N,Net-(J2-Pad2)*%
X76530000Y-88250000D02*
X76650000Y-88130000D01*
X71850000Y-88250000D02*
X76530000Y-88250000D01*
X76650000Y-88130000D02*
X76650000Y-87400000D01*
X71750000Y-88150000D02*
X71850000Y-88250000D01*
%TO.N,SWDIO*%
X97470000Y-87120000D02*
X97860000Y-87510000D01*
X103390000Y-82960000D02*
X103390000Y-84110000D01*
X102600000Y-84900000D02*
X99155364Y-84900000D01*
X97860000Y-87510000D02*
X98742500Y-87510000D01*
X97470000Y-86585364D02*
X97470000Y-87120000D01*
X99155364Y-84900000D02*
X97470000Y-86585364D01*
X103390000Y-84110000D02*
X102600000Y-84900000D01*
%TO.N,SWCLK*%
X101550000Y-83130000D02*
X101580000Y-83100000D01*
X97330000Y-85097500D02*
X97330000Y-84130000D01*
X97330000Y-84130000D02*
X99350000Y-84130000D01*
X99350000Y-84130000D02*
X100850000Y-84130000D01*
X101390000Y-83590000D02*
X101390000Y-82960000D01*
X100850000Y-84130000D02*
X101390000Y-83590000D01*
%TO.N,BOOT0*%
X94726000Y-83034000D02*
X94726000Y-82536000D01*
X93830000Y-83930000D02*
X94726000Y-83034000D01*
X93830000Y-83930000D02*
X93830000Y-85097500D01*
%TO.N,CAN_TX*%
X92830000Y-85097500D02*
X92830000Y-86124150D01*
X92830000Y-86124150D02*
X93403692Y-86697842D01*
%TO.N,CAN_RX*%
X93925010Y-86085010D02*
X96270000Y-88430000D01*
X93620374Y-86085010D02*
X93925010Y-86085010D01*
X93330000Y-85794636D02*
X93620374Y-86085010D01*
X93330000Y-85097500D02*
X93330000Y-85794636D01*
%TO.N,USART_TX*%
X83575000Y-90905000D02*
X84830000Y-90905000D01*
X82990000Y-91490000D02*
X83575000Y-90905000D01*
X83557500Y-95900000D02*
X83747500Y-95710000D01*
X82990000Y-93290000D02*
X82990000Y-94270000D01*
X82990000Y-93530000D02*
X82990000Y-93290000D01*
X82990000Y-93290000D02*
X82990000Y-91490000D01*
X83747500Y-95027500D02*
X83747500Y-95850000D01*
X82990000Y-94270000D02*
X83747500Y-95027500D01*
X95049636Y-94900000D02*
X95830000Y-94119636D01*
X88140000Y-94900000D02*
X95049636Y-94900000D01*
X95830000Y-94119636D02*
X95830000Y-93422500D01*
X86270000Y-93030000D02*
X88140000Y-94900000D01*
X84830000Y-90905000D02*
X84830000Y-91290000D01*
X85612500Y-91562500D02*
X86270000Y-92220000D01*
X86270000Y-92220000D02*
X86270000Y-93030000D01*
X85102500Y-91562500D02*
X85612500Y-91562500D01*
X84830000Y-91290000D02*
X85102500Y-91562500D01*
%TO.N,USART_RX*%
X82865000Y-85585000D02*
X83360000Y-86080000D01*
X96330000Y-92219990D02*
X95704630Y-91594620D01*
X96330000Y-93422500D02*
X96330000Y-92219990D01*
X95704630Y-91594620D02*
X92599990Y-91594620D01*
X82865000Y-85585000D02*
X82865000Y-84045000D01*
X84260000Y-82650000D02*
X84485000Y-82650000D01*
X82865000Y-84045000D02*
X84260000Y-82650000D01*
X84485000Y-82650000D02*
X84485000Y-83165000D01*
X84485000Y-83165000D02*
X85080000Y-83760000D01*
X87200000Y-83760000D02*
X87760000Y-84320000D01*
X85080000Y-83760000D02*
X87200000Y-83760000D01*
X84830000Y-92175000D02*
X85007451Y-92175000D01*
X85730000Y-92810000D02*
X85730000Y-92790000D01*
X85115000Y-92175000D02*
X84830000Y-92175000D01*
X85730000Y-92790000D02*
X85115000Y-92175000D01*
%TO.N,Net-(U4-Pad3)*%
X84800000Y-87095000D02*
X83827124Y-87095000D01*
X83827124Y-87095000D02*
X83826063Y-87093939D01*
X74750000Y-87400000D02*
X74750000Y-86670000D01*
X75520000Y-85900000D02*
X76470000Y-85900000D01*
X74750000Y-86670000D02*
X75520000Y-85900000D01*
X76470000Y-85900000D02*
X77610000Y-87040000D01*
%TO.N,Net-(U4-Pad4)*%
X74750000Y-89600000D02*
X74750000Y-89805000D01*
X84830000Y-88365000D02*
X84965000Y-88365000D01*
X83525000Y-88365000D02*
X83250000Y-88640000D01*
X84830000Y-88365000D02*
X83525000Y-88365000D01*
X77784998Y-90970000D02*
X78564999Y-90189999D01*
X75390000Y-90970000D02*
X77784998Y-90970000D01*
X78564999Y-90189999D02*
X80430001Y-90189999D01*
X74750000Y-90330000D02*
X75390000Y-90970000D01*
X74750000Y-89600000D02*
X74750000Y-90330000D01*
X80430001Y-90189999D02*
X80780000Y-89840000D01*
%TO.N,Net-(D3-Pad1)*%
X82172500Y-95850000D02*
X82172500Y-96342500D01*
X82172500Y-96342500D02*
X82440000Y-96610000D01*
X82440000Y-96610000D02*
X85240000Y-96610000D01*
X85415000Y-96435000D02*
X85415000Y-95850000D01*
X85240000Y-96610000D02*
X85415000Y-96435000D01*
%TO.N,Net-(D4-Pad1)*%
X82935000Y-82660000D02*
X82935000Y-81865000D01*
X82935000Y-81865000D02*
X83320000Y-81480000D01*
X83320000Y-81480000D02*
X85690000Y-81480000D01*
X86060000Y-81850000D02*
X86060000Y-82650000D01*
X85690000Y-81480000D02*
X86060000Y-81850000D01*
%TO.N,PIN1*%
X95830000Y-85097500D02*
X95830000Y-83220000D01*
X95830000Y-83220000D02*
X96550000Y-82500000D01*
%TO.N,PIN2*%
X89950000Y-94000000D02*
X90490000Y-93460000D01*
X91792500Y-93460000D02*
X91830000Y-93422500D01*
X90490000Y-93460000D02*
X91792500Y-93460000D01*
%TO.N,PIN3*%
X91790000Y-91010000D02*
X92160000Y-90640000D01*
X90417500Y-91010000D02*
X91790000Y-91010000D01*
X92520000Y-89010000D02*
X92615000Y-88915000D01*
X90160000Y-84650000D02*
X89750000Y-84650000D01*
X92907998Y-87397998D02*
X90160000Y-84650000D01*
X92950000Y-87397998D02*
X92907998Y-87397998D01*
X92950000Y-88580000D02*
X92950000Y-87397998D01*
X92615000Y-88915000D02*
X92950000Y-88580000D01*
%TO.N,PIN4*%
X100190000Y-90010000D02*
X101260000Y-91080000D01*
X98742500Y-90010000D02*
X100190000Y-90010000D01*
%TO.N,PIN5*%
X98752500Y-92732500D02*
X99490000Y-93470000D01*
X98742500Y-92732500D02*
X98752500Y-92732500D01*
X99490000Y-93470000D02*
X99760000Y-93470000D01*
X98742500Y-92010000D02*
X98742500Y-92732500D01*
%TO.N,Net-(R2-Pad2)*%
X110725000Y-81925000D02*
X110725000Y-82660000D01*
X114150000Y-81680000D02*
X110970000Y-81680000D01*
X114535000Y-82065000D02*
X114150000Y-81680000D01*
X110970000Y-81680000D02*
X110725000Y-81925000D01*
X114535000Y-82950000D02*
X114535000Y-82065000D01*
%TD*%
M02*
